SplineFontDB: 3.2
FontName: SeriousShannsBold
FullName: Serious Shanns Bold
FamilyName: Serious Shanns Bold
Weight: Bold
Copyright: https://github.com/kaBeech/serious-shanns/blob/main/LICENSE
Version: 6.0.0
ItalicAngle: 0
UnderlinePosition: 0
UnderlineWidth: 0
Ascent: 800
Descent: 200
InvalidEm: 0
sfntRevision: 0x00003333
LayerCount: 2
Layer: 0 0 "Back" 1
Layer: 1 0 "Fore" 0
XUID: [1021 45 630387186 1689187]
StyleMap: 0x0040
FSType: 4
OS2Version: 3
OS2_WeightWidthSlopeOnly: 0
OS2_UseTypoMetrics: 0
CreationTime: 1532631502
ModificationTime: 315532800
PfmFamily: 81
TTFWeight: 700
TTFWidth: 5
LineGap: 0
VLineGap: 0
Panose: 0 0 0 0 0 0 0 0 0 0
OS2TypoAscent: 613
OS2TypoAOffset: 0
OS2TypoDescent: -188
OS2TypoDOffset: 0
OS2TypoLinegap: 98
OS2WinAscent: 778
OS2WinAOffset: 0
OS2WinDescent: 308
OS2WinDOffset: 0
HheadAscent: 796
HheadAOffset: 0
HheadDescent: -317
HheadDOffset: 0
OS2SubXSize: 317
OS2SubYSize: 293
OS2SubXOff: 0
OS2SubYOff: 37
OS2SupXSize: 317
OS2SupYSize: 293
OS2SupXOff: 0
OS2SupYOff: 171
OS2StrikeYSize: 0
OS2StrikeYPos: 132
OS2CapHeight: 576
OS2XHeight: 485
OS2Vendor: 'NONE'
OS2CodePages: 00000001.00000000
OS2UnicodeRanges: 00000001.00000000.00000000.00000000
MarkAttachClasses: 1
DEI: 91125
LangName: 1033 "" "" "Normal" "" "" "Version 0.2.0"
Encoding: UnicodeBmp
Compacted: 1
UnicodeInterp: none
NameList: AGL For New Fonts
DisplaySize: -48
AntiAlias: 1
FitToEm: 0
WinInfo: 0 16 14
BeginPrivate: 9
BlueValues 32 [-39 -6 502 523 708 718 765 769]
OtherBlues 11 [-297 -287]
BlueScale 9 0.0291667
BlueShift 1 2
StdHW 5 [110]
StdVW 5 [128]
StemSnapH 5 [110]
StemSnapV 9 [128 134]
ForceBold 4 true
EndPrivate
BeginChars: 65537 105

StartChar: .notdef
Encoding: 65536 -1 0
Width: 590
GlyphClass: 1
Flags: W
HStem: -280 78<147 443> 683 78<147 443>
VStem: 69 78<-202 683> 443 78<-202 683>
LayerCount: 2
Fore
SplineSet
69 -280 m 1
 69 761 l 1
 521 761 l 1
 521 -280 l 1
 69 -280 l 1
147 683 m 1
 147 -202 l 1
 443 -202 l 1
 443 683 l 1
 147 683 l 1
EndSplineSet
Validated: 1
EndChar

StartChar: exclam
Encoding: 33 33 1
Width: 590
GlyphClass: 2
Flags: W
HStem: -37.002 179.001<238.347 355.352>
VStem: 201.481 187.037<-3.98231 106.918> 235.479 122.001<248.311 379.795> 243.479 115.001<294.405 784.434>
LayerCount: 2
Fore
SplineSet
365.479492188 738 m 0x90
 365.479492188 732 364.147460938 694.665039062 361.48046875 625.998046875 c 0
 359.48046875 557.331054688 358.48046875 502.331054688 358.48046875 460.998046875 c 0
 358.48046875 441.665039062 358.813476562 421.33203125 359.48046875 399.999023438 c 0
 360.147460938 379.33203125 360.48046875 361.33203125 360.48046875 345.999023438 c 0
 360.48046875 330.666015625 359.813476562 320.333007812 358.48046875 315 c 0x90
 357.813476562 309.666992188 357.48046875 302.666992188 357.48046875 294 c 0xa0
 357.48046875 285.333007812 357.813476562 277.333007812 358.48046875 270 c 0x90
 356.48046875 251.333007812 349.147460938 237 336.48046875 227 c 0
 325.147460938 217.666992188 311.48046875 212.666992188 295.48046875 212 c 2
 291.48046875 212 l 2
 274.813476562 212 261.147460938 218 250.479492188 230 c 0
 240.479492188 240 235.479492188 253.333007812 235.479492188 270 c 0xa0
 235.479492188 278 236.8125 288.333007812 239.479492188 301 c 0
 241.479492188 314.333007812 242.8125 324 243.479492188 330 c 0
 244.147460938 336 244.479492188 346.333007812 244.479492188 361 c 2
 244.479492188 402 l 2
 244.479492188 415.333007812 244.147460938 435.666015625 243.479492188 462.999023438 c 0
 242.147460938 494.999023438 241.479492188 525.666015625 241.479492188 554.999023438 c 2
 241.479492188 623.999023438 l 2
 242.147460938 640.666015625 242.813476562 661.333007812 243.48046875 686 c 0
 244.147460938 710.666992188 244.48046875 727 244.48046875 735 c 1
 245.147460938 756.333007812 251.48046875 773 263.48046875 785 c 0
 274.813476562 796.333007812 289.147460938 802 306.479492188 802 c 2
 309.479492188 802 l 2
 325.479492188 802 338.8125 796.666992188 349.479492188 786 c 0
 360.147460938 775.333007812 365.479492188 759.333007812 365.479492188 738 c 0x90
287.48046875 -37.001953125 m 2
 264.147460938 -37.001953125 244.481445312 -29.0009765625 228.481445312 -13.0009765625 c 0
 210.481445312 5.666015625 201.481445312 27.9990234375 201.481445312 53.9990234375 c 0
 201.481445312 77.9990234375 211.481445312 98.33203125 231.481445312 114.999023438 c 0
 252.1484375 132.999023438 275.1484375 141.999023438 300.481445312 141.999023438 c 0
 325.815429688 141.999023438 346.815429688 133.999023438 363.481445312 117.999023438 c 0
 380.171875 101.30859375 388.518554688 81.2177734375 388.518554688 57.7255859375 c 0xc0
 388.518554688 44.673828125 387.948242188 17.443359375 364.48046875 -7.001953125 c 0
 347.813476562 -23.6689453125 325.813476562 -33.6689453125 298.48046875 -37.001953125 c 2
 287.48046875 -37.001953125 l 2
EndSplineSet
Validated: 524289
EndChar

StartChar: quotedbl
Encoding: 34 34 2
Width: 590
GlyphClass: 2
Flags: W
VStem: 150.5 122<438.439 586.418> 153.5 127<442.249 783.227> 310.5 130<442.134 783.794>
LayerCount: 2
Fore
SplineSet
440.5 738 m 2x20
 440.5 719 l 2
 440.5 685 440.169921875 641.666992188 439.502929688 589 c 0
 438.169921875 533.666992188 436.169921875 495 433.502929688 473 c 0
 430.8359375 456.333007812 423.16796875 443.666015625 410.501953125 434.999023438 c 0
 399.834960938 426.999023438 388.16796875 422.999023438 375.5 422.999023438 c 0
 358.833984375 422.999023438 343.833984375 427.999023438 330.5 437.999023438 c 0
 317.833984375 447.33203125 311.5 459.999023438 311.5 475.999023438 c 2
 311.5 481.999023438 l 2
 312.833984375 504.666015625 313.5 531.999023438 313.5 563.999023438 c 0
 313.5 631.33203125 312.5 690.999023438 310.5 742.999023438 c 2
 310.5 745.999023438 l 2
 310.5 755.33203125 312.833984375 763.83203125 317.5 771.499023438 c 0
 322.16796875 779.166015625 328.834960938 784.666015625 337.501953125 787.999023438 c 0
 349.501953125 792.666015625 361.501953125 795.333007812 373.501953125 796 c 0
 383.501953125 796 391.66796875 795 398.001953125 793 c 0
 404.334960938 791 410.501953125 788.333007812 416.501953125 785 c 0
 423.834960938 781 429.66796875 774.833007812 434 766.5 c 0
 438.333984375 758.166992188 440.5 748.666992188 440.5 738 c 2x20
280.5 739 m 2x60
 280.5 697 l 2x60
 280.5 677.666992188 279.833984375 641.666992188 278.5 589 c 0
 277.16796875 533.666992188 275.16796875 495 272.5 473 c 0
 269.833984375 456.333007812 262.5 443.666015625 250.5 434.999023438 c 0
 239.833984375 426.999023438 228.166992188 422.999023438 215.5 422.999023438 c 0
 198.83203125 422.999023438 183.5 427.999023438 169.5 437.999023438 c 0
 156.83203125 447.33203125 150.5 459.999023438 150.5 475.999023438 c 0xa0
 150.5 477.999023438 150.83203125 480.33203125 151.5 482.999023438 c 0
 153 502.498046875 153.75 525.185546875 153.75 551.059570312 c 0
 153.75 559.684570312 153.666992188 568.665039062 153.5 577.999023438 c 2
 153.5 611.999023438 l 2
 152.83203125 679.33203125 151.5 724.33203125 149.5 746.999023438 c 0
 149.5 755.666015625 151.83203125 763.666015625 156.5 770.999023438 c 0
 161.83203125 778.999023438 168.5 784.666015625 176.5 787.999023438 c 0
 188.5 792.666015625 200.83203125 795.333007812 213.5 796 c 0
 223.5 796 231.666992188 795 238 793 c 0
 244.33203125 791 250.83203125 788 257.5 784 c 0
 264.166992188 780 269.5 774 273.5 766 c 0
 277.5 758 279.83203125 749 280.5 739 c 2x60
EndSplineSet
Validated: 524289
EndChar

StartChar: numbersign
Encoding: 35 35 3
Width: 590
GlyphClass: 2
Flags: W
HStem: -13.999 20.9004G<121.333 129.333 347.998 355.998> 179.001 107.003<35.5032 95 243.003 315.999 461 528.621> 433.004 109<74.4746 146 292.999 362.003 506 551.404>
LayerCount: 2
Fore
SplineSet
362.002929688 433.00390625 m 1
 272.002929688 433.00390625 l 1
 243.002929688 286.00390625 l 1
 267.002929688 286.670898438 297.669921875 287.001953125 335.002929688 287.001953125 c 1
 344.3359375 334.334960938 353.3359375 383.00390625 362.002929688 433.00390625 c 1
146 431 m 1
 128 430.333007812 118.002929688 430.333007812 116.002929688 431 c 0
 98.0029296875 431 84.0029296875 435.334960938 74.0029296875 444.001953125 c 0
 62.669921875 454.001953125 56.669921875 466.668945312 56.0029296875 482.001953125 c 2
 56.0029296875 485.001953125 l 2
 56.0029296875 499.001953125 61.3330078125 511.334960938 72 522.001953125 c 0
 82.6669921875 532.668945312 98.0029296875 538.3359375 118.002929688 539.002929688 c 0
 129.3359375 539.669921875 145.668945312 540.002929688 167.001953125 540.002929688 c 1
 194.001953125 686.002929688 l 2
 200.001953125 706.669921875 210.334960938 720.669921875 225.001953125 728.002929688 c 0
 234.334960938 733.3359375 244.334960938 736.3359375 255.001953125 737.002929688 c 0
 259.668945312 737.002929688 264.33203125 736.3359375 268.999023438 735.002929688 c 0
 286.33203125 731.669921875 299.668945312 723.336914062 309.001953125 710.00390625 c 0
 315.668945312 700.670898438 319.001953125 689.670898438 319.001953125 677.00390625 c 0
 319.001953125 671.00390625 318.334960938 665.00390625 317.001953125 659.00390625 c 2
 292.999023438 542.00390625 l 1
 381.001953125 542.00390625 l 1
 406.001953125 678.00390625 l 2
 412.001953125 699.336914062 422.334960938 714.00390625 437.001953125 722.00390625 c 0
 446.334960938 727.336914062 456.334960938 730.00390625 467.001953125 730.00390625 c 0
 472.334960938 730.00390625 477.334960938 729.3359375 482.001953125 728.002929688 c 0
 499.334960938 724.669921875 512.66796875 716.337890625 522.000976562 703.004882812 c 0
 528.000976562 694.337890625 531.333007812 684.004882812 532 672.004882812 c 0
 532 665.337890625 531 658.337890625 529 651.004882812 c 0
 522.333007812 626.337890625 514.666992188 590.337890625 506 543.004882812 c 1
 524 542.337890625 539.333007812 537.004882812 552 527.004882812 c 0
 565.333007812 515.671875 572.333007812 503.004882812 573 489.004882812 c 0
 573 473.671875 568 460.671875 558 450.004882812 c 0
 548 439.337890625 533 433.670898438 513 433.00390625 c 2
 512 433.00390625 l 1
 486 433.00390625 l 1
 461 286.00390625 l 1
 488 286.00390625 l 2
 507.333007812 286.00390625 521 281.336914062 529 272.00390625 c 0
 537 262.670898438 541.666992188 251.00390625 543 237.00390625 c 2
 543 236.00390625 l 2
 543 220.00390625 539.333007812 207.336914062 532 198.00390625 c 0
 522.666992188 186.00390625 508 180.00390625 488 180.00390625 c 2
 443 180.00390625 l 1
 430.333007812 109.336914062 421 60.669921875 415 34.0029296875 c 0
 408.333007812 16.0029296875 396.666015625 2.669921875 379.999023438 -5.9970703125 c 0
 370.3984375 -11.3974609375 360.797851562 -14.0986328125 351.197265625 -14.0986328125 c 0
 347.998046875 -13.9990234375 l 0
 342.665039062 -13.9990234375 337.33203125 -13.33203125 331.999023438 -11.9990234375 c 0
 315.999023438 -8.666015625 303.999023438 1.6689453125 295.999023438 19.001953125 c 0
 291.999023438 28.3349609375 289.666015625 37.66796875 288.999023438 47.0009765625 c 0
 288.999023438 55.0009765625 290.33203125 63.333984375 292.999023438 72.0009765625 c 0
 298.999023438 96.0009765625 306.666015625 131.66796875 315.999023438 179.000976562 c 1
 268.999023438 179.000976562 l 2
 249.666015625 179.000976562 233.999023438 178.66796875 221.999023438 178.000976562 c 1
 203.999023438 88.0009765625 193.999023438 41.0009765625 191.999023438 37.0009765625 c 0
 185.999023438 20.333984375 174.666015625 7.0009765625 157.999023438 -2.9990234375 c 0
 145.999023438 -10.33203125 134.666015625 -13.9990234375 123.999023438 -13.9990234375 c 0
 118.666015625 -13.9990234375 113.333007812 -13.33203125 108 -11.9990234375 c 0
 92 -8.666015625 80 2.333984375 72 21.0009765625 c 0
 68 30.333984375 66 39.333984375 66 48.0009765625 c 0
 66 57.333984375 67.6669921875 66.6669921875 71 76 c 0
 75.6669921875 92 83.6669921875 125.666992188 95 177 c 1
 80 177 l 2
 60.6669921875 177 45.6669921875 181 35 189 c 0
 23 197.666992188 17 209.666992188 17 225 c 2
 17 228 l 2
 17 242 22 254.333007812 32 265 c 0
 42 275 57 280.666992188 77 282 c 0
 82.3330078125 282 89.3330078125 282.333007812 98 283 c 2
 117 283 l 1
 146 431 l 1
EndSplineSet
Validated: 1
EndChar

StartChar: dollar
Encoding: 36 36 4
Width: 590
GlyphClass: 2
Flags: W
HStem: -32.0029 106.998<174.386 233>
VStem: 44 118<485.148 581.759> 238 117.002<-87.3984 -32.0029 92.9971 317.997 456.997 612.974> 446.033 117.967<146.588 273.466>
LayerCount: 2
Fore
SplineSet
330.5 -130 m 0
 317.5 -140 302.333984375 -145.002929688 285 -145.002929688 c 2
 283 -145.002929688 l 2
 265 -145.002929688 251.333984375 -139.002929688 242 -127.002929688 c 0
 234.66796875 -118.3359375 231 -106.668945312 231 -92.001953125 c 0
 231 -88.6689453125 231.333984375 -82.8359375 232 -74.5029296875 c 0
 232.66796875 -66.169921875 233 -52.0029296875 233 -32.0029296875 c 1
 209 -31.3359375 186 -28.0029296875 164 -22.0029296875 c 0
 142 -16.0029296875 123 -8.0029296875 107 1.9970703125 c 0
 75 21.9970703125 51.333984375 45.9970703125 36 73.9970703125 c 0
 29.333984375 88.6640625 26 101.997070312 26 113.997070312 c 0
 26 117.997070312 26.333984375 121.6640625 27 124.997070312 c 0
 30.333984375 140.330078125 39.666015625 151.330078125 55 157.997070312 c 0
 63.666015625 161.997070312 70.333984375 164.497070312 75 165.497070312 c 0
 79.66796875 166.497070312 83.66796875 166.997070312 87 166.997070312 c 0
 90.333984375 166.997070312 93.333984375 166.6640625 96 165.997070312 c 0
 104 165.330078125 111.333984375 162.163085938 118 156.49609375 c 0
 124.66796875 150.829101562 131.66796875 143.329101562 139 133.99609375 c 0
 152.333984375 115.329101562 167.333984375 100.662109375 184 89.9951171875 c 0
 198 81.328125 215.333984375 76.328125 236 74.9951171875 c 1
 237.333984375 174.328125 238 263.661132812 238 342.994140625 c 1
 236 342.994140625 232.333984375 343.661132812 227 344.994140625 c 0
 223 345.661132812 217.66796875 345.994140625 211 345.994140625 c 0
 183.66796875 348.661132812 158.66796875 355.328125 136 365.995117188 c 0
 115.333984375 376.662109375 98.333984375 389.329101562 85 403.99609375 c 0
 71.66796875 418.663085938 61.5 434.330078125 54.5 450.997070312 c 0
 47.5 467.6640625 44 484.6640625 44 501.997070312 c 0
 44 526.6640625 47.833984375 550.331054688 55.5 572.998046875 c 0
 63.16796875 595.665039062 75 616.83203125 91 636.499023438 c 0
 107 656.166015625 128.333984375 672.999023438 155 686.999023438 c 0
 180.333984375 699.666015625 208.666992188 708.999023438 240 714.999023438 c 1
 240.666992188 728.33203125 241 743.999023438 241 761.999023438 c 1
 241.666992188 793.999023438 252.666992188 814.33203125 274 822.999023438 c 0
 281.33203125 825.666015625 290.33203125 826.999023438 301 826.999023438 c 0
 323 826.999023438 339 819.999023438 349 805.999023438 c 0
 356.33203125 795.999023438 360.33203125 782.33203125 361 764.999023438 c 2
 361 723.999023438 l 1
 376.33203125 722.666015625 396.666015625 718.999023438 421.999023438 712.999023438 c 0
 447.33203125 707.666015625 466.6640625 702.666015625 479.998046875 697.999023438 c 0
 495.331054688 692.666015625 506.6640625 683.666015625 513.99609375 670.999023438 c 0
 519.330078125 661.666015625 521.99609375 651.999023438 521.99609375 641.999023438 c 0
 521.99609375 638.666015625 521.6640625 635.333007812 520.99609375 632 c 0
 519.6640625 622 515.831054688 613.833007812 509.498046875 607.5 c 0
 503.1640625 601.166992188 495.33203125 597.333984375 485.999023438 596.000976562 c 0
 481.33203125 595.333984375 477.33203125 595.000976562 473.999023438 595.000976562 c 0
 470.666015625 595.000976562 466.83203125 595.16796875 462.5 595.500976562 c 0
 458.166992188 595.833984375 452.666992188 597.000976562 446 599.000976562 c 0
 438.666992188 600.333984375 430 603.333984375 420 608.000976562 c 0
 400 616.66796875 379.666992188 621.66796875 359 623.000976562 c 1
 357.666992188 558.333984375 356.666992188 497.000976562 356 439.000976562 c 1
 386 434.333984375 413.666992188 427.333984375 439 418.000976562 c 0
 463 408.000976562 482.83203125 396.000976562 498.5 382.000976562 c 0
 514.166992188 368.000976562 527.166992188 352.000976562 537.5 334.000976562 c 0
 547.83203125 316.000976562 554.83203125 298.333984375 558.5 281.000976562 c 0
 562.166992188 263.66796875 564 245.66796875 564 227.000976562 c 0
 564 195.66796875 558.5 166.16796875 547.5 138.500976562 c 0
 536.5 110.833984375 521.166992188 86.6669921875 501.5 66 c 0
 481.83203125 45.3330078125 459 27.666015625 433 12.9990234375 c 0
 408.33203125 -0.333984375 381.33203125 -10.6669921875 352 -18 c 1
 352 -52 352.666992188 -75.3330078125 354 -88 c 0
 351.33203125 -106 343.5 -120 330.5 -130 c 0
187 584.997070312 m 0
 170.333984375 569.6640625 162 551.6640625 162 530.997070312 c 0
 162 512.997070312 169.66796875 497.330078125 185 483.997070312 c 0
 198.333984375 471.997070312 216 462.997070312 238 456.997070312 c 1
 238.66796875 498.330078125 239 551.330078125 239 615.997070312 c 1
 218.333984375 607.997070312 201 597.6640625 187 584.997070312 c 0
416 136.997070312 m 0
 436.021484375 157.017578125 446.033203125 179.85546875 446.033203125 205.506835938 c 0
 446.033203125 214.470703125 445.65625 226.20703125 442.001953125 238.998046875 c 0
 439.334960938 248.331054688 434.334960938 258.6640625 427.001953125 269.997070312 c 0
 414.334960938 288.6640625 390.334960938 304.6640625 355.001953125 317.997070312 c 1
 354.334960938 241.330078125 353.834960938 191.330078125 353.501953125 167.997070312 c 0
 353.16796875 144.6640625 352.66796875 119.6640625 352.001953125 92.9970703125 c 1
 377.334960938 104.997070312 398.66796875 119.6640625 416 136.997070312 c 0
EndSplineSet
Validated: 524289
EndChar

StartChar: percent
Encoding: 37 37 5
Width: 590
GlyphClass: 2
Flags: W
HStem: -40.0039 101.001<404.769 469.75> 158.997 98<407.895 475.971> 420 98.9961<116.256 182.686> 607.996 97.0039<118.148 187.395>
VStem: 12 96.001<530.28 596.587> 196 103.001<529.373 597.165> 291 104.999<72.8275 145.526> 483.001 94.999<71.4058 144.619>
LayerCount: 2
Fore
SplineSet
26.501953125 491.5 m 0xfd
 16.8349609375 511.833007812 12 533.333007812 12 556 c 2
 12 558 l 2
 12 600 24.5 635 49.5 663 c 0
 74.5 691 110.666992188 705 158 705 c 0
 198.666992188 705 232.333984375 693 259.000976562 669 c 0
 273.000976562 656.333007812 283.66796875 640 291.000976562 620 c 0
 296.333984375 604 299.000976562 586 299.000976562 566 c 0
 299.000976562 516 284.66796875 478.333007812 256.000976562 453 c 0
 230.66796875 431 193.000976562 420 143.000976562 420 c 0
 115.66796875 420 91.8349609375 426.833007812 71.501953125 440.5 c 0
 51.1689453125 454.166992188 36.1689453125 471.166992188 26.501953125 491.5 c 0xfd
60 -45 m 0
 51.3330078125 -41 44.3330078125 -36.00390625 39 -30.00390625 c 0
 31.6669921875 -22.00390625 28 -12.50390625 28 -1.50390625 c 0
 28 9.49609375 31.3330078125 21.3291015625 38 33.99609375 c 0
 52 61.99609375 85.3330078125 120.329101562 138 208.99609375 c 0
 251.333007812 387.663085938 308 477.330078125 308 477.997070312 c 0
 364.666992188 567.997070312 402.666992188 632.6640625 422 671.997070312 c 1
 422 664.6640625 422.333007812 664.997070312 423 672.997070312 c 1
 433.666992188 687.6640625 447.333984375 696.331054688 464.000976562 698.998046875 c 0
 468.66796875 700.331054688 473.334960938 700.998046875 478.001953125 700.998046875 c 0
 488.668945312 700.998046875 499.001953125 698.331054688 509.001953125 692.998046875 c 0
 524.334960938 685.665039062 533.001953125 675.33203125 535.001953125 661.999023438 c 0
 535.668945312 659.33203125 536.001953125 656.665039062 536.001953125 653.998046875 c 0
 536.001953125 642.665039062 531.668945312 630.33203125 523.001953125 616.999023438 c 0
 498.334960938 577.666015625 436.66796875 477.333007812 338.000976562 316 c 0
 237.333984375 154.666992188 170.666992188 45.6669921875 138 -11 c 0
 122.666992188 -37.6669921875 104.666992188 -51 84 -51 c 0
 76.6669921875 -51 68.6669921875 -49 60 -45 c 0
184.5 597.49609375 m 0
 176.833007812 604.49609375 165 607.99609375 149 607.99609375 c 0
 136.333007812 607.99609375 127 604.329101562 121 596.99609375 c 0
 113.666992188 588.329101562 109.333984375 575.99609375 108.000976562 559.99609375 c 2
 108.000976562 556.99609375 l 2
 108.000976562 544.99609375 110.66796875 535.99609375 116.000976562 529.99609375 c 0
 121.333984375 523.99609375 133.666992188 520.329101562 153 518.99609375 c 2
 154 518.99609375 l 2
 166.666992188 518.99609375 176.333984375 522.329101562 183.000976562 528.99609375 c 0
 190.333984375 536.99609375 194.666992188 547.663085938 196 560.99609375 c 2
 196 563.99609375 l 2
 196 579.329101562 192.166992188 590.49609375 184.5 597.49609375 c 0
306.5 34.49609375 m 0
 296.166992188 55.49609375 291 77.9970703125 291 101.997070312 c 2
 291 103.997070312 l 2xfb
 291 147.997070312 304.666992188 184.497070312 332 213.497070312 c 0
 359.333007812 242.497070312 397.333007812 256.997070312 446 256.997070312 c 0
 484 256.997070312 516 244.6640625 542 219.997070312 c 0
 555.333007812 207.330078125 565 189.997070312 571 167.997070312 c 0
 575.666992188 151.997070312 578 134.330078125 578 114.997070312 c 0
 578 108.330078125 577.666992188 101.663085938 577 94.99609375 c 0
 575 50.99609375 562.333007812 17.49609375 539 -5.50390625 c 0
 515.666992188 -28.50390625 480.666992188 -40.00390625 434 -40.00390625 c 2
 429 -40.00390625 l 2
 401 -39.3369140625 376.166992188 -32.00390625 354.5 -18.00390625 c 0
 332.833007812 -4.00390625 316.833007812 13.49609375 306.5 34.49609375 c 0
441 60.9970703125 m 0
 441.666992188 60.9970703125 442.668945312 60.6640625 444.001953125 59.9970703125 c 0
 456.001953125 59.9970703125 464.668945312 63.6640625 470.001953125 70.9970703125 c 0
 477.334960938 79.6640625 481.66796875 91.6640625 483.000976562 106.997070312 c 2
 483.000976562 108.997070312 l 2
 483.000976562 124.997070312 480.000976562 136.997070312 474.000976562 144.997070312 c 0
 467.333984375 154.330078125 455.666992188 158.997070312 439 158.997070312 c 0
 426.333007812 158.997070312 416.666015625 154.6640625 409.999023438 145.997070312 c 0
 401.999023438 135.997070312 397.33203125 122.6640625 395.999023438 105.997070312 c 2
 395.999023438 102.997070312 l 2
 395.999023438 89.6640625 398.83203125 79.4970703125 404.499023438 72.4970703125 c 0
 410.166015625 65.4970703125 422.333007812 61.6640625 441 60.9970703125 c 0
EndSplineSet
Validated: 524289
EndChar

StartChar: ampersand
Encoding: 38 38 6
Width: 590
GlyphClass: 2
Flags: W
HStem: -53.9932 118<182.518 308.751> 633.005 103<238.923 328.088>
VStem: 23.999 124.001<100.286 273.189> 110.999 119.001<504.635 620.91> 345 108<508.115 617.229>
LayerCount: 2
Fore
SplineSet
552.000976562 11 m 0xd8
 552.000976562 7.6669921875 551.666992188 4.0048828125 551 0.0048828125 c 0
 548.333007812 -23.328125 540.333007812 -38.6611328125 527 -45.994140625 c 0
 514.333007812 -50.6611328125 506.333007812 -52.994140625 503 -52.994140625 c 2
 502 -52.994140625 l 2
 493.333007812 -52.994140625 484 -50.6611328125 474 -45.994140625 c 0
 456.666992188 -37.3271484375 442 -22.3271484375 430 -0.994140625 c 0
 428 2.3388671875 424.833007812 9.8388671875 420.5 21.505859375 c 0
 416.166992188 33.1728515625 413 41.6728515625 411 47.005859375 c 1
 396 27.505859375 l 2
 392.666992188 23.1728515625 387 16.83984375 379 8.5068359375 c 0
 371 0.173828125 364.166992188 -6.326171875 358.5 -10.9931640625 c 0
 352.833007812 -15.66015625 345.165039062 -21.16015625 335.499023438 -27.4931640625 c 0
 325.83203125 -33.826171875 316.33203125 -38.4931640625 306.999023438 -41.4931640625 c 0
 297.665039062 -44.4931640625 286.999023438 -47.326171875 274.999023438 -49.9931640625 c 0
 262.999023438 -52.66015625 250.665039062 -53.9931640625 237.999023438 -53.9931640625 c 0
 197.999023438 -53.9931640625 161.499023438 -43.826171875 128.499023438 -23.4931640625 c 0
 95.4990234375 -3.16015625 69.83203125 23.6728515625 51.4990234375 57.005859375 c 0
 33.166015625 90.3388671875 23.9990234375 126.338867188 23.9990234375 165.005859375 c 0xe8
 23.9990234375 223.005859375 34.666015625 272.672851562 55.9990234375 314.005859375 c 0
 81.33203125 362.672851562 120.999023438 400.672851562 174.999023438 428.005859375 c 1
 157.499023438 455.505859375 l 2
 150.499023438 466.505859375 145.165039062 475.005859375 141.499023438 481.005859375 c 0
 137.83203125 487.005859375 133.499023438 494.838867188 128.499023438 504.505859375 c 0
 123.499023438 514.172851562 119.999023438 522.672851562 117.999023438 530.005859375 c 0
 113.33203125 550.005859375 110.999023438 569.672851562 110.999023438 589.005859375 c 0
 110.999023438 601.672851562 112.665039062 614.505859375 115.999023438 627.505859375 c 0
 119.33203125 640.505859375 125.33203125 653.672851562 133.999023438 667.005859375 c 0
 142.665039062 680.338867188 153.333007812 692.171875 166 702.504882812 c 0
 178.666992188 712.837890625 195 721.004882812 215 727.004882812 c 0
 235 733.004882812 257.333007812 736.004882812 282 736.004882812 c 0
 302.666992188 736.004882812 323 732.837890625 343 726.504882812 c 0
 363 720.171875 381.333007812 710.671875 398 698.004882812 c 0
 414.666992188 685.337890625 428 668.670898438 438 648.00390625 c 0
 448 627.336914062 453 604.336914062 453 579.00390625 c 0
 453 556.336914062 450 535.169921875 444 515.502929688 c 0
 438 495.8359375 430.5 479.3359375 421.5 466.002929688 c 0
 412.5 452.669921875 401.333007812 440.169921875 388 428.502929688 c 0
 374.666992188 416.8359375 363.333007812 408.002929688 354.000976562 402.002929688 c 0
 344.66796875 396.002929688 335.000976562 390.669921875 325.000976562 386.002929688 c 1
 337.000976562 366.002929688 353.833007812 340.8359375 375.500976562 310.502929688 c 0
 397.16796875 280.169921875 413.000976562 257.669921875 423.000976562 243.002929688 c 1
 425.000976562 247.002929688 427.833007812 253.169921875 431.500976562 261.502929688 c 0
 435.16796875 269.8359375 438.834960938 278.002929688 442.500976562 286.002929688 c 0
 446.168945312 294.002929688 449.3359375 300.002929688 452.002929688 304.002929688 c 0
 465.3359375 324.002929688 478.668945312 336.3359375 492.000976562 341.002929688 c 0
 497.334960938 343.002929688 503.000976562 344.002929688 509.000976562 344.002929688 c 0
 518.334960938 344.002929688 527.66796875 341.669921875 537.000976562 337.002929688 c 0
 552.333007812 329.669921875 561.333007812 317.002929688 564.000976562 299.002929688 c 0
 564.66796875 295.002929688 565.334960938 290.669921875 566.000976562 286.002929688 c 0
 566.000976562 272.002929688 562.000976562 257.3359375 554.000976562 242.002929688 c 0
 550.668945312 235.3359375 541.000976562 222.168945312 525.000976562 202.501953125 c 0
 509.000976562 182.834960938 496.000976562 165.66796875 486.000976562 151.000976562 c 1
 493.334960938 139.000976562 503.16796875 122.16796875 515.500976562 100.500976562 c 0
 527.833007812 78.833984375 535.333007812 65.6669921875 538.000976562 61 c 0
 547.333007812 45 552.000976562 28.3330078125 552.000976562 11 c 0xd8
230 572.004882812 m 0xd8
 230 557.337890625 234 541.338867188 242 524.005859375 c 0
 250 506.672851562 259 491.672851562 269 479.005859375 c 1
 279.666992188 482.338867188 289.166992188 486.171875 297.5 490.504882812 c 0
 305.833007812 494.837890625 314 500.337890625 322 507.004882812 c 0
 330 513.671875 335.833007812 522.004882812 339.5 532.004882812 c 0
 343.166992188 542.004882812 345 554.337890625 345 569.004882812 c 0
 345 589.671875 338.666992188 605.504882812 326 616.504882812 c 0
 313.333007812 627.504882812 297.833007812 633.004882812 279.5 633.004882812 c 0
 261.166992188 633.004882812 248 627.337890625 240 616.004882812 c 0
 233.333007812 606.004882812 230 591.337890625 230 572.004882812 c 0xd8
148 174.005859375 m 0xe8
 148 142.005859375 156.504882812 115.673828125 173.504882812 95.0068359375 c 0
 190.504882812 74.33984375 212.336914062 64.0068359375 239.004882812 64.0068359375 c 0
 253.671875 64.0068359375 269.004882812 66.673828125 285.004882812 72.0068359375 c 0
 290.336914062 74.0068359375 296.170898438 77.173828125 302.50390625 81.5068359375 c 0
 308.836914062 85.83984375 313.668945312 89.33984375 317.002929688 92.0068359375 c 0
 320.3359375 94.673828125 324.668945312 99.0068359375 330.000976562 105.006835938 c 0
 335.334960938 111.006835938 339.000976562 115.173828125 341.000976562 117.506835938 c 0
 343.000976562 119.83984375 345.668945312 123.506835938 349.000976562 128.506835938 c 0
 352.334960938 133.506835938 354.66796875 136.673828125 356.000976562 138.006835938 c 0
 346.66796875 158.006835938 337.66796875 176.006835938 329.000976562 192.006835938 c 0
 321.000976562 207.33984375 306.000976562 230.672851562 284.000976562 262.005859375 c 0
 262.000976562 293.338867188 245.66796875 317.338867188 235.000976562 334.005859375 c 1
 220.333007812 326.672851562 207.666992188 318.005859375 197 308.005859375 c 0
 184.333007812 296.005859375 174.5 283.005859375 167.5 269.005859375 c 0
 160.5 255.005859375 155.5 240.338867188 152.5 225.005859375 c 0
 149.5 209.672851562 148 192.672851562 148 174.005859375 c 0xe8
EndSplineSet
Validated: 524289
EndChar

StartChar: quotesingle
Encoding: 39 39 7
Width: 590
GlyphClass: 2
Flags: W
VStem: 230 130<452.314 772.656> 230 122<449.441 601.295>
LayerCount: 2
Fore
SplineSet
360 728 m 2x80
 360 687.000976562 l 2x80
 360 669.000976562 359.665039062 641.333984375 358.998046875 604.000976562 c 0
 357.665039062 546.000976562 355.33203125 506.000976562 352 484.000976562 c 0x40
 349.33203125 466.66796875 342 453.66796875 330 445.000976562 c 0
 319.33203125 437.66796875 307.665039062 434.000976562 294.998046875 434.000976562 c 0
 277.665039062 434.000976562 262.33203125 439.000976562 249 449.000976562 c 0
 236.33203125 458.333984375 230 471.333984375 230 488.000976562 c 0
 230 490.000976562 230.33203125 491.66796875 231 493.000976562 c 0
 232.33203125 519.66796875 233 549.66796875 233 583.000976562 c 0
 233 630.333984375 232 680.000976562 230 732.000976562 c 2
 230 735.000976562 l 2
 230 744.333984375 232 752.666992188 236 760 c 0
 240.666015625 768 247.333007812 774 256 778 c 0
 268 782.666992188 280.333007812 785 293 785 c 0
 303 785 311 784 317 782 c 0
 323.66796875 780 330 777.333007812 336 774 c 0
 343.333007812 770 349 763.666992188 353 755 c 0
 357 747 359.333007812 738 360 728 c 2x80
EndSplineSet
Validated: 524289
EndChar

StartChar: parenleft
Encoding: 40 40 8
Width: 590
GlyphClass: 2
Flags: W
HStem: -144 109<363.685 441.53> 721 105.053<349.656 439.499>
VStem: 132.999 122.75<154.284 548.553>
LayerCount: 2
Fore
SplineSet
456.000976562 -93 m 0
 456.000976562 -107.666992188 450.331054688 -119.666992188 438.998046875 -129 c 0
 427.665039062 -138.333007812 415.665039062 -143.333007812 402.998046875 -144 c 0
 354.998046875 -144 311.998046875 -127 273.998046875 -93 c 0
 235.998046875 -59 205.331054688 -13 181.998046875 45 c 0
 158.665039062 103 143.333007812 169.666992188 135.999023438 245 c 0
 133.999023438 265.666992188 132.999023438 291.333984375 132.999023438 322.000976562 c 0
 132.999023438 352.66796875 134.999023438 391.000976562 138.999023438 437.000976562 c 0
 145.666015625 516.333984375 158.999023438 581.666992188 178.999023438 633 c 0
 187.666015625 656.333007812 199.333007812 679 214.000976562 701 c 0
 228.666992188 723 246.000976562 743.666992188 266.000976562 763 c 0
 285.333007812 781.666992188 307.000976562 797 331.000976562 809 c 0
 354.368164062 820.368164062 377.436523438 826.052734375 400.206054688 826.052734375 c 0
 401.471679688 826.052734375 402.736328125 826.03515625 404.000976562 826 c 0
 422.666992188 826 436.666992188 820.333007812 446.000976562 809 c 0
 453.333007812 800.333007812 457.000976562 788.333007812 457.000976562 773 c 0
 457.000976562 755 451.333007812 741.666992188 440.000976562 733 c 0
 429.333007812 725 416.666015625 721 401.999023438 721 c 0
 387.333007812 721 373.333007812 716.333007812 359.999023438 707 c 0
 346.666015625 698.333007812 334.666015625 686 323.999023438 670 c 0
 302.666015625 638 286.666015625 598 275.999023438 550 c 0
 267.333007812 514.666992188 261.333007812 467.666992188 257.999023438 409 c 0
 256.499023438 386 255.749023438 364.875976562 255.749023438 345.626953125 c 0
 255.749023438 339.208984375 255.833007812 333.000976562 255.999023438 327 c 0
 255.999023438 303 256.666015625 281.666992188 257.999023438 263 c 0
 261.333007812 223.666992188 268.333007812 185 278.999023438 147 c 0
 289.666015625 109 302.333007812 77 317.000976562 51 c 0
 331.000976562 24.3330078125 346.000976562 3 362.000976562 -13 c 0
 376.666992188 -27.6669921875 390.333984375 -35 403.000976562 -35 c 0
 419.000976562 -35 432.000976562 -39.3330078125 442.000976562 -48 c 0
 451.333984375 -56.6669921875 456.000976562 -71.6669921875 456.000976562 -93 c 0
EndSplineSet
Validated: 524289
EndChar

StartChar: parenright
Encoding: 41 41 9
Width: 590
GlyphClass: 2
Flags: W
HStem: -144 109<148.412 226.235> 721.001 105.1<150.502 240.734>
VStem: 334.251 122.749<154.284 545.5>
LayerCount: 2
Fore
SplineSet
187 -144 m 0
 174.333007812 -144 162.333984375 -138.999023438 151.000976562 -128.999023438 c 0
 139.66796875 -119.666015625 134.000976562 -107.666015625 134.000976562 -92.9990234375 c 0
 134.000976562 -71.666015625 138.66796875 -56.666015625 148.000976562 -47.9990234375 c 0
 156.711914062 -39.2880859375 168.6171875 -34.93359375 183.71484375 -34.93359375 c 0
 184.793945312 -34.93359375 185.890625 -34.955078125 187.000976562 -35 c 0
 199.000976562 -35 212.333984375 -27.6669921875 227.000976562 -13 c 0
 243.66796875 3 259.000976562 24.3330078125 273.000976562 51 c 0
 287.000976562 77.6669921875 299.66796875 109.666992188 311.000976562 147 c 0
 321.66796875 185 328.66796875 223.666992188 332.000976562 263 c 0
 333.500976562 278 334.250976562 294.124023438 334.250976562 311.373046875 c 0
 334.250976562 317.124023438 334.16796875 322.999023438 334.000976562 329 c 0
 334.000976562 352.333007812 333.333984375 379 332.000976562 409 c 0
 328.66796875 467.666992188 322.66796875 514.666992188 314.000976562 550 c 0
 303.333984375 597.333007812 287.333984375 637.333007812 266.000976562 670 c 0
 256.000976562 686 244.000976562 698.333007812 230.000976562 707 c 0
 216.66796875 715.666992188 202.66796875 720.333984375 188.000976562 721.000976562 c 0
 173.333984375 721.000976562 160.66796875 725.000976562 150 733.000976562 c 0
 138.66796875 741.66796875 133 755.000976562 133 773.000976562 c 0
 133 783.000976562 134.66796875 792.000976562 138 800.000976562 c 0
 141.333007812 807.333984375 146.333007812 813.333984375 153 818.000976562 c 0
 161.399414062 823.400390625 171.149414062 826.100585938 182.25 826.100585938 c 0
 183.482421875 826.100585938 184.734375 826.067382812 186 826.000976562 c 0
 210.66796875 826.000976562 235 820.333984375 259 809.000976562 c 0
 283 797.000976562 304.66796875 781.66796875 324 763.000976562 c 0
 343.333007812 744.333984375 360.333007812 723.666992188 375 701 c 0
 389.66796875 679 401.66796875 656.333007812 411 633 c 0
 430.333007812 581.666992188 443.666015625 516.333984375 451 437.000976562 c 0
 455 391.000976562 457 352.66796875 457 322.000976562 c 0
 457 291.333984375 456 265.666992188 454 245 c 0
 446.666015625 169.666992188 431.333007812 103 408 45 c 0
 384.66796875 -13 353.66796875 -59 315 -93 c 0
 277.66796875 -127 235 -144 187 -144 c 0
EndSplineSet
Validated: 524289
EndChar

StartChar: asterisk
Encoding: 42 42 10
Width: 590
GlyphClass: 2
Flags: W
HStem: 281.004 127.999<48.5334 191.975> 289.002 119.001<389.147 544.842> 294.001 101.002<388.002 503.874>
LayerCount: 2
Fore
SplineSet
208.001953125 102 m 2x20
 197.999023438 102 l 2
 193.33203125 102 187.499023438 102.670898438 180.499023438 104.00390625 c 0
 173.499023438 105.336914062 166.666015625 108 159.999023438 112 c 0
 153.33203125 116 147.33203125 122.00390625 141.999023438 130.00390625 c 0
 136.666015625 138.00390625 132.999023438 147.336914062 130.999023438 158.00390625 c 2
 130.999023438 165.00390625 l 2
 130.999023438 175.00390625 133.666015625 185.333984375 138.999023438 196.000976562 c 2
 193.999023438 285.00390625 l 1
 150.666015625 282.336914062 117.666015625 281.00390625 94.9990234375 281.00390625 c 0
 74.9990234375 281.00390625 59.33203125 287.670898438 47.9990234375 301.00390625 c 0
 37.9990234375 313.00390625 32.666015625 327.00390625 31.9990234375 343.00390625 c 2
 31.9990234375 346.00390625 l 2
 31.9990234375 359.336914062 35.666015625 372.669921875 42.9990234375 386.002929688 c 0
 47.666015625 394.002929688 54.666015625 400.002929688 63.9990234375 404.002929688 c 0
 71.33203125 407.3359375 79.33203125 409.002929688 87.9990234375 409.002929688 c 2
 92.9990234375 409.002929688 l 2x80
 119.666015625 407.002929688 157.333007812 404.3359375 206 401.002929688 c 1
 182.666992188 439.669921875 163 470.002929688 147 492.002929688 c 0
 137.666992188 507.3359375 133 522.3359375 133 537.002929688 c 0
 133 539.669921875 133.333007812 542.336914062 134 545.00390625 c 0
 136 563.670898438 144 576.670898438 158 584.00390625 c 0
 166.666992188 589.336914062 176.5 592.00390625 187.5 592.00390625 c 0
 198.5 592.00390625 209.666992188 588.669921875 221 582.002929688 c 0
 232.333007812 575.3359375 241.333007812 565.669921875 248 553.002929688 c 0
 254.666992188 539.002929688 270.666992188 507.669921875 296 459.002929688 c 1
 315.333007812 493.669921875 331.333007812 524.669921875 344 552.002929688 c 0
 350 564.669921875 358.333007812 574.169921875 369 580.502929688 c 0
 379.666992188 586.8359375 390 590.002929688 400 590.002929688 c 0
 410.666992188 590.002929688 420.666992188 587.3359375 430 582.002929688 c 0
 438.666992188 577.3359375 445.666992188 570.502929688 451 561.502929688 c 0
 456.333007812 552.502929688 459 542.002929688 459 530.002929688 c 0
 459 516.669921875 455 504.336914062 447 493.00390625 c 0
 429 466.336914062 409 433.669921875 387 395.002929688 c 1x20
 433 395.669921875 466.333007812 399.002929688 487 405.002929688 c 0
 495.666992188 407.002929688 501.333984375 408.002929688 504.000976562 408.002929688 c 0x40
 516.66796875 408.002929688 527.66796875 403.669921875 537.000976562 395.002929688 c 0x20
 550.333984375 382.3359375 557.333984375 368.668945312 558.000976562 354.001953125 c 0
 558.000976562 339.334960938 554.333984375 325.334960938 547.000976562 312.001953125 c 0
 542.333984375 304.001953125 536.000976562 297.668945312 528.000976562 293.001953125 c 0
 522.000976562 290.334960938 515.66796875 289.001953125 509.000976562 289.001953125 c 0x40
 505.66796875 289.001953125 502.334960938 289.334960938 499.001953125 290.001953125 c 0
 485.114257812 292.779296875 462.432617188 294.16796875 430.956054688 294.16796875 c 0
 424.65625 294.16796875 418.005859375 294.112304688 411.001953125 294.000976562 c 2
 388.001953125 294.000976562 l 1
 445.001953125 196.000976562 l 2
 452.334960938 181.333984375 456.001953125 168.000976562 456.001953125 156.000976562 c 0
 456.001953125 153.333984375 455.668945312 150.666992188 455.001953125 148 c 0
 453.001953125 132 446.001953125 120.666992188 434.001953125 114 c 0
 424.668945312 108 413.001953125 105 399.001953125 105 c 0
 388.334960938 105 377.66796875 107.333007812 367.000976562 112 c 0
 353.66796875 118 344.66796875 128 340.000976562 142 c 0
 332.66796875 164 319.334960938 194.666992188 300.001953125 234 c 1
 275.334960938 184.666992188 259.66796875 151.666992188 253.000976562 135 c 0
 249.66796875 124.333007812 243.834960938 116.333007812 235.501953125 111 c 0
 227.168945312 105.666992188 218.001953125 102.666992188 208.001953125 102 c 2x20
EndSplineSet
Validated: 524289
EndChar

StartChar: plus
Encoding: 43 43 11
Width: 590
GlyphClass: 2
Flags: W
HStem: 346 105.998<107.472 241 346 484.621>
VStem: 241 105<209.378 344.998 452.998 593.588>
LayerCount: 2
Fore
SplineSet
345.000976562 347 m 1
 346 249.999023438 l 2
 346 230.666015625 341.333007812 216.999023438 332 208.999023438 c 0
 322.666992188 200.33203125 311 195.665039062 297 194.998046875 c 2
 296 194.998046875 l 2
 280 194.998046875 267.666992188 198.665039062 259 205.998046875 c 0
 247 215.331054688 241 229.998046875 241 249.998046875 c 2
 241 344.998046875 l 1
 152 343.998046875 l 2
 132 343.998046875 117 349.331054688 107 359.998046875 c 0
 96.3330078125 370.665039062 91 383.665039062 91 398.998046875 c 2
 91 401.998046875 l 2
 91 415.998046875 95.6669921875 428.331054688 105 438.998046875 c 0
 115 449.665039062 129.333007812 454.998046875 148 454.998046875 c 0
 149.333007812 454.998046875 160 454.665039062 180 453.998046875 c 0
 200 453.331054688 220.333007812 452.998046875 241 452.998046875 c 1
 241 492.331054688 240 525.6640625 238 552.997070312 c 0
 238 571.6640625 244.333007812 585.331054688 257 593.998046875 c 0
 266.333007812 600.665039062 278.333007812 603.998046875 293 603.998046875 c 2
 297 603.998046875 l 2
 311 603.998046875 323 600.665039062 333 593.998046875 c 0
 344.333007812 585.998046875 350 572.998046875 350 554.998046875 c 2
 350 548.998046875 l 2
 348 514.998046875 346.666992188 482.665039062 346 451.998046875 c 1
 444 451.998046875 l 2
 463.333007812 451.998046875 477 447.331054688 485 437.998046875 c 0
 493 428.665039062 497.666992188 416.998046875 499 402.998046875 c 2
 499 401.998046875 l 2
 499 394.665039062 498.333007812 388.33203125 497 382.999023438 c 0
 495.666992188 376.999023438 493 370.999023438 489 364.999023438 c 0
 484.333007812 357.666015625 478 352.333007812 470 349 c 0
 464 347 457.333007812 346 450 346 c 2
 443 346 l 2
 433 347.333007812 418.666992188 348 400 348 c 0
 380.666992188 348 362.333984375 347.666992188 345.000976562 347 c 1
EndSplineSet
Validated: 524289
EndChar

StartChar: comma
Encoding: 44 44 12
Width: 590
GlyphClass: 2
Flags: W
VStem: 180.001 229.998
LayerCount: 2
Fore
SplineSet
265.997070312 -223 m 0
 255.330078125 -227 245.999023438 -228.999023438 237.999023438 -228.999023438 c 0
 229.999023438 -228.999023438 222.999023438 -227.666015625 216.999023438 -224.999023438 c 0
 208.333007812 -222.33203125 200.333007812 -217.33203125 192.999023438 -209.999023438 c 0
 185.666015625 -202.666015625 181.333007812 -193.333007812 180.000976562 -182 c 2
 180.000976562 -176 l 2
 180.000976562 -166 183.333007812 -156 190.000976562 -146 c 0
 203.333007812 -127.333007812 222.000976562 -84.3330078125 246.000976562 -17 c 0
 270.000976562 49 285.000976562 96 291.000976562 124 c 0
 293.666992188 136 299.666992188 145.333007812 309.000976562 152 c 0
 318.333007812 159.333007812 328.666015625 163 339.999023438 163 c 2
 341.999023438 163 l 2
 349.999023438 163 358.333007812 162.333007812 366.999023438 161 c 0
 380.333007812 157 391.333007812 149 399.999023438 137 c 0
 406.666015625 127.666992188 409.999023438 117.333984375 409.999023438 106.000976562 c 0
 409.999023438 101.333984375 409.666015625 97.333984375 408.999023438 94.0009765625 c 0
 402.333007812 61.333984375 387.665039062 10.6669921875 364.998046875 -58 c 0
 342.331054688 -127.333007812 324.998046875 -170.333007812 312.998046875 -187 c 0
 300.331054688 -204.333007812 284.665039062 -216.333007812 265.997070312 -223 c 0
EndSplineSet
Validated: 524289
EndChar

StartChar: hyphen
Encoding: 45 45 13
Width: 590
GlyphClass: 2
Flags: W
HStem: 230.001 111.999<146.44 445.172> 239.002 106<308.731 447.621>
LayerCount: 2
Fore
SplineSet
182 342 m 0x80
 220 342 265 342.333984375 317 343.000976562 c 0
 369.666992188 343.66796875 399.666992188 344.334960938 407 345.001953125 c 0
 426.333007812 345.001953125 440 340.334960938 448 331.001953125 c 0
 456 321.668945312 460.666992188 310.001953125 462 296.001953125 c 2
 462 295.001953125 l 2
 462 279.001953125 458.333007812 266.668945312 451 258.001953125 c 0
 441.666992188 246.001953125 427 239.668945312 407 239.001953125 c 0x40
 398.333007812 239.001953125 364.666015625 237.668945312 305.999023438 235.001953125 c 0
 247.33203125 232.334960938 206.33203125 230.66796875 182.999023438 230.000976562 c 0
 167.666015625 230.000976562 155.333007812 234.000976562 146 242.000976562 c 0
 134 251.333984375 128 265.666992188 128 285 c 2
 128 290 l 2
 128 308.666992188 134 322.666992188 146 332 c 0
 154.666992188 338.666992188 166.666992188 342 182 342 c 0x80
EndSplineSet
Validated: 1
EndChar

StartChar: period
Encoding: 46 46 14
Width: 590
GlyphClass: 2
Flags: W
HStem: -26 178.037<237.144 355.352>
VStem: 201.481 187.037<6.96988 117.608>
LayerCount: 2
Fore
SplineSet
287.481445312 -26 m 2
 264.1484375 -26 244.481445312 -18 228.481445312 -2 c 0
 210.481445312 16.6669921875 201.481445312 38.333984375 201.481445312 63.0009765625 c 0
 201.481445312 87.66796875 211.481445312 108.66796875 231.481445312 126.000976562 c 0
 251.411132812 143.357421875 273.508789062 152.037109375 297.776367188 152.037109375 c 0
 298.674804688 152.037109375 299.577148438 152.024414062 300.481445312 152.000976562 c 0
 325.815429688 152.000976562 346.815429688 144.000976562 363.481445312 128.000976562 c 0
 380.172851562 111.310546875 388.518554688 91.5283203125 388.518554688 68.6552734375 c 0
 388.518554688 55.5234375 387.8828125 28.376953125 364.481445312 4 c 0
 347.813476562 -12.6669921875 325.813476562 -22.6669921875 298.481445312 -26 c 2
 287.481445312 -26 l 2
EndSplineSet
Validated: 524289
EndChar

StartChar: slash
Encoding: 47 47 15
Width: 590
GlyphClass: 2
Flags: W
HStem: 746.004 20G<487.917 498.583>
LayerCount: 2
Fore
SplineSet
111.25 -67 m 0
 101.916992188 -71.6669921875 92.58203125 -73.9970703125 83.2490234375 -73.9970703125 c 0
 73.916015625 -73.9970703125 65.2490234375 -71.330078125 57.2490234375 -65.9970703125 c 0
 43.916015625 -57.9970703125 35.916015625 -42.6640625 33.2490234375 -19.9970703125 c 0
 32.58203125 -16.6640625 32.58203125 -12.9970703125 33.2490234375 -8.9970703125 c 0
 33.2490234375 9.0029296875 37.916015625 25.669921875 47.2490234375 41.0029296875 c 0
 144.58203125 201.002929688 227.915039062 343.002929688 297.248046875 467.002929688 c 1
 340.581054688 543.002929688 386.581054688 629.669921875 435.248046875 727.002929688 c 0
 441.915039062 739.669921875 450.58203125 749.002929688 461.249023438 755.002929688 c 0
 471.916015625 761.669921875 482.583007812 765.336914062 493.25 766.00390625 c 0
 503.916992188 766.00390625 514.583984375 763.670898438 525.250976562 759.00390625 c 0
 540.583984375 751.00390625 550.583984375 739.00390625 555.250976562 723.00390625 c 0
 556.583984375 718.336914062 557.250976562 713.669921875 557.250976562 709.002929688 c 0
 557.250976562 697.669921875 553.91796875 685.002929688 547.250976562 671.002929688 c 0
 529.91796875 636.3359375 481.250976562 552.668945312 401.250976562 420.001953125 c 0
 321.250976562 287.334960938 272.583984375 204.66796875 255.250976562 172.000976562 c 0
 244.583984375 151.333984375 227.250976562 116.333984375 203.250976562 67.0009765625 c 0
 179.250976562 17.66796875 164.250976562 -12.33203125 158.250976562 -22.9990234375 c 0
 145.583984375 -43.666015625 129.916992188 -58.3330078125 111.25 -67 c 0
EndSplineSet
Validated: 524289
EndChar

StartChar: zero
Encoding: 48 48 16
Width: 590
GlyphClass: 2
Flags: W
HStem: -24.001 107.996<205.58 365.453> 611.995 106.005<221.512 372.238>
VStem: 36 120.999<228.996 530.163> 433.999 115.999<165.933 399.325 400.71 457.995>
LayerCount: 2
Fore
SplineSet
433.999023438 457.995117188 m 1
 361.33203125 330.662109375 277.666992188 221.995117188 183 131.995117188 c 1
 201 100.662109375 230.33203125 84.662109375 270.999023438 83.9951171875 c 0
 290.33203125 83.9951171875 307 85.4951171875 321 88.4951171875 c 0
 335 91.4951171875 348.333984375 96.328125 361 102.995117188 c 0
 386.333984375 116.328125 405.666015625 143.328125 418.999023438 183.995117188 c 0
 421.666015625 191.995117188 424.666015625 213.495117188 427.999023438 248.495117188 c 0
 431.33203125 283.495117188 433.666015625 323.995117188 434.998046875 369.995117188 c 0
 435.220703125 380 435.33203125 389.930664062 435.33203125 399.787109375 c 0
 435.33203125 419.486328125 434.888671875 438.888671875 433.999023438 457.995117188 c 1
356 599.997070312 m 0
 338.666992188 607.997070312 319.666015625 611.995117188 298.999023438 611.995117188 c 0
 262.33203125 611.995117188 233.83203125 602.828125 213.499023438 584.495117188 c 0
 193.166015625 566.162109375 177.333984375 534.995117188 166 490.995117188 c 0
 161.333984375 473.662109375 158 455.329101562 156 435.99609375 c 0
 154.666992188 415.99609375 154 393.329101562 154 367.99609375 c 0
 154 327.99609375 154.999023438 281.663085938 156.999023438 228.99609375 c 1
 243.666015625 339.663085938 323 453.330078125 395 569.997070312 c 1
 383.666992188 582.6640625 370.666992188 592.6640625 356 599.997070312 c 0
549.998046875 490.995117188 m 2
 549.998046875 489.998046875 l 2
 553.331054688 450.665039062 555 410.662109375 555 369.995117188 c 0
 555 329.328125 553.666992188 289.331054688 551 249.998046875 c 0
 548.333984375 210.665039062 544 179.665039062 538 156.998046875 c 0
 526 114.331054688 511 79.6640625 493 52.9970703125 c 0
 483.666992188 39.6640625 473.166992188 28.3310546875 461.5 18.998046875 c 0
 449.833984375 9.6650390625 437.666015625 2.33203125 424.999023438 -3.0009765625 c 0
 411.666015625 -8.333984375 396.666015625 -13.0009765625 379.999023438 -17.0009765625 c 0
 362.666015625 -20.333984375 345.666015625 -22.333984375 328.999023438 -23.0009765625 c 0
 312.33203125 -23.66796875 292.999023438 -24.0009765625 270.999023438 -24.0009765625 c 0
 234.999023438 -24.0009765625 201.666015625 -18.333984375 170.999023438 -7.0009765625 c 0
 142.33203125 4.33203125 117.999023438 20.4990234375 98 41.4990234375 c 0
 78 62.4990234375 62.666015625 87.666015625 52 116.999023438 c 0
 41.33203125 146.33203125 36 177.999023438 36 211.999023438 c 2
 36 217.999023438 l 2
 36 250.666015625 35.666015625 281.333007812 35 310 c 0
 35 330.666992188 35.5 356 36.5 386 c 0
 37.5 416 39.166015625 440.833007812 41.5 460.5 c 0
 43.83203125 480.166992188 47.33203125 501.333984375 52 524.000976562 c 0
 56.666015625 547.333984375 62.666015625 567.666992188 70 585 c 0
 87.33203125 628.333007812 116.33203125 661.333007812 156.999023438 684 c 0
 200.999023438 706.666992188 254.33203125 718 316.999023438 718 c 0
 348.33203125 718 377.666015625 713.333007812 404.998046875 704 c 0
 431.666015625 694.666992188 455.166015625 680.666992188 475.498046875 662 c 0
 495.831054688 643.333007812 512.498046875 619.5 525.498046875 590.5 c 0
 538.498046875 561.5 546.666015625 528.328125 549.998046875 490.995117188 c 2
EndSplineSet
Validated: 524289
EndChar

StartChar: one
Encoding: 49 49 17
Width: 590
GlyphClass: 2
Flags: W
HStem: -9.00098 110.501<84.3264 231.998 363.002 546.561> -5.00098 114.001<40.4389 231.998 363.002 431.524>
VStem: 231.998 131.004<107 552.809> 242.999 123.003<266.377 552.809>
LayerCount: 2
Fore
SplineSet
563.001953125 49.9990234375 m 1xa0
 563.001953125 46.9990234375 l 2
 563.001953125 31.666015625 558.33203125 18.666015625 548.999023438 7.9990234375 c 0
 538.999023438 -3.333984375 521.999023438 -9.0009765625 497.999023438 -9.0009765625 c 0xa0
 245.33203125 -7.0009765625 106.665039062 -5.66796875 81.998046875 -5.0009765625 c 0
 63.3310546875 -5.0009765625 49.3310546875 0.33203125 39.998046875 10.9990234375 c 0
 31.3310546875 21.666015625 26.998046875 34.666015625 26.998046875 49.9990234375 c 2
 26.998046875 52.9990234375 l 2
 26.998046875 67.666015625 30.998046875 80.3330078125 38.998046875 91 c 0
 48.3310546875 103 62.998046875 109 82.998046875 109 c 0
 110.998046875 109 160.665039062 108.333007812 231.998046875 107 c 1x60
 231.998046875 127 231.665039062 143.666992188 230.998046875 157 c 0
 230.331054688 163 229.998046875 180.333007812 229.998046875 209 c 0
 229.998046875 234.333007812 230.331054688 255 230.998046875 271 c 0
 230.998046875 289 232.331054688 325 234.998046875 379 c 0
 239.665039062 480.333007812 242.33203125 539.333007812 242.999023438 556 c 1
 199.666015625 526 166.666015625 507 143.999023438 499 c 0
 135.999023438 497 130.666015625 496 127.999023438 496 c 0
 115.999023438 496 103.999023438 501 91.9990234375 511 c 0
 75.9990234375 524.333007812 67.9990234375 538 67.9990234375 552 c 0
 67.9990234375 565.333007812 70.9990234375 576.833007812 76.9990234375 586.5 c 0
 82.9990234375 596.166992188 92.666015625 606 105.999023438 616 c 0
 124.666015625 630 149.333007812 648.666992188 180 672 c 1
 192.666992188 674 205.333984375 683 218.000976562 699 c 0
 229.333984375 707 241.000976562 714.333007812 253.000976562 721 c 0
 263.909179688 727.060546875 274.267578125 730.090820312 284.07421875 730.090820312 c 0
 285.055664062 730.090820312 286.03125 730.060546875 287.000976562 730 c 0
 305.66796875 730 324.334960938 723.333007812 343.001953125 710 c 0
 353.001953125 702.666992188 360.501953125 696 365.501953125 690 c 0
 370.501953125 684 373.001953125 678 373.001953125 672 c 2
 373.001953125 671 l 2
 372.334960938 655.666992188 370.001953125 603.166992188 366.001953125 513.5 c 0x50
 362.001953125 423.833007812 360.001953125 371.333007812 360.001953125 356 c 0
 360.001953125 292 360.334960938 238.666992188 361.001953125 196 c 0
 361.001953125 174 361.668945312 143 363.001953125 103 c 1
 399.001953125 102.333007812 422.001953125 102 432.001953125 102 c 0
 441.334960938 102 453.834960938 101.833007812 469.501953125 101.5 c 0
 485.168945312 101.166992188 495.3359375 101 500.002929688 101 c 0
 522.002929688 101 537.669921875 96.1669921875 547.002929688 86.5 c 0
 556.3359375 76.8330078125 561.668945312 65 563.001953125 51 c 2
 563.001953125 49.9990234375 l 1xa0
EndSplineSet
Validated: 524289
EndChar

StartChar: two
Encoding: 50 50 18
Width: 590
GlyphClass: 2
Flags: W
HStem: -18.0029 108.432<163.591 477.107> -12.0029 113.999<480.311 537.623> 506.999 21G<111.667 116.667> 612.998 109.001<223.888 387.109>
VStem: 412 126<456.851 587.935>
LayerCount: 2
Fore
SplineSet
479.998046875 101 m 1xb8
 486.665039062 109.666992188 493.66796875 109.99609375 501.000976562 101.99609375 c 0
 503.000976562 101.99609375 506.833984375 101.829101562 512.500976562 101.49609375 c 0
 518.16796875 101.163085938 522.66796875 100.163085938 526.000976562 98.49609375 c 0
 529.333984375 96.8291015625 532.666015625 94.99609375 536 92.99609375 c 0
 541.333007812 89.6630859375 545 85.6630859375 547 80.99609375 c 0
 551 72.99609375 553 63.6630859375 553 52.99609375 c 0
 553 33.6630859375 548 17.330078125 538 3.9970703125 c 0
 530 -6.669921875 519.666015625 -12.0029296875 507 -12.0029296875 c 0x78
 459.666015625 -12.0029296875 383.666015625 -14.0029296875 279 -18.0029296875 c 0
 243.666015625 -19.3359375 207.333984375 -20.0029296875 170.000976562 -20.0029296875 c 0
 135.333984375 -20.0029296875 108.333984375 -18.669921875 89 -16.0029296875 c 0
 78.333984375 -14.669921875 69 -10.3369140625 61 -3.00390625 c 0
 55 2.3291015625 50.333984375 9.3291015625 47 17.99609375 c 0
 40.333984375 35.3291015625 37 59.3291015625 37 89.99609375 c 0
 37 120.663085938 43.333984375 151.663085938 56 182.99609375 c 0
 68.66796875 214.329101562 87.66796875 244.49609375 113.000976562 273.49609375 c 0
 138.333984375 302.49609375 168.666015625 325.99609375 204 343.99609375 c 0
 282 381.99609375 332 408.663085938 354 423.99609375 c 0
 380.666015625 442.663085938 398 462.330078125 406 482.997070312 c 0
 410 495.6640625 412 511.331054688 412 529.998046875 c 0
 412 559.331054688 403 580.331054688 385 592.998046875 c 0
 365.666015625 606.331054688 336.666015625 612.998046875 298 612.998046875 c 0
 272 612.998046875 247.166015625 605.665039062 223.5 590.998046875 c 0
 199.833007812 576.331054688 181.333007812 559.998046875 168 541.998046875 c 0
 161.333007812 532.665039062 154.333007812 524.83203125 147 518.499023438 c 0
 139.666015625 512.166015625 132 508.666015625 124 507.999023438 c 0
 121.333007812 507.999023438 118.333007812 507.666015625 115 506.999023438 c 0
 108.333007812 506.999023438 97.33203125 510.33203125 82 516.999023438 c 0
 67.33203125 524.999023438 58 536.33203125 54 550.999023438 c 0
 53.33203125 554.999023438 53 558.666015625 53 561.999023438 c 0
 53 573.33203125 56.666015625 586.999023438 64 602.999023438 c 0
 71.33203125 616.999023438 82 630.83203125 96 644.499023438 c 0
 110 658.166015625 126 670.999023438 144 682.999023438 c 0
 163.333007812 694.999023438 186.333007812 704.499023438 213 711.499023438 c 0
 239.666015625 718.499023438 266.666015625 721.999023438 294 721.999023438 c 0
 376 721.999023438 437.333007812 704.999023438 478 670.999023438 c 0
 518 636.999023438 538 585.999023438 538 517.999023438 c 0
 538 461.999023438 523 416.666015625 493 381.999023438 c 0
 471 357.33203125 431 330.33203125 373 300.999023438 c 0
 358.333007812 293.666015625 333 281.666015625 297 264.999023438 c 0
 267 250.999023438 242 233.83203125 222 213.499023438 c 0
 202 193.166015625 187.333007812 172.333007812 178 151 c 0
 170.666015625 133 165.666015625 113.666992188 163 93 c 1
 196.716796875 91.28515625 228.962890625 90.4287109375 259.740234375 90.4287109375 c 0
 264.868164062 90.4287109375 269.954101562 90.4521484375 274.998046875 90.5 c 0
 310.33203125 90.8330078125 337.665039062 91.3330078125 356.998046875 92 c 0
 376.998046875 93.3330078125 417.998046875 96.3330078125 479.998046875 101 c 1xb8
EndSplineSet
Validated: 524289
EndChar

StartChar: three
Encoding: 51 51 19
Width: 590
GlyphClass: 2
Flags: W
HStem: -24.0166 108.017<212.507 372.542> 306 125<174.72 338.949> 520.002 21G<114.501 121.834> 613.001 109.001<207.846 372.21>
VStem: 398.502 126.997<479.219 589.309> 423.5 124<130.061 255.137>
LayerCount: 2
Fore
SplineSet
536.5 279.5 m 0xf8
 543.833007812 257.833007812 547.5 232.330078125 547.5 202.997070312 c 0
 547.5 133.6640625 525.166992188 78.3310546875 480.5 36.998046875 c 0
 435.23046875 -3.6787109375 370.268554688 -24.0166015625 285.61328125 -24.0166015625 c 0
 284.247070312 -24.0166015625 282.875976562 -24.01171875 281.5 -24.0009765625 c 0
 254.166992188 -24.0009765625 227.166992188 -20.333984375 200.5 -13.0009765625 c 0
 173.833007812 -5.66796875 151.333007812 3.6650390625 133 14.998046875 c 0
 114.666992188 26.3310546875 98.5 38.998046875 84.5 52.998046875 c 0
 70.5 66.998046875 60 80.8310546875 53 94.498046875 c 0
 46 108.165039062 42.5 120.998046875 42.5 132.998046875 c 0
 42.5 136.998046875 43.1669921875 140.998046875 44.5 144.998046875 c 0
 47.8330078125 161.665039062 56.8330078125 173.33203125 71.5 179.999023438 c 0
 82.1669921875 185.33203125 92.1669921875 187.999023438 101.5 187.999023438 c 0
 121.5 187.999023438 139.5 177.33203125 155.5 155.999023438 c 0
 170.166992188 136.666015625 189.166992188 119.833007812 212.5 105.5 c 0
 235.833007812 91.1669921875 260.5 84 286.5 84 c 0
 327.166992188 84 360.166992188 93.8330078125 385.5 113.5 c 0
 410.833007812 133.166992188 423.5 158 423.5 188 c 0xf4
 423.5 207.333007812 420.166992188 223.833007812 413.5 237.5 c 0
 406.833007812 251.166992188 396.333007812 263.166992188 382 273.5 c 0
 367.666992188 283.833007812 347.333984375 291.833007812 321.000976562 297.5 c 0
 294.66796875 303.166992188 262.500976562 306 224.500976562 306 c 0
 205.16796875 306 189.16796875 312.666992188 176.500976562 326 c 0
 163.16796875 339.333007812 156.500976562 354.333007812 156.500976562 371 c 0
 156.500976562 387.666992188 161.16796875 401.666992188 170.500976562 413 c 0
 181.16796875 425 196.500976562 431 216.500976562 431 c 0
 275.16796875 431 320.834960938 440.666992188 353.501953125 460 c 0
 383.501953125 478 398.501953125 504 398.501953125 538 c 2
 398.501953125 541 l 1
 398.501953125 545 l 2
 398.501953125 567.666992188 389.168945312 584.333984375 370.501953125 595.000976562 c 0
 348.501953125 607.000976562 316.501953125 613.000976562 274.501953125 613.000976562 c 0
 261.834960938 613.000976562 248.16796875 611.000976562 233.500976562 607.000976562 c 0
 229.500976562 605.66796875 224.833984375 603.16796875 219.500976562 599.500976562 c 0
 214.16796875 595.833984375 210.000976562 592.833984375 207.000976562 590.500976562 c 0
 204.000976562 588.16796875 200.000976562 584.334960938 195.000976562 579.001953125 c 0
 190.000976562 573.668945312 186.500976562 569.668945312 184.500976562 567.001953125 c 0
 180.500976562 554.334960938 176.833984375 549.66796875 173.500976562 553.000976562 c 1
 160.16796875 535.66796875 146.500976562 525.334960938 132.500976562 522.001953125 c 0
 128.500976562 520.668945312 124.16796875 520.001953125 119.500976562 520.001953125 c 0
 109.500976562 520.001953125 99.16796875 523.001953125 88.5009765625 529.001953125 c 0
 73.833984375 536.334960938 64.833984375 548.001953125 61.5009765625 564.001953125 c 0
 60.833984375 568.001953125 60.5009765625 572.001953125 60.5009765625 576.001953125 c 0
 60.5009765625 588.001953125 63.833984375 601.001953125 70.5009765625 615.001953125 c 0
 84.5009765625 643.668945312 106.16796875 668.001953125 135.500976562 688.001953125 c 0
 150.833984375 698.668945312 170.166992188 707.001953125 193.5 713.001953125 c 0
 216.833007812 719.001953125 242.166015625 722.001953125 269.499023438 722.001953125 c 0
 357.499023438 722.001953125 422.499023438 705.668945312 464.499023438 673.001953125 c 0
 505.166015625 640.334960938 525.499023438 592.66796875 525.499023438 530.000976562 c 2
 525.499023438 526.000976562 l 1
 525.499023438 523.000976562 l 2
 525.499023438 504.333984375 522.666015625 486.833984375 516.999023438 470.500976562 c 0
 511.33203125 454.16796875 503.665039062 440.334960938 493.998046875 429.001953125 c 0
 484.331054688 417.668945312 472.831054688 407.668945312 459.498046875 399.001953125 c 0
 446.165039062 390.334960938 432.498046875 383.66796875 418.498046875 379.000976562 c 1
 429.165039062 375.66796875 438.83203125 372.334960938 447.499023438 369.001953125 c 0
 468.166015625 360.334960938 486.333007812 348.66796875 502 334.000976562 c 0
 517.666992188 319.333984375 529.166992188 301.166992188 536.5 279.5 c 0xf8
EndSplineSet
Validated: 524289
EndChar

StartChar: four
Encoding: 52 52 20
Width: 590
GlyphClass: 2
Flags: W
HStem: -23 21G<423 438.333> 218.999 90.001<165.216 366.999 468.001 536.169>
VStem: 360.001 98.999<456.567 587.448> 365.999 102.002<37.313 218 309 587.448> 366.999 109.002<-7.4969 213.685>
LayerCount: 2
Fore
SplineSet
474.000976562 59 m 0xd0
 475.333984375 51 476.000976562 43.6669921875 476.000976562 37 c 0xc8
 476.000976562 23.6669921875 473.333984375 12 468.000976562 2 c 0xd0
 459.333984375 -14.6669921875 446.666992188 -23 430 -23 c 0
 416 -23 402.166992188 -17.8330078125 388.5 -7.5 c 0
 374.833007812 2.8330078125 367.666015625 13.666015625 366.999023438 24.9990234375 c 0xc8
 366.33203125 32.9990234375 365.999023438 45.666015625 365.999023438 62.9990234375 c 2
 365.999023438 138.999023438 l 2xd0
 365.999023438 166.33203125 366.33203125 192.999023438 366.999023438 218.999023438 c 1xc8
 321.999023438 218.999023438 l 2
 223.33203125 218.999023438 153.665039062 214.666015625 112.998046875 205.999023438 c 0
 108.331054688 204.666015625 103.331054688 204.166015625 97.998046875 204.499023438 c 0
 92.6650390625 204.83203125 87.33203125 205.665039062 81.9990234375 206.998046875 c 0
 72.666015625 210.331054688 65.166015625 215.498046875 59.4990234375 222.498046875 c 0
 53.83203125 229.498046875 49.4990234375 237.498046875 46.4990234375 246.498046875 c 0
 43.4990234375 255.498046875 41.9990234375 264.665039062 41.9990234375 273.998046875 c 0
 41.9990234375 284.665039062 43.666015625 294.665039062 46.9990234375 303.998046875 c 0
 53.666015625 323.331054688 71.666015625 353.831054688 100.999023438 395.498046875 c 0
 130.33203125 437.165039062 168.999023438 488.998046875 216.999023438 550.998046875 c 0
 259.666015625 605.665039062 293.666015625 650.33203125 318.999023438 684.999023438 c 0
 328.33203125 697.666015625 338.999023438 707.499023438 350.999023438 714.499023438 c 0
 362.999023438 721.499023438 374.666015625 724.999023438 385.999023438 724.999023438 c 2
 392.999023438 724.999023438 l 2
 404.999023438 724.999023438 415.999023438 722.666015625 425.999023438 717.999023438 c 0
 438.666015625 711.33203125 446.333007812 699.999023438 449 683.999023438 c 2
 449 682.999023438 l 1
 453 659.666015625 456.333007812 624.166015625 459 576.499023438 c 0xe0
 461.666992188 528.83203125 463.333984375 488.33203125 464.000976562 454.999023438 c 0
 464.66796875 405.666015625 465.66796875 356.666015625 467.000976562 307.999023438 c 1
 477.000976562 307.33203125 488.000976562 306.999023438 500.000976562 306.999023438 c 0
 517.333984375 306.999023438 529.500976562 303.166015625 536.500976562 295.499023438 c 0
 543.500976562 287.83203125 547.333984375 277.999023438 548.000976562 265.999023438 c 2
 548.000976562 265 l 2
 548.000976562 251 544.66796875 240 538.000976562 232 c 0
 530.000976562 222 517.333984375 217 500.000976562 217 c 0
 488.66796875 217 478.000976562 217.333007812 468.000976562 218 c 1
 469.333984375 125.333007812 471.333984375 72.3330078125 474.000976562 59 c 0xd0
299.000976562 309 m 2
 366.999023438 309 l 1xc8
 366.999023438 424.333007812 364.66796875 517.666015625 360.000976562 588.999023438 c 1xe0
 265.333984375 469.666015625 200.000976562 375.333007812 164.000976562 306 c 1
 201.333984375 308 246.333984375 309 299.000976562 309 c 2
EndSplineSet
Validated: 524289
EndChar

StartChar: five
Encoding: 53 53 21
Width: 590
GlyphClass: 2
Flags: W
HStem: -18.002 109.001<189.765 351.839> 407.998 113.043<226.316 395.675> 594.995 112.998<271.603 532.12> 605.995 103.998<165.501 494.887>
VStem: 43.501 119<466.431 602.995> 433.498 124.003<181.147 368.764>
LayerCount: 2
Fore
SplineSet
48.5009765625 561 m 0xdc
 49.833984375 581.666992188 50.4951171875 596.993164062 50.4951171875 606.993164062 c 1
 43.7734375 617.9921875 40.4130859375 630.672851562 40.4130859375 645.033203125 c 0
 40.4130859375 658.096679688 40.94140625 681.393554688 60.49609375 698.993164062 c 0
 69.8291015625 707.66015625 80.49609375 711.993164062 92.49609375 711.993164062 c 0
 117.163085938 711.993164062 179.163085938 711.326171875 278.497070312 709.993164062 c 0xdc
 379.163085938 708.66015625 453.497070312 707.993164062 501.497070312 707.993164062 c 0
 514.163085938 707.993164062 524.497070312 702.66015625 532.497070312 691.993164062 c 0
 542.497070312 678.66015625 547.497070312 662.327148438 547.497070312 642.994140625 c 0
 547.497070312 622.994140625 541.829101562 609.661132812 530.497070312 602.994140625 c 0
 527.163085938 600.994140625 523.830078125 599.327148438 520.497070312 597.994140625 c 0
 517.165039062 596.661132812 512.665039062 595.828125 506.997070312 595.495117188 c 0
 501.330078125 595.162109375 497.330078125 594.995117188 494.997070312 594.995117188 c 0xec
 492.665039062 594.995117188 488.997070312 595.162109375 483.997070312 595.495117188 c 0
 478.997070312 595.828125 475.830078125 595.995117188 474.497070312 595.995117188 c 1
 465.165039062 595.995117188 447.831054688 597.328125 422.498046875 599.995117188 c 0
 395.831054688 601.995117188 372.331054688 603.495117188 351.998046875 604.495117188 c 0
 331.665039062 605.495117188 304.333007812 605.995117188 269.999023438 605.995117188 c 0
 235.666015625 605.995117188 200.833007812 604.995117188 165.500976562 602.995117188 c 1
 163.366210938 562.998046875 162.299804688 535.798828125 162.299804688 521.3984375 c 0
 162.299804688 517.796875 162.366210938 514.99609375 162.500976562 512.995117188 c 0
 162.500976562 500.995117188 162.333007812 492.495117188 162.000976562 487.495117188 c 0
 161.666992188 482.495117188 161.833984375 475.328125 162.500976562 465.995117188 c 1
 180.500976562 479.328125 202.168945312 490.995117188 227.500976562 500.995117188 c 0
 262.500976562 514.358398438 301.751953125 521.041015625 345.254882812 521.041015625 c 0
 347.327148438 521.041015625 349.409179688 521.025390625 351.500976562 520.995117188 c 0
 386.168945312 520.995117188 417.168945312 515.328125 444.500976562 503.995117188 c 0
 469.833984375 492.662109375 490.666992188 476.829101562 507.000976562 456.49609375 c 0
 523.333007812 436.163085938 535.833007812 412.830078125 544.500976562 386.497070312 c 0
 553.166992188 360.1640625 557.500976562 331.6640625 557.500976562 300.997070312 c 0
 557.500976562 251.6640625 551.166992188 206.831054688 538.500976562 166.498046875 c 0
 525.833007812 126.165039062 507.666015625 92.498046875 483.999023438 65.498046875 c 0
 460.333007812 38.498046875 430.833007812 17.998046875 395.499023438 3.998046875 c 0
 359.499023438 -10.6689453125 320.499023438 -18.001953125 278.499023438 -18.001953125 c 0
 245.166015625 -18.001953125 214.166015625 -14.6689453125 185.499023438 -8.001953125 c 0
 157.499023438 -1.3349609375 134.833007812 7.33203125 117.499023438 17.9990234375 c 0
 100.166015625 28.666015625 85.4990234375 40.3330078125 73.4990234375 53 c 0
 61.4990234375 65.6669921875 51.4990234375 79 43.4990234375 93 c 0
 36.166015625 109 32.4990234375 122.666992188 32.4990234375 134 c 0
 32.4990234375 138 33.166015625 142 34.4990234375 146 c 0
 37.83203125 160.666992188 47.1650390625 172 62.498046875 180 c 0
 70.498046875 183.333007812 76.998046875 185.666015625 81.998046875 186.999023438 c 0
 86.998046875 188.33203125 91.3310546875 188.999023438 94.998046875 188.999023438 c 0
 98.6650390625 188.999023438 101.498046875 188.666015625 103.498046875 187.999023438 c 0
 112.165039062 187.33203125 120.165039062 183.665039062 127.498046875 176.998046875 c 0
 133.498046875 171.665039062 139.831054688 164.33203125 146.498046875 154.999023438 c 0
 176.498046875 112.33203125 216.831054688 90.9990234375 267.498046875 90.9990234375 c 0
 318.165039062 90.9990234375 358.165039062 108.33203125 387.498046875 142.999023438 c 0
 418.165039062 178.999023438 433.498046875 227.666015625 433.498046875 288.999023438 c 0
 433.498046875 326.33203125 424.165039062 355.665039062 405.498046875 376.998046875 c 0
 388.165039062 397.665039062 360.833007812 407.998046875 323.499023438 407.998046875 c 0
 306.166015625 407.998046875 287.833007812 405.998046875 268.500976562 401.998046875 c 0
 259.166992188 399.998046875 246.166992188 395.331054688 229.500976562 387.998046875 c 0
 225.500976562 385.998046875 220.333007812 382.665039062 214.000976562 377.998046875 c 0
 207.666992188 373.331054688 203.500976562 369.998046875 201.500976562 367.998046875 c 0
 190.166992188 358.665039062 180.833984375 350.665039062 173.500976562 343.998046875 c 0
 158.168945312 331.331054688 140.500976562 323.998046875 120.500976562 321.998046875 c 2
 113.500976562 321.998046875 l 2
 104.168945312 321.998046875 95.16796875 323.998046875 86.5009765625 327.998046875 c 0
 72.5009765625 333.998046875 61.833984375 346.665039062 54.5009765625 365.998046875 c 0
 48.5009765625 382.665039062 44.833984375 403.33203125 43.5009765625 427.999023438 c 0
 43.1669921875 433.33203125 43.0009765625 438.666015625 43.0009765625 444 c 0
 43.0009765625 449.333007812 43.1669921875 454.666015625 43.5009765625 460 c 0
 43.5009765625 483.333007812 45.16796875 517 48.5009765625 561 c 0xdc
EndSplineSet
Validated: 524289
EndChar

StartChar: six
Encoding: 54 54 22
Width: 590
GlyphClass: 2
Flags: W
HStem: -22.002 107.997<221.312 362.935> 379.996 114.002<217.445 398.642>
VStem: 30 116<167.545 324.488> 436.999 123.001<163.55 341.372>
LayerCount: 2
Fore
SplineSet
544.999023438 361 m 0
 554.999023438 329.666992188 560 293.331054688 560 251.998046875 c 0
 560 213.998046875 553.333007812 178.331054688 540 144.998046875 c 0
 514 76.998046875 468.666992188 28.3310546875 404 -1.001953125 c 0
 371.478515625 -15.03125 336.823242188 -22.0458984375 300.032226562 -22.0458984375 c 0
 298.359375 -22.0458984375 296.681640625 -22.03125 295 -22.001953125 c 0
 248.333007812 -22.001953125 207 -14.001953125 171 1.998046875 c 0
 137 18.6650390625 109.833007812 41.998046875 89.5 71.998046875 c 0
 69.1669921875 101.998046875 54.1669921875 136.831054688 44.5 176.498046875 c 0
 34.8330078125 216.165039062 30 259.665039062 30 306.998046875 c 0
 30 366.998046875 35.8330078125 420.498046875 47.5 467.498046875 c 0
 59.1669921875 514.498046875 74.833984375 553.831054688 94.5009765625 585.498046875 c 0
 114.16796875 617.165039062 139.000976562 643.665039062 169.000976562 664.998046875 c 0
 200.333984375 686.998046875 234.333984375 703.665039062 271.000976562 714.998046875 c 0
 307.66796875 726.331054688 348.000976562 733.6640625 392.000976562 736.997070312 c 2
 403.000976562 736.997070312 l 2
 418.333984375 736.997070312 431.666992188 734.330078125 443 728.997070312 c 0
 458.333007812 721.6640625 467.333007812 709.997070312 470 693.997070312 c 2
 470 689.997070312 l 2
 470 679.997070312 465 669.6640625 455 658.997070312 c 0
 444.333007812 648.330078125 432 640.997070312 418 636.997070312 c 0
 410 634.997070312 397.666992188 632.497070312 381 629.497070312 c 0
 364.333007812 626.497070312 350.333007812 623.6640625 339 620.997070312 c 0
 327.666992188 618.330078125 314.666992188 614.330078125 300 608.997070312 c 0
 270.666992188 598.330078125 241 577.997070312 211 547.997070312 c 0
 195.666992188 531.997070312 181.666992188 510.330078125 169 482.997070312 c 0
 163 468.997070312 157.666992188 455.997070312 153 443.997070312 c 1
 171 456.6640625 191.333007812 466.6640625 214 473.997070312 c 0
 251.333007812 486.6640625 293.333007812 493.331054688 340 493.998046875 c 0
 375.333007812 493.998046875 406.666015625 489.331054688 433.999023438 479.998046875 c 0
 459.999023438 470.665039062 482.499023438 456.33203125 501.499023438 436.999023438 c 0
 520.499023438 417.666015625 534.999023438 392.333007812 544.999023438 361 c 0
245 94.9970703125 m 0
 260.333007812 88.9970703125 276.666015625 85.9951171875 293.999023438 85.9951171875 c 2
 295.999023438 85.9951171875 l 1
 296.999023438 85.9951171875 l 2
 320.33203125 85.9951171875 342.999023438 93.662109375 364.999023438 108.995117188 c 0
 386.999023438 124.328125 404.499023438 143.828125 417.499023438 167.495117188 c 0
 430.499023438 191.162109375 436.999023438 215.329101562 436.999023438 239.99609375 c 0
 436.999023438 297.329101562 425.999023438 335.329101562 403.999023438 353.99609375 c 0
 392.666015625 363.329101562 379.833007812 369.99609375 365.5 373.99609375 c 0
 351.166992188 377.99609375 333 379.99609375 311 379.99609375 c 0
 277 379.99609375 245.333007812 372.49609375 216 357.49609375 c 0
 186.666992188 342.49609375 163 323.329101562 145 299.99609375 c 1
 145 274.663085938 145.333007812 253.663085938 146 236.99609375 c 0
 148.666992188 208.99609375 158.333984375 181.663085938 175.000976562 154.99609375 c 0
 183.66796875 141.663085938 193.66796875 129.830078125 205.000976562 119.497070312 c 0
 216.333984375 109.1640625 229.666992188 100.997070312 245 94.9970703125 c 0
EndSplineSet
Validated: 524289
EndChar

StartChar: seven
Encoding: 55 55 23
Width: 590
GlyphClass: 2
Flags: W
HStem: -23 21G<120 127.667> 601 113.001<81.735 410.001>
LayerCount: 2
Fore
SplineSet
223.001953125 601 m 0
 157.001953125 599.666992188 114.333984375 596.669921875 95.0009765625 592.002929688 c 0
 91.0009765625 590.669921875 86.5009765625 590.002929688 81.5009765625 590.002929688 c 0
 76.5009765625 590.002929688 71.333984375 591.002929688 66.0009765625 593.002929688 c 0
 57.333984375 596.3359375 50.6669921875 601.3359375 46 608.002929688 c 0
 36.6669921875 620.002929688 31.6669921875 633.669921875 31 649.002929688 c 1
 31 642.3359375 31 642.668945312 31 650.001953125 c 0
 31 664.001953125 35 675.668945312 43 685.001953125 c 0
 51 694.334960938 64.6669921875 700.66796875 84 704.000976562 c 0
 120 710.66796875 180.333007812 714.000976562 265 714.000976562 c 0
 299.666992188 714.000976562 347.333984375 712.66796875 408.000976562 710.000976562 c 0
 465.333984375 708.000976562 495.333984375 707.000976562 498.000976562 707.000976562 c 0
 506.66796875 707.000976562 515.16796875 705.16796875 523.500976562 701.500976562 c 0
 531.833984375 697.833984375 539.666992188 692.000976562 547 684.000976562 c 0
 554.333007812 675.333984375 558.333007812 664.000976562 559 650.000976562 c 0
 559 638.000976562 555.333007812 624.66796875 548 610.000976562 c 0
 538.666992188 590.000976562 521.666992188 560.500976562 497 521.500976562 c 0
 472.333007812 482.500976562 446.333007812 442.66796875 419 402.000976562 c 0
 390.333007812 361.333984375 355.333007812 307.166992188 314 239.5 c 0
 272.666992188 171.833007812 233.666992188 102.666015625 197 31.9990234375 c 0
 187.666992188 12.666015625 174.666992188 -1.6669921875 158 -11 c 0
 145.333007812 -19 133.333007812 -23 122 -23 c 0
 118 -23 114 -22.6669921875 110 -22 c 0
 92 -18 79.3330078125 -8 72 8 c 0
 68.6669921875 15.3330078125 67 23.166015625 67 31.4990234375 c 0
 67 39.83203125 69.3330078125 48.9990234375 74 58.9990234375 c 0
 108 125.666015625 145.666992188 191.999023438 187 257.999023438 c 0
 229.666992188 323.999023438 264.833984375 376.33203125 292.500976562 414.999023438 c 0
 320.16796875 453.666015625 344.500976562 489.333007812 365.500976562 522 c 0
 386.500976562 554.666992188 401.333984375 581 410.000976562 601 c 1
 381.333984375 601.666015625 351.41796875 602 320.251953125 602 c 0
 289.084960938 602 256.66796875 601.666015625 223.001953125 601 c 0
EndSplineSet
Validated: 524289
EndChar

StartChar: eight
Encoding: 56 56 24
Width: 590
GlyphClass: 2
Flags: W
HStem: -28.001 110<199.184 380.638> 621.999 96.002<216.764 353.08>
VStem: 24.499 111.003<137.082 263.615> 51.499 121.003<482.059 579.145> 404.501 117.001<478.907 573.656> 448.502 116.999<140 269.94>
LayerCount: 2
Fore
SplineSet
213.501953125 96.9990234375 m 0xe4
 236.834960938 86.9990234375 261.834960938 81.9990234375 288.501953125 81.9990234375 c 0
 307.168945312 81.9990234375 326.001953125 84.666015625 345.001953125 89.9990234375 c 0
 364.001953125 95.33203125 381.334960938 102.999023438 397.001953125 112.999023438 c 0
 412.668945312 122.999023438 425.168945312 135.666015625 434.501953125 150.999023438 c 0
 443.834960938 166.33203125 448.501953125 182.999023438 448.501953125 200.999023438 c 0
 448.501953125 210.999023438 447.501953125 220.33203125 445.501953125 228.999023438 c 0
 443.501953125 237.666015625 439.501953125 247.666015625 433.501953125 258.999023438 c 0
 427.501953125 270.33203125 419.168945312 280.999023438 408.501953125 290.999023438 c 0
 397.834960938 300.999023438 383.001953125 311.33203125 364.001953125 321.999023438 c 0
 345.001953125 332.666015625 322.501953125 342.333007812 296.501953125 351 c 1
 248.501953125 339 209.501953125 318.666992188 179.501953125 290 c 0
 150.168945312 261.333007812 135.501953125 230.666015625 135.501953125 197.999023438 c 0
 135.501953125 175.999023438 142.501953125 155.999023438 156.501953125 137.999023438 c 0
 171.834960938 119.999023438 190.834960938 106.33203125 213.501953125 96.9990234375 c 0xe4
206.000976562 591.499023438 m 0
 183.666992188 571.166015625 172.501953125 549.333007812 172.501953125 526 c 0
 172.501953125 507.333007812 182.168945312 490.666015625 201.501953125 475.999023438 c 0
 221.501953125 460.666015625 255.168945312 444.999023438 302.501953125 428.999023438 c 1
 329.834960938 439.666015625 353.668945312 453.666015625 374.000976562 470.999023438 c 0
 394.333984375 488.33203125 404.500976562 503.33203125 404.500976562 515.999023438 c 0xd8
 404.500976562 532.666015625 399.333984375 548.999023438 389.000976562 564.999023438 c 0
 378.668945312 580.999023438 364.168945312 594.499023438 345.500976562 605.499023438 c 0
 326.833984375 616.499023438 307.166992188 621.999023438 286.500976562 621.999023438 c 2
 284.500976562 621.999023438 l 2
 254.500976562 621.999023438 228.333007812 611.83203125 206.000976562 591.499023438 c 0
562.000976562 246 m 0
 564.333984375 234 565.500976562 221.33203125 565.500976562 207.999023438 c 0
 565.500976562 185.999023438 562.500976562 164.33203125 556.500976562 142.999023438 c 0
 550.500976562 121.666015625 540.500976562 100.499023438 526.500976562 79.4990234375 c 0
 512.500976562 58.4990234375 495.166992188 40.33203125 474.500976562 24.9990234375 c 0
 453.833007812 9.666015625 426.666015625 -3.0009765625 392.999023438 -13.0009765625 c 0
 359.333007812 -23.0009765625 322.665039062 -28.0009765625 282.998046875 -28.0009765625 c 0
 243.331054688 -28.0009765625 207.831054688 -23.333984375 176.498046875 -14.0009765625 c 0
 146.498046875 -4.66796875 122.331054688 7.4990234375 103.998046875 22.4990234375 c 0
 85.6650390625 37.4990234375 70.33203125 55.166015625 57.9990234375 75.4990234375 c 0
 45.666015625 95.83203125 36.9990234375 116.33203125 31.9990234375 136.999023438 c 0
 26.9990234375 157.666015625 24.4990234375 179.333007812 24.4990234375 202 c 0xe4
 24.4990234375 224.666992188 30.4990234375 249.166992188 42.4990234375 275.5 c 0
 54.4990234375 301.833007812 72.166015625 326.333007812 95.4990234375 349 c 0
 111.499023438 365 128.833007812 377.666992188 147.499023438 387 c 1
 120.833007812 402.333007812 99.4990234375 420.666015625 83.4990234375 441.999023438 c 0
 62.166015625 469.999023438 51.4990234375 498.666015625 51.4990234375 527.999023438 c 0
 51.4990234375 536.666015625 52.166015625 545.666015625 53.4990234375 554.999023438 c 0
 54.83203125 564.33203125 57.6650390625 575.33203125 61.998046875 587.999023438 c 0
 66.3310546875 600.666015625 71.8310546875 612.83203125 78.498046875 624.499023438 c 0
 85.1650390625 636.166015625 94.33203125 647.833007812 105.999023438 659.5 c 0
 117.666015625 671.166992188 130.833007812 681.000976562 145.500976562 689.000976562 c 0
 162.166992188 697.66796875 182.500976562 704.66796875 206.500976562 710.000976562 c 0
 230.500976562 715.333984375 256.833007812 718.000976562 285.500976562 718.000976562 c 0
 314.166992188 718.000976562 340.500976562 715.333984375 364.500976562 710.000976562 c 0
 388.500976562 704.66796875 408.833007812 698.000976562 425.500976562 690.000976562 c 0
 442.166992188 681.333984375 456.333984375 671.166992188 468.000976562 659.5 c 0
 479.668945312 647.833007812 488.834960938 636.166015625 495.501953125 624.499023438 c 0
 502.168945312 612.83203125 507.501953125 600.499023438 511.501953125 587.499023438 c 0
 515.501953125 574.499023438 518.168945312 563.166015625 519.501953125 553.499023438 c 0
 520.834960938 543.83203125 521.501953125 534.33203125 521.501953125 524.999023438 c 0
 521.501953125 515.666015625 520.334960938 506.833007812 518.001953125 498.5 c 0
 515.668945312 490.166992188 512.836914062 482.666015625 509.502929688 475.999023438 c 0
 506.169921875 469.33203125 501.501953125 462.5 495.501953125 455.5 c 0
 489.501953125 448.5 484.002929688 442.666992188 479.002929688 438 c 0
 474.002929688 433.333007812 467.669921875 428 460.002929688 422 c 0
 452.336914062 416 446.168945312 411.666992188 441.501953125 409 c 0
 436.834960938 406.333007812 430.834960938 402.333007812 423.501953125 397 c 1
 442.168945312 389 458.501953125 380 472.501953125 370 c 0
 491.834960938 356.666992188 507.334960938 343.166992188 519.001953125 329.5 c 0
 530.668945312 315.833007812 540.168945312 301.5 547.501953125 286.5 c 0
 554.834960938 271.5 559.668945312 258 562.000976562 246 c 0
EndSplineSet
Validated: 524289
EndChar

StartChar: nine
Encoding: 57 57 25
Width: 590
GlyphClass: 2
Flags: W
HStem: -22.9951 21G<154.667 163.667> 223.002 113.005<206.64 388.074> 630.006 108.993<223.431 370.932>
VStem: 30 122.002<391.618 557.824> 446.002 113.998<379.658 542.364>
LayerCount: 2
Fore
SplineSet
172 555.004882812 m 0
 158.66796875 532.337890625 152.001953125 509.006835938 152.001953125 485.006835938 c 0
 152.001953125 385.673828125 199 336.006835938 293 336.006835938 c 0
 323 336.006835938 352.001953125 342.006835938 380.001953125 354.006835938 c 0
 408.001953125 366.006835938 430.001953125 381.33984375 446.001953125 400.006835938 c 1
 446.001953125 409.006835938 l 2
 446.001953125 427.006835938 445.001953125 450.673828125 443.001953125 480.006835938 c 0
 440.3359375 508.006835938 430.66796875 535.33984375 414.000976562 562.006835938 c 0
 405.333984375 575.33984375 395.500976562 587.172851562 384.500976562 597.505859375 c 0
 373.500976562 607.838867188 360.16796875 615.838867188 344.500976562 621.505859375 c 0
 328.833984375 627.172851562 312.66796875 630.005859375 296 630.005859375 c 2
 293 630.005859375 l 2
 269 630.005859375 246.16796875 623.172851562 224.5 609.505859375 c 0
 202.833007812 595.838867188 185.333007812 577.671875 172 555.004882812 c 0
172 -22 m 0
 168.66796875 -22 165.333984375 -22.328125 162.000976562 -22.9951171875 c 0
 147.333984375 -22.9951171875 134.333984375 -19.9951171875 123.000976562 -13.9951171875 c 0
 107.66796875 -6.662109375 99.0009765625 5.0048828125 97.0009765625 21.0048828125 c 0
 97.0009765625 22.337890625 96.66796875 23.337890625 96.0009765625 24.0048828125 c 0
 96.0009765625 34.671875 101.16796875 45.171875 111.500976562 55.5048828125 c 0
 121.833984375 65.837890625 133.333984375 73.0048828125 146.000976562 77.0048828125 c 0
 154.000976562 79.0048828125 167.16796875 81.671875 185.500976562 85.0048828125 c 0
 203.833984375 88.337890625 220.000976562 91.6708984375 234.000976562 95.00390625 c 0
 248.000976562 98.3369140625 263.333984375 102.669921875 280.000976562 108.002929688 c 0
 315.333984375 120.002929688 346.333984375 139.002929688 373.000976562 165.002929688 c 0
 390.333984375 183.002929688 406.000976562 203.669921875 420.000976562 227.002929688 c 0
 425.333984375 236.3359375 430.000976562 245.668945312 434.000976562 255.001953125 c 1
 419.333984375 247.001953125 403.333984375 240.668945312 386.000976562 236.001953125 c 0
 353.333984375 228.001953125 313.000976562 223.668945312 265.000976562 223.001953125 c 0
 231.000976562 223.001953125 198.66796875 230.001953125 168.000976562 244.001953125 c 0
 138.66796875 258.001953125 114.16796875 276.668945312 94.5009765625 300.001953125 c 0
 74.833984375 323.334960938 59.1669921875 350.16796875 47.5 380.500976562 c 0
 35.8330078125 410.833984375 30 441.666992188 30 473 c 0
 30 511 36.5 546.5 49.5 579.5 c 0
 62.5 612.5 80.1669921875 640.666992188 102.5 664 c 0
 124.833007812 687.333007812 152.666015625 705.666015625 186 718.999023438 c 0
 220 732.33203125 256 738.999023438 294 738.999023438 c 0
 388 738.999023438 456.33203125 706.999023438 499 642.999023438 c 0
 539 582.999023438 559.33203125 498.33203125 560 388.999023438 c 0
 560 331.666015625 553.33203125 280.999023438 540 236.999023438 c 0
 526.666015625 192.999023438 508.833007812 155.83203125 486.5 125.499023438 c 0
 464.16796875 95.166015625 436.66796875 69.3330078125 404 48 c 0
 370 26.6669921875 333.833007812 10.5 295.5 -0.5 c 0
 257.16796875 -11.5 216 -18.6669921875 172 -22 c 0
EndSplineSet
Validated: 524289
EndChar

StartChar: colon
Encoding: 58 58 26
Width: 590
GlyphClass: 2
Flags: W
HStem: 27.001 180<237.159 351.079> 295.001 179<247.565 347.156>
VStem: 218 155<49.1377 186.712 322.001 455.644>
LayerCount: 2
Fore
SplineSet
370 404 m 0
 370 384.666992188 367 364.668945312 361 344.001953125 c 0
 357 327.334960938 348 314.66796875 334 306.000976562 c 0
 322 298.66796875 310 295.000976562 298 295.000976562 c 2
 295 295.000976562 l 2
 275 296.333984375 259 300.333984375 247 307.000976562 c 0
 230.333007812 317.000976562 221 332.000976562 219 352.000976562 c 1
 217.666992188 364.000976562 217 376.000976562 217 388.000976562 c 0
 217 400.66796875 217.333007812 412.334960938 218 423.001953125 c 0
 218.666992188 433.668945312 222 443.001953125 228 451.001953125 c 0
 234 458.334960938 241.333007812 463.66796875 250 467.000976562 c 0
 258.666992188 470.333984375 266.333984375 472.333984375 273.000976562 473.000976562 c 0
 279.66796875 473.66796875 284.66796875 474.000976562 288.000976562 474.000976562 c 0
 299.333984375 474.000976562 309.000976562 473.333984375 317.000976562 472.000976562 c 0
 324.333984375 470.66796875 331.666992188 468.000976562 339 464.000976562 c 0
 347 460.000976562 354 454.000976562 360 446.000976562 c 0
 365.333007812 438.000976562 368.333007812 428.66796875 369 418.000976562 c 0
 369.666992188 413.333984375 370 408.666992188 370 404 c 0
373 124.001953125 m 0
 373 108.001953125 370.66796875 91.6689453125 366.000976562 75.001953125 c 0
 362.000976562 58.3349609375 351.66796875 46.001953125 335.000976562 38.001953125 c 0
 321.000976562 31.3349609375 307.66796875 27.66796875 295.000976562 27.0009765625 c 0
 278.333984375 27.0009765625 262.000976562 32.0009765625 246.000976562 42.0009765625 c 0
 230.000976562 52.0009765625 221.333984375 66.0009765625 220.000976562 84.0009765625 c 0
 219.333984375 102.66796875 218.666992188 113.334960938 218 116.001953125 c 0
 218 118.668945312 218.333007812 124.668945312 219 134.001953125 c 0
 219.666992188 143.334960938 220.333984375 150.66796875 221.000976562 156.000976562 c 0
 221.000976562 166.66796875 224.000976562 176.000976562 230.000976562 184.000976562 c 0
 236.000976562 192.000976562 244.000976562 197.333984375 254.000976562 200.000976562 c 0
 267.333984375 204.66796875 280.333984375 207.000976562 293.000976562 207.000976562 c 0
 305.000976562 207.000976562 315.66796875 205.66796875 325.000976562 203.000976562 c 0
 334.333984375 200.333984375 343.666992188 194.333984375 353 185.000976562 c 0
 362.333007812 176.333984375 368 165.333984375 370 152.000976562 c 0
 372 142.66796875 373 133.334960938 373 124.001953125 c 0
EndSplineSet
Validated: 1
EndChar

StartChar: semicolon
Encoding: 59 59 27
Width: 590
GlyphClass: 2
Flags: W
HStem: 253 180.001<268.717 377.135>
VStem: 247.025 153<275.988 416.875>
LayerCount: 2
Fore
SplineSet
400.025390625 363 m 2
 400.025390625 343.666992188 397.024414062 323.333984375 391.024414062 302.000976562 c 0
 387.024414062 285.333984375 378.024414062 272.666992188 364.024414062 264 c 0
 352.024414062 256.666992188 340.024414062 253 328.024414062 253 c 0
 318.69140625 253 308.357421875 255 297.025390625 259 c 0
 285.692382812 263 275.359375 269 266.025390625 277 c 0
 256.025390625 286.333007812 250.359375 297.333007812 249.025390625 310 c 1
 247.693359375 322 247.025390625 334.333007812 247.025390625 347 c 0
 247.025390625 359.666992188 247.359375 371 248.025390625 381 c 0
 248.693359375 391.666992188 252.025390625 401 258.025390625 409 c 0
 264.025390625 417 271.359375 422.333007812 280.025390625 425 c 0
 294.693359375 429.666992188 308.693359375 432.333984375 322.025390625 433.000976562 c 0
 332.025390625 433.000976562 340.359375 432.000976562 347.025390625 430.000976562 c 0
 354.359375 428.66796875 362.025390625 426.000976562 370.025390625 422.000976562 c 0
 378.025390625 418.000976562 384.693359375 412.333984375 390.025390625 405.000976562 c 0
 395.359375 396.333984375 398.692382812 386.666992188 400.025390625 376 c 2
 400.025390625 363 l 2
380.024414062 79 m 2
 380.025390625 73 l 2
 378.025390625 51 356.357421875 -36.6669921875 315.025390625 -190 c 0
 310.357421875 -206.666992188 301.69140625 -219 289.024414062 -227 c 0
 277.69140625 -234.333007812 266.357421875 -238 255.025390625 -238 c 0
 237.692382812 -238 222.025390625 -233 208.025390625 -223 c 0
 195.9921875 -214.133789062 189.974609375 -202.258789062 189.974609375 -187.375976562 c 0
 189.974609375 -168.400390625 200.478515625 -113.73046875 210.025390625 -65.9990234375 c 0
 223.357421875 0.0009765625 234.025390625 49.333984375 242.025390625 82.0009765625 c 0
 244.692382812 93.333984375 248.359375 103.000976562 253.025390625 111.000976562 c 0
 258.359375 119.000976562 264.359375 124.000976562 271.025390625 126.000976562 c 0
 280.359375 129.333984375 289.359375 131.333984375 298.025390625 132.000976562 c 0
 301.359375 132.000976562 304.692382812 131.66796875 308.025390625 131.000976562 c 0
 322.025390625 131.000976562 336.357421875 127.66796875 351.025390625 121.000976562 c 0
 360.357421875 117.000976562 367.69140625 110.66796875 373.024414062 102.000976562 c 0
 377.69140625 95.333984375 380.024414062 87.6669921875 380.024414062 79 c 2
EndSplineSet
Validated: 524289
EndChar

StartChar: less
Encoding: 60 60 28
Width: 590
GlyphClass: 2
Flags: W
HStem: -25 21G<485.667 492.667>
LayerCount: 2
Fore
SplineSet
491 -25 m 0
 480.333007812 -25 468.333007812 -22.662109375 455 -17.9951171875 c 0
 437 -12.662109375 415.333007812 -0.662109375 390 18.0048828125 c 0
 364.666992188 36.671875 337.666992188 58.671875 309 84.0048828125 c 0
 280.333007812 109.337890625 252 135.004882812 224 161.004882812 c 0
 196 187.004882812 166.666992188 213.671875 136 241.004882812 c 0
 105.333007812 268.337890625 79.3330078125 290.004882812 58 306.004882812 c 0
 47.3330078125 314.004882812 40 325.004882812 36 339.004882812 c 0
 34.6669921875 345.004882812 34 351.671875 34 359.004882812 c 0
 34 365.671875 35 372.671875 37 380.004882812 c 0
 41 394.004882812 48.3330078125 404.004882812 59 410.004882812 c 0
 96.3330078125 438.004882812 140.666015625 473.004882812 191.999023438 515.004882812 c 0
 242.666015625 557.671875 289.333007812 596.004882812 332 630.004882812 c 0
 374.666992188 664.671875 413 692.004882812 447 712.004882812 c 0
 460.333007812 720.671875 473.666015625 725.004882812 486.999023438 725.004882812 c 0
 496.999023438 725.004882812 505.666015625 722.671875 512.999023438 718.004882812 c 0
 527.666015625 709.337890625 538.333007812 697.670898438 545 683.00390625 c 0
 548.333007812 676.336914062 550 669.00390625 550 661.00390625 c 0
 550 653.00390625 547.666992188 644.670898438 543 636.00390625 c 0
 535 622.670898438 518.666992188 607.670898438 494 591.00390625 c 0
 457.333007812 565.00390625 404 524.670898438 334 470.00390625 c 0
 264 415.336914062 216.666992188 378.669921875 192 360.002929688 c 1
 214.666992188 342.002929688 240.666992188 319.669921875 270 293.002929688 c 0
 300 266.3359375 327 241.668945312 351 219.001953125 c 0
 375 196.334960938 401 173.001953125 429 149.001953125 c 0
 457 125.001953125 481.666992188 106.334960938 503 93.001953125 c 0
 525 79.001953125 540 65.6689453125 548 53.001953125 c 0
 553.333007812 45.001953125 556 36.6689453125 556 28.001953125 c 0
 556 21.3349609375 554.666992188 14.66796875 552 8.0009765625 c 0
 543.333007812 -10.666015625 526 -21.3330078125 500 -24 c 0
 497.333007812 -24.6669921875 494.333007812 -25 491 -25 c 0
EndSplineSet
Validated: 1
EndChar

StartChar: equal
Encoding: 61 61 29
Width: 590
GlyphClass: 2
Flags: W
HStem: 235 107<107.504 484.621> 435 106<109.565 484.621>
LayerCount: 2
Fore
SplineSet
444 541 m 0
 463.333007812 541 477 536.333007812 485 527 c 0
 493 517.666992188 497.66796875 506 499 492 c 2
 499 491 l 2
 499 483.666992188 498.333007812 477 497 471 c 0
 495.66796875 465 493 459 489 453 c 0
 485 447 478.66796875 442 470 438 c 0
 464 435.333007812 457.66796875 434.333007812 451 435 c 2
 443 435 l 2
 419 435.666992188 394.333007812 436 369 436 c 2
 259 433 l 2
 212.333007812 431.666992188 178 431 156 431 c 0
 136.66796875 431 121 436 109 446 c 0
 97 456 91 468.666992188 91 484 c 2
 91 487 l 2
 91 501 95.66796875 513.666992188 105 525 c 0
 115 535.666992188 129.333007812 541 148 541 c 2
 152 541 l 2
 191.599609375 539.799804688 234.91796875 539.200195312 281.95703125 539.200195312 c 0
 313.318359375 539.200195312 346.33203125 539.466796875 381 540 c 0
 415.66796875 540.666992188 436.66796875 541 444 541 c 0
451 239 m 2
 443 239 l 2
 427.66796875 239.666992188 413.66796875 240 401 240 c 0
 373 240 330 239.333007812 272 238 c 0
 214 236 174.66796875 235 154 235 c 0
 133.333007812 235 117.666015625 240.333007812 107 251 c 0
 96.33203125 261.666992188 91 274.666992188 91 290 c 2
 91 292 l 2
 91 306 96.33203125 318 107 328 c 0
 117.666015625 337.333007812 132.666015625 342 152 342 c 2
 170 342 l 2
 184.228515625 341.77734375 199.94140625 341.666015625 217.13671875 341.666015625 c 0
 251.5 341.666015625 291.7890625 342.110351562 338 342.999023438 c 2
 444 344.999023438 l 2
 463.33203125 344.999023438 477 340.33203125 485 330.999023438 c 0
 493 321.666015625 497.666015625 309.999023438 499 295.999023438 c 2
 499 294.999023438 l 2
 499 287.666015625 498.33203125 281.333007812 497 276 c 0
 495.666015625 270 493 264 489 258 c 0
 485 251.333007812 478.666015625 246 470 242 c 0
 464.666015625 240 458.333007812 239 451 239 c 2
EndSplineSet
Validated: 524289
EndChar

StartChar: greater
Encoding: 62 62 30
Width: 590
GlyphClass: 2
Flags: W
HStem: -18 21G<98.3345 109.667>
LayerCount: 2
Fore
SplineSet
103.000976562 -18 m 0
 93.66796875 -18 84.9990234375 -15.6708984375 76.9990234375 -11.00390625 c 0
 69.666015625 -6.3369140625 62.9990234375 -1.00390625 56.9990234375 4.99609375 c 0
 51.666015625 10.99609375 47.666015625 17.6630859375 44.9990234375 24.99609375 c 0
 41.666015625 31.6630859375 39.666015625 38.6630859375 38.9990234375 45.99609375 c 0
 38.9990234375 53.99609375 41.666015625 62.3291015625 46.9990234375 70.99609375 c 0
 54.9990234375 84.3291015625 70.9990234375 99.3291015625 94.9990234375 115.99609375 c 0
 131.666015625 141.99609375 185.333007812 182.329101562 256 236.99609375 c 0
 326 291.663085938 373.333007812 328.330078125 398 346.997070312 c 1
 375.333007812 364.997070312 349 387.330078125 319 413.997070312 c 0
 289 440.6640625 262.333007812 465.331054688 239 487.998046875 c 0
 215 510.665039062 189 533.998046875 161 557.998046875 c 0
 133 581.998046875 108.333007812 600.665039062 87 613.998046875 c 0
 65 627.998046875 50 641.331054688 42 653.998046875 c 0
 36.6669921875 661.998046875 34 670.665039062 34 679.998046875 c 0
 34 686.665039062 35.3330078125 692.998046875 38 698.998046875 c 0
 46.6669921875 717.665039062 64 728.33203125 90 730.999023438 c 0
 93.3330078125 731.666015625 96.3330078125 731.999023438 99 731.999023438 c 0
 109.666992188 731.999023438 121.666992188 729.666015625 135 724.999023438 c 0
 153 719.666015625 174.666992188 707.666015625 200 688.999023438 c 0
 225.333007812 670.33203125 252.333007812 648.33203125 281 622.999023438 c 0
 309.666992188 597.666015625 338 571.999023438 366 545.999023438 c 0
 394 519.999023438 423.333007812 493.33203125 454 465.999023438 c 0
 484.666992188 438.666015625 510.666992188 417.333007812 532 402 c 0
 542.666992188 394 550 382.666992188 554 368 c 0
 555.333007812 362 556 355.333007812 556 348 c 0
 556 341.333007812 555 334.333007812 553 327 c 0
 549 313 541.666992188 303 531 297 c 0
 493.666992188 269.666992188 449.333984375 234.666992188 398.000976562 192 c 0
 347.333984375 149.333007812 300.666992188 111 258 77 c 0
 215.333007812 43 177 15.6669921875 143 -5 c 0
 129.666992188 -13.6669921875 116.333984375 -18 103.000976562 -18 c 0
EndSplineSet
Validated: 524289
EndChar

StartChar: question
Encoding: 63 63 31
Width: 590
GlyphClass: 2
Flags: W
HStem: -26.002 178.001<214.893 331.37> 508.999 21G<135.334 150.001> 625 109.069<236.464 365.065>
VStem: 179.004 187<7.88811 117.73> 212.004 125.996<216.992 316.186> 390.039 124.961<484.855 602.144>
LayerCount: 2
Fore
SplineSet
282 201 m 0xec
 276 201 269.669921875 201.665039062 263.00390625 202.998046875 c 0
 229.669921875 211.665039062 212.669921875 232.33203125 212.00390625 264.999023438 c 0
 212.00390625 274.33203125 213.669921875 284.33203125 217.00390625 294.999023438 c 0
 221.669921875 314.33203125 228.669921875 332.33203125 238.00390625 348.999023438 c 0
 247.3359375 365.666015625 257.668945312 379.999023438 269.001953125 391.999023438 c 0
 279.668945312 403.999023438 291.001953125 414.999023438 303.001953125 424.999023438 c 0
 315.001953125 435.666015625 326.3359375 445.333007812 337.001953125 454 c 0
 347.668945312 462.666992188 357.001953125 471.666992188 365.001953125 481 c 0
 381.692382812 498.975585938 390.0390625 517.568359375 390.0390625 536.779296875 c 0
 390.0390625 554.662109375 388.403320312 586.278320312 365.000976562 605 c 0
 347.8203125 618.36328125 323.046875 625.045898438 290.6796875 625.045898438 c 0
 289.13671875 625.045898438 287.578125 625.030273438 286.000976562 625 c 0
 278.000976562 625 270.333984375 623.333007812 263.000976562 620 c 0
 255.000976562 616 247.66796875 611.666992188 241.000976562 607 c 0
 235.000976562 602.333007812 228.333984375 595.666015625 221.000976562 586.999023438 c 0
 213.66796875 578.33203125 208.000976562 570.999023438 204.000976562 564.999023438 c 0
 200.000976562 558.999023438 194.66796875 551.666015625 188.000976562 542.999023438 c 0
 182.000976562 533.666015625 175.333984375 525.999023438 168.000976562 519.999023438 c 0
 161.333984375 513.999023438 154.000976562 510.33203125 146.000976562 508.999023438 c 2
 137.000976562 508.999023438 l 2
 133.66796875 508.999023438 129.66796875 509.666015625 125.000976562 510.999023438 c 0
 120.333984375 512.33203125 113.66796875 514.665039062 105 517.998046875 c 0
 90.3330078125 525.998046875 81 537.331054688 77 551.998046875 c 2
 75 563.998046875 l 2
 75 575.331054688 78.6669921875 588.998046875 86 604.998046875 c 0
 93.3330078125 619.665039062 102.666015625 633.665039062 114 646.998046875 c 0
 125.33203125 660.998046875 139 674.665039062 155 687.998046875 c 0
 171 701.998046875 190 713.331054688 212 721.998046875 c 0
 232.426757812 730.045898438 254.00390625 734.069335938 276.731445312 734.069335938 c 0
 278.48046875 734.069335938 280.236328125 734.045898438 282 733.998046875 c 0
 357.33203125 733.998046875 415 716.331054688 455 680.998046875 c 0
 495 645.665039062 515 592.665039062 515 521.998046875 c 0
 515 502.665039062 511.666015625 484.998046875 505 468.998046875 c 0
 499 452.998046875 491 438.998046875 481 426.998046875 c 0
 471 415.665039062 460 405.33203125 448 395.999023438 c 2
 412 367.999023438 l 2
 400 358.666015625 389 349.333007812 379 340 c 0
 369 330.666992188 360.33203125 319 353 305 c 0
 345.666015625 291.666992188 340.666015625 276.666992188 338 260 c 0
 334.666015625 240 327.333007812 224.666992188 316 214 c 0
 307.333007812 205.333007812 296 201 282 201 c 0xec
265.00390625 -26.001953125 m 2
 241.669921875 -26.001953125 222.00390625 -18.0029296875 206.00390625 -2.0029296875 c 0
 188.00390625 16.6640625 179.00390625 38.3310546875 179.00390625 62.998046875 c 0
 179.00390625 87.6650390625 188.669921875 108.33203125 208.00390625 124.999023438 c 0
 228.669921875 142.999023438 252.336914062 151.999023438 279.00390625 151.999023438 c 0
 303.671875 151.999023438 324.00390625 143.999023438 340.00390625 127.999023438 c 0
 357.336914062 110.666015625 366.00390625 89.9990234375 366.00390625 65.9990234375 c 0xf4
 366.00390625 41.33203125 357.671875 20.6650390625 341.00390625 3.998046875 c 0
 324.336914062 -12.6689453125 302.669921875 -22.6689453125 276.00390625 -26.001953125 c 2
 265.00390625 -26.001953125 l 2
EndSplineSet
Validated: 524289
EndChar

StartChar: at
Encoding: 64 64 32
Width: 590
GlyphClass: 2
Flags: W
HStem: -141.995 110<228.143 381.131> 105.006 104.999<257.361 317.78> 369.005 101.001<269.14 369.622> 601.005 113.998<250.093 388.154>
VStem: 25 110.996<95.6791 430.758> 148 100.998<212.861 350.422> 330 104.799<217.922 335.271> 467.997 97.0029<192.56 481.464>
LayerCount: 2
Fore
SplineSet
368 148 m 1
 348.66796875 119.333007812 321 105.005859375 285 105.005859375 c 0
 241.66796875 105.005859375 208 118.672851562 184 146.005859375 c 0
 160 173.338867188 148 214.005859375 148 268.005859375 c 0
 148 294.672851562 151 319.005859375 157 341.005859375 c 0
 163 363.672851562 171 383.005859375 181 399.005859375 c 0
 191.66796875 415.005859375 204 428.672851562 218 440.005859375 c 0
 243.333007812 460.005859375 273 470.005859375 307 470.005859375 c 0
 327.66796875 470.005859375 348 466.338867188 368 459.005859375 c 0
 385.333007812 452.338867188 399 443.005859375 409 431.005859375 c 0
 417 421.672851562 421 412.672851562 421 404.005859375 c 0
 421 399.338867188 419.66796875 394.338867188 417 389.005859375 c 0
 414.333007812 383.672851562 410.666015625 378.672851562 406 374.005859375 c 0
 401.33203125 369.338867188 396 366.005859375 390 364.005859375 c 0
 381.33203125 361.338867188 374.665039062 360.005859375 369.998046875 360.005859375 c 0
 361.998046875 360.005859375 352.33203125 361.338867188 340.998046875 364.005859375 c 0
 337.665039062 364.672851562 332.665039062 366.005859375 325.998046875 368.005859375 c 0
 318.665039062 369.338867188 311.665039062 369.671875 304.998046875 369.004882812 c 0
 298.33203125 368.337890625 291.6640625 366.004882812 284.997070312 362.004882812 c 0
 278.330078125 358.004882812 272.330078125 352.671875 266.997070312 346.004882812 c 0
 261.6640625 339.337890625 257.33203125 330.337890625 253.998046875 319.004882812 c 0
 250.665039062 307.671875 248.998046875 294.671875 248.998046875 280.004882812 c 0
 248.998046875 272.004882812 249.665039062 264.337890625 250.998046875 257.004882812 c 0
 251.665039062 249.671875 253.33203125 242.004882812 256 234.004882812 c 0
 261.33203125 218.004882812 270 210.004882812 282 210.004882812 c 0
 289.33203125 210.004882812 296 211.337890625 302 214.004882812 c 0
 308 216.671875 312.666015625 221.338867188 316 228.005859375 c 0
 324 242.672851562 328.666015625 268.005859375 330 304.005859375 c 0
 330.666015625 320.005859375 341.666015625 332.338867188 363 341.005859375 c 0
 374.2578125 345.74609375 384.462890625 348.116210938 393.614257812 348.116210938 c 0
 394.758789062 348.116210938 395.887695312 348.079101562 397 348.004882812 c 0
 405 348.004882812 412 347.004882812 418 345.004882812 c 0
 431.33203125 339.671875 438.33203125 330.004882812 439 316.004882812 c 0
 439 314.671875 438.666015625 313.338867188 438 312.005859375 c 0
 435.865234375 293.340820312 434.798828125 277.021484375 434.798828125 263.048828125 c 0
 434.798828125 259.5546875 434.865234375 256.20703125 435 253.005859375 c 0
 435 234.338867188 436.666015625 219.005859375 440 207.005859375 c 0
 441.33203125 202.338867188 442.665039062 199.005859375 443.998046875 197.005859375 c 0
 445.998046875 193.672851562 448.665039062 192.005859375 451.998046875 192.005859375 c 0
 453.33203125 193.338867188 454.6640625 195.338867188 455.997070312 198.005859375 c 0
 459.330078125 206.005859375 461.997070312 216.338867188 463.997070312 229.005859375 c 0
 466.6640625 253.005859375 467.997070312 275.005859375 467.997070312 295.005859375 c 0
 467.997070312 328.338867188 466.330078125 359.338867188 462.997070312 388.005859375 c 0
 460.330078125 416.005859375 456.6640625 440.005859375 451.99609375 460.005859375 c 0
 447.329101562 480.005859375 441.662109375 497.672851562 434.99609375 513.005859375 c 0
 427.662109375 529.005859375 421.329101562 541.672851562 415.99609375 551.005859375 c 0
 409.99609375 560.338867188 402.6640625 568.338867188 393.99609375 575.005859375 c 0
 385.329101562 581.672851562 377.99609375 586.672851562 371.99609375 590.005859375 c 0
 365.99609375 593.338867188 358.99609375 595.671875 350.99609375 597.004882812 c 0
 342.99609375 599.004882812 336.6640625 600.004882812 331.99609375 600.004882812 c 0
 327.99609375 600.004882812 322.6640625 600.337890625 315.99609375 601.004882812 c 0
 291.99609375 601.004882812 269.329101562 593.337890625 247.99609375 578.004882812 c 0
 226.6640625 562.671875 207.6640625 540.671875 190.99609375 512.004882812 c 0
 174.329101562 483.337890625 160.99609375 447.670898438 150.99609375 405.00390625 c 0
 140.99609375 362.336914062 135.99609375 315.336914062 135.99609375 264.00390625 c 0
 135.99609375 219.336914062 139.329101562 179.336914062 145.99609375 144.00390625 c 0
 152.6640625 108.670898438 161.330078125 80.337890625 171.997070312 59.0048828125 c 0
 182.6640625 37.671875 194.997070312 20.0048828125 208.997070312 6.0048828125 c 0
 222.997070312 -7.9951171875 236.6640625 -17.9951171875 249.997070312 -23.9951171875 c 0
 263.330078125 -29.328125 277.997070312 -31.9951171875 293.997070312 -31.9951171875 c 0
 309.997070312 -31.9951171875 324.6640625 -30.328125 337.997070312 -26.9951171875 c 0
 351.330078125 -23.662109375 362.330078125 -19.9951171875 370.997070312 -15.9951171875 c 0
 379.6640625 -11.9951171875 387.6640625 -6.328125 394.997070312 1.0048828125 c 0
 402.997070312 8.337890625 409.330078125 15.337890625 413.997070312 22.0048828125 c 0
 418.6640625 28.671875 423.997070312 36.671875 429.997070312 46.0048828125 c 0
 432.6640625 51.337890625 434.997070312 55.337890625 436.997070312 58.0048828125 c 0
 438.997070312 60.671875 441.6640625 64.0048828125 444.997070312 68.0048828125 c 0
 447.6640625 72.0048828125 450.33203125 75.337890625 452.998046875 78.0048828125 c 0
 455.665039062 80.0048828125 458.998046875 82.0048828125 462.998046875 84.0048828125 c 0
 466.998046875 86.0048828125 471.665039062 87.0048828125 476.998046875 87.0048828125 c 0
 481.665039062 87.0048828125 486.665039062 86.0048828125 491.998046875 84.0048828125 c 0
 498.665039062 81.337890625 504.33203125 78.0048828125 509 74.0048828125 c 0
 513.666015625 70.0048828125 517.333007812 65.0048828125 520 59.0048828125 c 0
 522.66796875 53.671875 523.66796875 48.0048828125 523 42.0048828125 c 0
 523 30.671875 520 17.0048828125 514 1.0048828125 c 0
 510 -8.9951171875 506.333007812 -17.662109375 503 -24.9951171875 c 0
 499 -32.328125 493.66796875 -41.328125 487 -51.9951171875 c 0
 480.333007812 -62.662109375 473 -71.9951171875 465 -79.9951171875 c 0
 457 -87.9951171875 447.333007812 -95.9951171875 436 -103.995117188 c 0
 424 -111.995117188 411 -118.995117188 397 -124.995117188 c 0
 383 -130.328125 367 -134.328125 349 -136.995117188 c 0
 331 -140.328125 312.333007812 -141.995117188 293 -141.995117188 c 2
 287 -141.995117188 l 2
 249.66796875 -141.995117188 215 -132.662109375 183 -113.995117188 c 0
 150.333007812 -95.328125 122.333007812 -69.9951171875 99 -37.9951171875 c 0
 75.6669921875 -5.9951171875 57.6669921875 33.0048828125 45 79.0048828125 c 0
 31.6669921875 125.004882812 25 174.671875 25 228.004882812 c 0
 25 287.337890625 29.6669921875 342.670898438 39 394.00390625 c 0
 48.3330078125 445.336914062 61.3330078125 490.669921875 78 530.002929688 c 0
 95.3330078125 568.669921875 115.666015625 602.002929688 139 630.002929688 c 0
 162.33203125 658.002929688 188.33203125 679.002929688 217 693.002929688 c 0
 245.666015625 707.002929688 276.333007812 714.3359375 309 715.002929688 c 0
 332.333007812 715.002929688 353.333007812 713.002929688 372 709.002929688 c 0
 391.333007812 705.669921875 410 699.669921875 428 691.002929688 c 0
 446 681.669921875 462 669.669921875 476 655.002929688 c 0
 490 640.3359375 502.66796875 622.002929688 514 600.002929688 c 0
 525.333007812 578.002929688 534.666015625 552.3359375 542 523.002929688 c 0
 557.33203125 461.669921875 565 385.002929688 565 293.002929688 c 0
 565 242.3359375 557.666015625 197.668945312 543 159.001953125 c 0
 535 138.334960938 523.33203125 121.66796875 508 109.000976562 c 0
 492.666015625 96.333984375 474.333007812 89.6669921875 453 89 c 0
 422.333007812 89 399 99.3330078125 383 120 c 0
 377 128 372 137.333007812 368 148 c 1
EndSplineSet
Validated: 524289
EndChar

StartChar: A
Encoding: 65 65 33
Width: 590
GlyphClass: 2
Flags: W
HStem: -5.99902 21G<54.999 62.999 522.668 528.668> 251.001 91.998<232.713 388.998>
LayerCount: 2
Fore
SplineSet
229.998046875 331.999023438 m 1
 287.998046875 337.999023438 340.998046875 341.666015625 388.998046875 342.999023438 c 1
 338.998046875 568.999023438 l 1
 310.331054688 520.33203125 273.998046875 441.33203125 229.998046875 331.999023438 c 1
118.002929688 49 m 0
 110.669921875 25 99.33203125 8.9990234375 83.9990234375 0.9990234375 c 0
 75.33203125 -3.66796875 66.9990234375 -5.9990234375 58.9990234375 -5.9990234375 c 0
 50.9990234375 -5.9990234375 43.33203125 -4.333984375 35.9990234375 -1.0009765625 c 0
 23.9990234375 4.33203125 15.33203125 12.6650390625 9.9990234375 23.998046875 c 0
 5.9990234375 32.6650390625 3.9990234375 42.1650390625 3.9990234375 52.498046875 c 0
 3.9990234375 62.8310546875 5.33203125 73.998046875 7.9990234375 85.998046875 c 0
 11.9990234375 106.665039062 30.33203125 154.665039062 62.9990234375 229.998046875 c 1
 53.666015625 238.665039062 48.3330078125 249.33203125 47 261.999023438 c 2
 47 263.999023438 l 2
 47 275.33203125 52.6669921875 285.999023438 64 295.999023438 c 0
 73.3330078125 304.666015625 85 311.333007812 99 316 c 1
 185 498.666992188 251.666992188 621 299 683 c 0
 310.333007812 697 321 707.333007812 331 714 c 0
 341 721.333007812 352.333007812 725 365 725 c 2
 373 725 l 2
 386.333007812 725 398.333007812 722 409 716 c 0
 423.666992188 708 432.666992188 695.333007812 436 678 c 0
 450.666992188 598 474.666992188 485 508 339 c 0
 526.666992188 257.666992188 541.333984375 197.833984375 552.000976562 159.500976562 c 0
 562.66796875 121.16796875 570.66796875 97.66796875 576.000976562 89.0009765625 c 0
 582.66796875 77.0009765625 586.000976562 65.66796875 586.000976562 55.0009765625 c 2
 586.000976562 49 l 2
 584.66796875 37 580.500976562 26.66796875 573.500976562 18.0009765625 c 0
 566.500976562 9.333984375 558.333984375 2.9990234375 549.000976562 -1.0009765625 c 0
 537.66796875 -4.333984375 530.334960938 -5.9990234375 527.001953125 -5.9990234375 c 0
 518.334960938 -5.9990234375 509.66796875 -3.66796875 501.000976562 0.9990234375 c 0
 485.66796875 8.9990234375 473.334960938 24.66796875 464.001953125 48.0009765625 c 0
 454.668945312 69.333984375 437.001953125 137.000976562 411.001953125 251.000976562 c 1
 327.668945312 247.66796875 252.3359375 241.000976562 185.002929688 231.000976562 c 1
 162.3359375 178.333984375 140.002929688 117.666992188 118.002929688 49 c 0
EndSplineSet
Validated: 524289
EndChar

StartChar: B
Encoding: 66 66 34
Width: 590
GlyphClass: 2
Flags: W
HStem: -23 21G<108.333 115.666> -9.65137 90.1543<200.37 240.727> 285.003 96.4492<152 343.74> 605.004 103.999<156.532 348>
VStem: 28 121<82.114 137.826 144.104 285.003 383.002 598.597> 403 119<431.807 557.715> 440 124<157.259 228.28>
LayerCount: 2
Fore
SplineSet
31 41 m 2xba
 32.3330078125 60.3330078125 33.3330078125 93.3369140625 34 140.00390625 c 0
 34 227.336914062 32 324.00390625 28 430.00390625 c 1
 26.6669921875 473.336914062 26 502.50390625 26 517.50390625 c 0
 26 532.50390625 26.5 552.50390625 27.5 577.50390625 c 0
 28.5 602.50390625 29 620.00390625 29 630.00390625 c 0
 29.6669921875 650.670898438 35.833984375 666.50390625 47.5009765625 677.50390625 c 0
 59.16796875 688.50390625 73.66796875 694.00390625 91.0009765625 694.00390625 c 2
 94.0009765625 694.00390625 l 1
 112 699.336914062 134.333984375 703.336914062 161 706.00390625 c 0
 171.66796875 707.336914062 183.16796875 708.169921875 195.5 708.502929688 c 0
 207.833984375 708.8359375 217.333984375 709.002929688 224 709.002929688 c 2
 246 709.002929688 l 1
 258 709.002929688 l 2
 309.333984375 709.002929688 355.333984375 700.669921875 396 684.002929688 c 0
 436 666.669921875 466.66796875 642.002929688 488 610.002929688 c 0
 510.66796875 576.669921875 522 537.669921875 522 493.002929688 c 0xbc
 522 455.002929688 512.66796875 422.002929688 494 394.002929688 c 0
 479.333984375 372.669921875 461 355.669921875 439 343.002929688 c 1
 453.66796875 336.3359375 468 328.668945312 482 320.001953125 c 0
 504.66796875 305.334960938 524 288.66796875 540 270.000976562 c 0
 556 251.333984375 564 233.000976562 564 215.000976562 c 2
 564 214.000976562 l 2
 564 188.000976562 557.16796875 162.333984375 543.5 137.000976562 c 0
 529.833984375 111.66796875 510.166992188 88.5009765625 484.5 67.5009765625 c 0
 458.83203125 46.5009765625 424.666015625 28.66796875 381.999023438 14.0009765625 c 0
 339.33203125 -0.666015625 292.33203125 -9.9990234375 240.999023438 -13.9990234375 c 1
 235.202148438 -11.1005859375 229.341796875 -9.6513671875 223.41796875 -9.6513671875 c 0x7a
 215.71875 -9.6513671875 207.912109375 -12.1005859375 199.999023438 -16.9990234375 c 1
 165.33203125 -19.666015625 143.999023438 -21.3330078125 135.999023438 -22 c 0
 127.33203125 -22.6669921875 119.33203125 -23 111.999023438 -23 c 0
 104.666015625 -23 97.3330078125 -22.3330078125 90 -21 c 2
 88 -21 l 2
 71.3330078125 -21 57.3330078125 -15.3330078125 46 -4 c 0
 36 6 31 19 31 35 c 2
 31 41 l 2xba
149 403.00390625 m 2
 149 383.001953125 l 1
 178.33203125 382.334960938 205 381.834960938 229 381.501953125 c 0
 231.3984375 381.46875 233.76171875 381.452148438 236.08984375 381.452148438 c 0
 257.0625 381.452148438 275.19921875 382.801757812 290.5 385.501953125 c 0
 307.5 388.501953125 321.666992188 392.334960938 333 397.001953125 c 0
 344.33203125 401.668945312 354.33203125 407.3359375 363 414.002929688 c 0
 371.666992188 420.669921875 378.333984375 427.336914062 383 434.00390625 c 0
 387.66796875 440.670898438 391.5 448.170898438 394.5 456.50390625 c 0
 397.5 464.836914062 399.66796875 472.336914062 401 479.00390625 c 0
 402.333984375 485.670898438 403 492.670898438 403 500.00390625 c 0
 403 514.670898438 399.66796875 528.170898438 393 540.50390625 c 0
 386.333984375 552.836914062 377.833984375 563.00390625 367.5 571.00390625 c 0
 357.16796875 579.00390625 345.334960938 585.670898438 332.001953125 591.00390625 c 0
 309.502929688 600.37890625 285.831054688 605.06640625 260.98828125 605.06640625 c 0
 259.331054688 605.06640625 257.66796875 605.045898438 256.001953125 605.00390625 c 0
 221.334960938 605.00390625 187.66796875 602.00390625 155 596.00390625 c 1
 154.333984375 584.00390625 153.666992188 566.00390625 153 542.00390625 c 0
 150.33203125 493.336914062 149 447.00390625 149 403.00390625 c 2
425.5 165.501953125 m 0
 435.166992188 177.834960938 440 189.004882812 440 199.004882812 c 0
 440 204.337890625 436.666992188 210.670898438 430 218.00390625 c 0
 423.33203125 225.336914062 412.666015625 233.169921875 397.999023438 241.502929688 c 0
 383.33203125 249.8359375 362.33203125 258.002929688 334.999023438 266.002929688 c 0
 307.666015625 274.002929688 276.33203125 280.3359375 241 285.002929688 c 1
 152 285.002929688 l 1
 154.666992188 193.002929688 157 124.669921875 159 80.0029296875 c 1
 166.33203125 80.0029296875 177 80.169921875 191 80.5029296875 c 0x7a
 205 80.8359375 217 81.3359375 227 82.0029296875 c 0
 259 83.3359375 289 88.3359375 317 97.0029296875 c 0
 345 105.669921875 367.666992188 116.169921875 385 128.502929688 c 0
 402.33203125 140.8359375 415.83203125 153.168945312 425.5 165.501953125 c 0
EndSplineSet
Validated: 524289
EndChar

StartChar: C
Encoding: 67 67 35
Width: 590
GlyphClass: 2
Flags: W
HStem: -30.998 114.001<207.458 387.021> 494.006 246.994<461.917 552.658> 608.006 104.995<323.245 449.259>
VStem: 13 123.999<159.984 372.712> 449 127<517.69 584.105>
LayerCount: 2
Fore
SplineSet
567.998046875 692 m 0xd8
 573.998046875 666 577 638.338867188 577 609.005859375 c 0
 577 589.005859375 576.666992188 577.005859375 576 573.005859375 c 0
 576 556.338867188 570 539.505859375 558 522.505859375 c 0
 546 505.505859375 533 496.338867188 519 495.005859375 c 0
 516.333984375 494.338867188 513.333984375 494.005859375 510 494.005859375 c 0xd8
 498 494.005859375 486 498.005859375 474 506.005859375 c 0
 457.333984375 516.672851562 449 531.005859375 449 549.005859375 c 0
 449 553.672851562 449.666992188 565.672851562 451 585.005859375 c 1
 441.666992188 591.005859375 435.666992188 594.672851562 433 596.005859375 c 0
 430.333984375 597.338867188 426.666015625 599.338867188 421.999023438 602.005859375 c 0
 413.33203125 606.005859375 404.666015625 608.005859375 395.998046875 608.005859375 c 0
 375.998046875 608.005859375 353.998046875 602.005859375 329.998046875 590.005859375 c 0
 305.998046875 578.005859375 282.666015625 560.505859375 259.998046875 537.505859375 c 0
 237.331054688 514.505859375 216.831054688 488.172851562 198.498046875 458.505859375 c 0
 180.166015625 428.838867188 165.33203125 395.171875 153.999023438 357.504882812 c 0
 142.666015625 319.837890625 136.999023438 282.004882812 136.999023438 244.004882812 c 0
 136.999023438 217.337890625 142.999023438 191.670898438 154.999023438 167.00390625 c 0
 166.999023438 142.336914062 183.499023438 122.169921875 204.499023438 106.502929688 c 0
 225.499023438 90.8359375 247.33203125 83.0029296875 269.999023438 83.0029296875 c 0
 292.666015625 83.0029296875 314.666015625 85.169921875 335.999023438 89.5029296875 c 0
 357.33203125 93.8359375 376.499023438 99.3359375 393.499023438 106.002929688 c 0
 410.499023438 112.669921875 425.166015625 119.502929688 437.499023438 126.502929688 c 0
 449.83203125 133.502929688 460.666015625 140.669921875 469.998046875 148.002929688 c 0
 479.331054688 154.669921875 487.6640625 159.669921875 494.998046875 163.002929688 c 0
 502.998046875 167.002929688 511.830078125 169.002929688 521.498046875 169.002929688 c 0
 531.1640625 169.002929688 540.331054688 166.002929688 548.998046875 160.002929688 c 0
 563.666015625 148.669921875 570.998046875 135.169921875 570.998046875 119.502929688 c 0
 570.998046875 103.8359375 562.666015625 86.6689453125 545.998046875 68.001953125 c 0
 487.998046875 2.001953125 395.331054688 -30.998046875 267.998046875 -30.998046875 c 2
 257.998046875 -30.998046875 l 2
 226.666015625 -30.998046875 197.33203125 -26.3310546875 169.999023438 -16.998046875 c 0
 142.666015625 -7.6650390625 119.666015625 5.16796875 100.999023438 21.5009765625 c 0
 82.33203125 37.833984375 66.33203125 56.333984375 53 77.0009765625 c 0
 39.666015625 97.66796875 29.666015625 119.500976562 23 142.500976562 c 0
 16.33203125 165.500976562 13 188.66796875 13 212.000976562 c 0
 13 260.000976562 18.166015625 306.500976562 28.5 351.500976562 c 0
 38.83203125 396.500976562 52.666015625 437.000976562 69.998046875 473.000976562 c 0
 87.33203125 509.000976562 107.6640625 542.333984375 130.998046875 573.000976562 c 0
 156.330078125 603.66796875 182.998046875 629.000976562 210.998046875 649.000976562 c 0
 238.998046875 669.000976562 268.330078125 684.66796875 298.998046875 696.000976562 c 0
 329.6640625 707.333984375 359.331054688 713.000976562 387.998046875 713.000976562 c 0xb8
 411.331054688 713.000976562 432.998046875 711.000976562 452.998046875 707.000976562 c 1
 456.998046875 714.333984375 461.998046875 720.666992188 467.998046875 726 c 0
 477.331054688 734 487.6640625 738.666992188 498.998046875 740 c 0
 503.6640625 740.666992188 506.331054688 741 506.998046875 741 c 2
 507.998046875 741 l 2
 518.666015625 741 529.666015625 737.666992188 540.998046875 731 c 0
 554.998046875 721.666992188 563.998046875 708.666992188 567.998046875 692 c 0xd8
EndSplineSet
Validated: 524289
EndChar

StartChar: D
Encoding: 68 68 36
Width: 590
GlyphClass: 2
Flags: W
HStem: -31 109.998<163.756 388.349> 694 20G<66.6353 86.6353>
VStem: 10.7031 121.477<109.381 166.726 194.179 614.997> 18.3027 125<100.593 519.491> 459.305 119.992<169.195 388.265>
LayerCount: 2
Fore
SplineSet
16.298828125 62 m 2xe8
 17.6318359375 84.6669921875 18.302734375 120.331054688 18.302734375 168.998046875 c 0xd8
 18.302734375 256.998046875 16.302734375 361.331054688 12.302734375 481.998046875 c 1
 11.6357421875 517.998046875 11.1357421875 541.831054688 10.802734375 553.498046875 c 0
 10.736328125 555.830078125 10.703125 558.401367188 10.703125 561.212890625 c 0
 10.703125 572.467773438 11.236328125 587.5625 12.302734375 606.499023438 c 0
 13.6357421875 630.166015625 14.302734375 644.666015625 14.302734375 649.999023438 c 1
 14.9697265625 670.666015625 20.9697265625 686.333007812 32.302734375 697 c 0
 43.6357421875 708.333007812 57.96875 714 75.3017578125 714 c 0
 97.96875 714 127.96875 710.666992188 165.301757812 704 c 0
 188.634765625 700 212.467773438 694.5 236.80078125 687.5 c 0
 261.133789062 680.5 287.466796875 670.666992188 315.799804688 658 c 0
 344.1328125 645.333007812 370.965820312 630.833007812 396.298828125 614.5 c 0
 421.631835938 598.166992188 445.96484375 577.333984375 469.297851562 552.000976562 c 0
 491.297851562 527.333984375 510.46484375 500.166992188 526.797851562 470.5 c 0
 543.130859375 440.833007812 555.963867188 405.833007812 565.296875 365.5 c 0
 574.629882812 325.166992188 579.296875 281.666992188 579.296875 235 c 0
 579.296875 211.666992188 575.963867188 187.666992188 569.296875 163 c 0
 562.629882812 138.333007812 552.629882812 114.666015625 539.296875 91.9990234375 c 0
 525.963867188 69.33203125 510.130859375 48.83203125 491.797851562 30.4990234375 c 0
 473.46484375 12.166015625 450.631835938 -2.6669921875 423.298828125 -14 c 0
 395.298828125 -25.3330078125 365.631835938 -31 334.298828125 -31 c 2
 324.298828125 -31 l 2
 291.631835938 -31 258.631835938 -29.5 225.298828125 -26.5 c 0
 191.965820312 -23.5 165.298828125 -20 145.298828125 -16 c 0
 125.298828125 -12 108.798828125 -8.3330078125 95.798828125 -5 c 0
 82.798828125 -1.6669921875 74.9658203125 0 72.298828125 0 c 0
 55.6318359375 0 41.6318359375 5.6669921875 30.298828125 17 c 0
 20.923828125 26.375 16.236328125 38.09375 16.236328125 52.1552734375 c 0
 16.236328125 53.0927734375 16.2568359375 54.041015625 16.298828125 55 c 2
 16.298828125 62 l 2xe8
227.802734375 85.9970703125 m 0
 258.135742188 81.330078125 293.3046875 78.998046875 333.3046875 78.998046875 c 0
 350.637695312 78.998046875 367.137695312 84.6650390625 382.8046875 95.998046875 c 0
 398.471679688 107.331054688 411.8046875 122.1640625 422.8046875 140.497070312 c 0
 433.8046875 158.830078125 442.637695312 179.330078125 449.3046875 201.997070312 c 0
 455.971679688 224.6640625 459.3046875 246.6640625 459.3046875 267.997070312 c 0
 459.3046875 388.6640625 405.971679688 480.997070312 299.3046875 544.997070312 c 0
 261.3046875 567.6640625 205.971679688 590.997070312 133.3046875 614.997070312 c 1
 132.5546875 584.499023438 132.1796875 553.485351562 132.1796875 521.955078125 c 0xe8
 132.1796875 469.401367188 133.221679688 415.416015625 135.3046875 359.997070312 c 0
 136.637695312 331.330078125 137.970703125 289.497070312 139.303710938 234.497070312 c 0
 140.63671875 179.497070312 141.969726562 137.330078125 143.302734375 107.997070312 c 1
 169.302734375 97.9970703125 197.469726562 90.6640625 227.802734375 85.9970703125 c 0
EndSplineSet
Validated: 524289
EndChar

StartChar: E
Encoding: 69 69 37
Width: 590
GlyphClass: 2
Flags: W
HStem: -20 112.001<150.549 494.752> -6 115<234.729 552.326> 301.002 108.999<145.799 419.434> 319.002 106<226.647 538.904> 590 107.999<150.994 554.505>
VStem: 22.7979 124.001<95.1892 301.002 410.001 581.907>
LayerCount: 2
Fore
SplineSet
89.796875 704 m 2x8c
 106.463867188 704 120.469726562 698.666015625 131.802734375 687.999023438 c 1
 189.135742188 694.666015625 262.799804688 697.999023438 352.799804688 697.999023438 c 0
 376.1328125 697.999023438 397.802734375 697.666015625 417.802734375 696.999023438 c 0
 459.135742188 695.666015625 491.46875 693.666015625 514.801757812 690.999023438 c 0
 533.46875 688.999023438 546.96875 683.83203125 555.301757812 675.499023438 c 0
 563.634765625 667.166015625 568.134765625 655.999023438 568.801757812 641.999023438 c 0
 568.801757812 634.666015625 567.96875 627.833007812 566.301757812 621.5 c 0
 564.634765625 615.166992188 562.134765625 609.333984375 558.801757812 604.000976562 c 0
 554.801757812 597.333984375 548.46875 592.333984375 539.801757812 589.000976562 c 0
 533.801757812 586.333984375 527.46875 585.000976562 520.801757812 585.000976562 c 0
 518.134765625 585.000976562 515.467773438 585.333984375 512.80078125 586.000976562 c 0
 474.470703125 588.778320312 434.521484375 590.166992188 392.952148438 590.166992188 c 0
 384.6328125 590.166992188 376.249023438 590.111328125 367.80078125 590 c 2
 313.80078125 590 l 2
 250.467773438 588.666992188 195.467773438 585.333984375 148.80078125 580.000976562 c 1
 146.133789062 522.000976562 144.80078125 465.333984375 144.80078125 410.000976562 c 1xac
 196.133789062 410.66796875 265.466796875 413.334960938 352.799804688 418.001953125 c 0
 438.799804688 422.668945312 487.131835938 425.001953125 497.798828125 425.001953125 c 0
 517.131835938 425.001953125 530.965820312 420.334960938 539.298828125 411.001953125 c 0
 547.631835938 401.668945312 551.798828125 390.001953125 551.798828125 376.001953125 c 0
 551.798828125 360.001953125 548.465820312 347.334960938 541.798828125 338.001953125 c 0
 532.465820312 326.001953125 517.798828125 319.668945312 497.798828125 319.001953125 c 0x1c
 485.798828125 319.001953125 434.131835938 316.334960938 342.798828125 311.001953125 c 0
 249.465820312 305.001953125 183.798828125 301.668945312 145.798828125 301.001953125 c 1
 146.465820312 284.334960938 146.798828125 268.16796875 146.798828125 252.500976562 c 2
 146.798828125 203.000976562 l 2
 147.465820312 158.333984375 148.798828125 127.333984375 150.798828125 110.000976562 c 0
 151.465820312 104.000976562 152.1328125 99.0009765625 152.799804688 95.0009765625 c 0
 166.1328125 93.0009765625 185.965820312 92.0009765625 212.298828125 92.0009765625 c 0xac
 238.631835938 92.0009765625 271.798828125 92.66796875 311.798828125 94.0009765625 c 0
 405.131835938 97.333984375 463.798828125 101.666992188 487.798828125 107 c 0
 497.798828125 108.333007812 506.965820312 109 515.298828125 109 c 0
 523.631835938 109 530.96484375 107.333007812 537.297851562 104 c 0
 543.630859375 100.666992188 548.797851562 97.1669921875 552.797851562 93.5 c 0
 556.797851562 89.8330078125 559.96484375 85.3330078125 562.297851562 80 c 0
 564.630859375 74.6669921875 566.297851562 70 567.297851562 66 c 0
 568.297851562 62 568.801757812 57.6669921875 568.801757812 53 c 0
 568.801757812 37 563.46484375 23 552.797851562 11 c 0
 542.797851562 -0.3330078125 528.797851562 -6.3330078125 510.797851562 -7 c 1
 505.46484375 1.6669921875 500.131835938 2 494.798828125 -6 c 1
 491.798828125 -6 l 2x4c
 476.465820312 -6 447.465820312 -7.3330078125 404.798828125 -10 c 0
 360.798828125 -12.6669921875 315.965820312 -15 270.298828125 -17 c 0
 224.631835938 -19 190.131835938 -20 166.798828125 -20 c 0
 144.131835938 -20 125.46484375 -19.3330078125 110.797851562 -18 c 0
 92.130859375 -16.6669921875 74.130859375 -8 56.7978515625 8 c 0
 39.46484375 24 29.46484375 43 26.7978515625 65 c 0
 24.7978515625 81 23.46484375 109 22.7978515625 149 c 0
 22.7978515625 185.666992188 23.130859375 222.5 23.7978515625 259.5 c 0
 24.46484375 296.5 24.7978515625 327.833007812 24.7978515625 353.5 c 0
 24.7978515625 379.166992188 24.130859375 415 22.7978515625 461 c 0
 22.130859375 499.666992188 21.630859375 525.5 21.2978515625 538.5 c 0
 21.2314453125 541.098632812 21.1982421875 543.916992188 21.1982421875 546.955078125 c 0
 21.1982421875 559.115234375 21.7314453125 574.796875 22.7978515625 594 c 0
 24.130859375 618 24.7978515625 633 24.7978515625 639 c 2
 24.7978515625 640 l 2
 25.46484375 660.666992188 31.46484375 676.5 42.7978515625 687.5 c 0
 54.130859375 698.5 68.4638671875 704 85.796875 704 c 2
 89.796875 704 l 2x8c
EndSplineSet
Validated: 524289
EndChar

StartChar: F
Encoding: 70 70 38
Width: 590
GlyphClass: 2
Flags: W
HStem: -22.002 21G<85.3325 93.6655> 313.498 106.502<145.999 502.152> 597 109.099<152.966 554.043> 695 20G<90.6665 99.6665>
VStem: 23 121.749<39.4946 142.728 166.745 310.581 416 589> 27 127.999<-3.56057 304.932>
LayerCount: 2
Fore
SplineSet
91 715 m 0xd8
 108.333007812 715 122.333007812 709.33203125 133 697.999023438 c 1
 210.397460938 703.3984375 285.905273438 706.098632812 359.522460938 706.098632812 c 0
 367.705078125 706.098632812 375.864257812 706.065429688 384 705.999023438 c 0
 437.333007812 705.999023438 481 704.666015625 515 701.999023438 c 0
 533.666992188 700.666015625 547.166992188 695.666015625 555.5 686.999023438 c 0
 563.833007812 678.33203125 568.333007812 666.999023438 569 652.999023438 c 2
 569 651.999023438 l 2
 569 636.666015625 564.166992188 623.333007812 554.5 612 c 0
 544.833007812 600.666992188 530.333007812 595 511 595 c 2
 509 595 l 2
 481.500976562 596.5 452.688476562 597.25 422.565429688 597.25 c 0
 412.522460938 597.25 402.333984375 597.166992188 392 597 c 0
 314.666992188 597 233.666992188 594.333007812 149 589 c 1
 148.333007812 579 147.666015625 563.666992188 146.999023438 543 c 0
 145.499023438 513.500976562 144.749023438 485.501953125 144.749023438 459.002929688 c 0xe8
 144.749023438 450.16796875 144.83203125 441.500976562 144.999023438 433 c 2
 144.999023438 416 l 1
 172.33203125 418.666992188 201.999023438 420 233.999023438 420 c 0
 242.666015625 420 251.333007812 419.666992188 260 419 c 0
 308 418.333007812 351.333007812 416.666015625 390 413.999023438 c 0
 429.333007812 411.33203125 458.833007812 408.165039062 478.5 404.498046875 c 0
 498.166992188 400.831054688 511.833984375 395.1640625 519.500976562 387.497070312 c 0
 527.16796875 379.830078125 531.66796875 369.330078125 533.000976562 355.997070312 c 0
 533.000976562 341.997070312 529.66796875 329.6640625 523.000976562 318.997070312 c 0
 518.333984375 312.330078125 511.666992188 307.330078125 503 303.997070312 c 0
 497 301.997070312 490.333007812 300.997070312 483 300.997070312 c 2
 476 300.997070312 l 2
 455.333007812 304.330078125 425.333007812 307.330078125 386 309.997070312 c 0
 348.662109375 312.368164062 310.270507812 313.553710938 270.825195312 313.553710938 c 0
 265.899414062 313.553710938 260.958007812 313.53515625 256 313.498046875 c 0
 211.333007812 313.165039062 174.666015625 311.665039062 145.999023438 308.998046875 c 1
 149.33203125 222.331054688 152.33203125 130.998046875 154.999023438 34.998046875 c 0
 152.999023438 16.998046875 144.33203125 2.998046875 128.999023438 -7.001953125 c 0
 115.666015625 -16.3349609375 101.33203125 -21.3349609375 85.9990234375 -22.001953125 c 0
 84.666015625 -22.001953125 83.6669921875 -21.6689453125 83 -21.001953125 c 0
 66.3330078125 -21.001953125 52.3330078125 -15.3349609375 41 -4.001953125 c 0
 31.625 5.373046875 26.9375 17.3837890625 26.9375 32.0322265625 c 0
 26.9375 33.0087890625 26.9580078125 33.998046875 27 34.998046875 c 2
 27 40.998046875 l 2xe4
 28.3330078125 61.6650390625 29 96.33203125 29 144.999023438 c 0
 29 236.999023438 27 338.999023438 23 450.999023438 c 0
 21.6669921875 494.33203125 21 523.499023438 21 538.499023438 c 0
 21 553.499023438 21.5 573.499023438 22.5 598.499023438 c 0
 23.5 623.499023438 24.3330078125 640.666015625 25 649.999023438 c 0
 25.6669921875 670.666015625 31.6669921875 686.333007812 43 697 c 0
 54.3330078125 708.333007812 68.666015625 714 85.9990234375 714 c 0
 88.666015625 714.666992188 90.3330078125 715 91 715 c 0xd8
EndSplineSet
Validated: 1
EndChar

StartChar: G
Encoding: 71 71 39
Width: 590
GlyphClass: 2
Flags: W
HStem: -30.9951 113.997<205.073 329.129> 619.005 104.999<322.592 460.141>
VStem: 11.002 123.998<160.189 376.151>
LayerCount: 2
Fore
SplineSet
338.99609375 -16 m 0
 312.329101562 -26 285.66796875 -30.9951171875 259.000976562 -30.9951171875 c 0
 226.333984375 -30.9951171875 196.000976562 -26.328125 168.000976562 -16.9951171875 c 0
 140.66796875 -7.662109375 117.8359375 5.1708984375 99.501953125 21.50390625 c 0
 81.169921875 37.8369140625 65.169921875 56.3369140625 51.501953125 77.00390625 c 0
 37.8359375 97.6708984375 27.66796875 119.50390625 21.001953125 142.50390625 c 0
 14.333984375 165.50390625 11.001953125 188.670898438 11.001953125 212.00390625 c 0
 11.001953125 260.670898438 16.16796875 308.00390625 26.501953125 354.00390625 c 0
 36.833984375 400.00390625 50.66796875 441.336914062 68 478.00390625 c 0
 85.333984375 514.670898438 105.666015625 548.670898438 129 580.00390625 c 0
 154.33203125 610.670898438 181.165039062 636.50390625 209.498046875 657.50390625 c 0
 237.83203125 678.50390625 266.998046875 694.670898438 296.998046875 706.00390625 c 0
 327.665039062 718.00390625 357.998046875 724.00390625 387.998046875 724.00390625 c 0
 417.998046875 724.00390625 451.665039062 717.336914062 488.998046875 704.00390625 c 0
 524.998046875 690.670898438 548.665039062 678.337890625 559.998046875 667.004882812 c 0
 571.998046875 655.004882812 578.33203125 640.671875 578.998046875 624.004882812 c 0
 578.998046875 616.004882812 577.33203125 607.337890625 573.998046875 598.004882812 c 0
 569.998046875 586.004882812 561.33203125 577.337890625 547.998046875 572.004882812 c 0
 541.33203125 569.337890625 534.6640625 568.004882812 527.997070312 568.004882812 c 0
 520.6640625 568.004882812 514.33203125 569.004882812 508.998046875 571.004882812 c 0
 503.665039062 573.004882812 493.665039062 578.337890625 478.998046875 587.004882812 c 0
 464.33203125 595.671875 449.33203125 603.171875 433.998046875 609.504882812 c 0
 418.665039062 615.837890625 405.33203125 619.004882812 394 619.004882812 c 0
 374 619.004882812 352 612.837890625 328 600.504882812 c 0
 304 588.171875 280.83203125 570.171875 258.5 546.504882812 c 0
 236.166015625 522.837890625 215.666015625 495.670898438 197 465.00390625 c 0
 178.33203125 434.336914062 163.33203125 399.669921875 152 361.002929688 c 0
 140.666015625 322.3359375 135 283.668945312 135 245.001953125 c 0
 135 218.334960938 141 192.501953125 153 167.501953125 c 0
 165 142.501953125 181.5 122.168945312 202.5 106.501953125 c 0
 223.5 90.8349609375 245.666015625 83.001953125 269 83.001953125 c 0
 284.33203125 83.001953125 300 87.501953125 316 96.501953125 c 0
 332 105.501953125 347 117.334960938 361 132.001953125 c 0
 375 146.668945312 388.33203125 163.3359375 401 182.002929688 c 0
 420.33203125 210.669921875 435.665039062 240.002929688 446.998046875 270.002929688 c 1
 408.33203125 268.002929688 369.33203125 264.502929688 329.998046875 259.502929688 c 0
 290.665039062 254.502929688 263.33203125 248.3359375 248 241.002929688 c 0
 240 237.002929688 232 235.002929688 224 235.002929688 c 0
 216 235.002929688 208 237.3359375 200 242.002929688 c 0
 185.33203125 250.002929688 176.665039062 261.3359375 173.998046875 276.002929688 c 0
 173.33203125 279.3359375 172.998046875 282.668945312 172.998046875 286.001953125 c 0
 172.998046875 300.001953125 178.665039062 312.668945312 189.998046875 324.001953125 c 0
 197.998046875 332.001953125 208.998046875 339.001953125 222.998046875 345.001953125 c 0
 244.998046875 355.001953125 290.33203125 362.334960938 358.998046875 367.001953125 c 0
 408.33203125 370.334960938 449.6640625 372.001953125 482.997070312 372.001953125 c 2
 515.997070312 372.001953125 l 2
 535.330078125 370.668945312 549.330078125 366.668945312 557.997070312 360.001953125 c 0
 569.330078125 351.334960938 574.997070312 337.66796875 574.997070312 319.000976562 c 0
 574.997070312 299.000976562 567.6640625 284.66796875 552.997070312 276.000976562 c 0
 552.997070312 274.000976562 552.330078125 270.000976562 550.997070312 264.000976562 c 0
 550.330078125 260.66796875 549.6640625 255.000976562 548.99609375 247.000976562 c 0
 545.6640625 218.333984375 532.330078125 181.666992188 508.997070312 137 c 0
 497.6640625 116.333007812 483.6640625 96 466.997070312 76 c 0
 449.6640625 56 430.6640625 38.1669921875 409.997070312 22.5 c 0
 389.330078125 6.8330078125 365.6640625 -6 338.99609375 -16 c 0
EndSplineSet
Validated: 524289
EndChar

StartChar: H
Encoding: 72 72 40
Width: 590
GlyphClass: 2
Flags: W
HStem: -21.999 21G<90.3345 98.6675 482.335 491.001> 312.001 86.0049<162.998 369.945> 694.003 20G<93.3315 112.998 485.667 505.334>
VStem: 38.499 122.499<-3.04591 184.934 189.06 312.001 398.006 696.499> 423.001 128<-5.04489 337.626> 430.999 124.335<44.0761 341.001 420.471 696.468>
LayerCount: 2
Fore
SplineSet
31.9990234375 33 m 2xf8
 31.9990234375 41.0048828125 l 2
 33.33203125 59.0048828125 33.9990234375 103.671875 33.9990234375 175.004882812 c 0
 33.9990234375 215.671875 34.83203125 265.171875 36.4990234375 323.504882812 c 0
 38.166015625 381.837890625 38.9990234375 416.837890625 38.9990234375 428.504882812 c 2
 38.9990234375 463.504882812 l 2
 38.9990234375 475.171875 38.83203125 494.671875 38.4990234375 522.004882812 c 0
 38.166015625 549.337890625 37.9990234375 567.504882812 37.9990234375 576.504882812 c 0
 37.9990234375 585.504882812 38.166015625 594.671875 38.4990234375 604.004882812 c 0
 38.83203125 613.337890625 38.9990234375 619.004882812 38.9990234375 621.004882812 c 0
 38.9990234375 623.004882812 39.166015625 625.671875 39.4990234375 629.004882812 c 0
 39.83203125 632.337890625 39.9990234375 635.504882812 39.9990234375 638.504882812 c 2
 39.9990234375 646.504882812 l 1
 39.9990234375 650.004882812 l 2
 40.666015625 670.671875 46.9990234375 686.3359375 58.9990234375 697.002929688 c 0
 70.33203125 708.3359375 84.6650390625 714.002929688 101.998046875 714.002929688 c 2
 104.998046875 714.002929688 l 2
 120.998046875 714.002929688 134.665039062 709.3359375 145.998046875 700.002929688 c 0
 159.331054688 689.3359375 166.331054688 673.005859375 166.998046875 651.005859375 c 0
 166.998046875 643.672851562 165.998046875 629.005859375 163.998046875 607.005859375 c 0
 161.998046875 585.005859375 160.998046875 565.172851562 160.998046875 547.505859375 c 0
 160.998046875 529.838867188 161.331054688 505.005859375 161.998046875 473.005859375 c 0
 162.665039062 441.005859375 162.998046875 416.005859375 162.998046875 398.005859375 c 1
 220.998046875 399.338867188 291.665039062 405.338867188 374.998046875 416.005859375 c 0
 399.665039062 419.338867188 418.333007812 421.671875 430.999023438 423.004882812 c 0
 430.999023438 425.671875 430.833007812 430.171875 430.499023438 436.504882812 c 0
 430.166015625 442.837890625 429.833007812 457.670898438 429.500976562 481.00390625 c 0
 429.166992188 504.336914062 429.000976562 522.50390625 429.000976562 535.50390625 c 0
 429.000976562 548.50390625 429.499023438 569.00390625 430.499023438 597.00390625 c 0
 431.499023438 625.00390625 432.333007812 642.00390625 433.000976562 648.00390625 c 0
 433.666992188 669.336914062 439.666992188 685.669921875 451.000976562 697.002929688 c 0
 463.000976562 708.3359375 477.333007812 714.002929688 494.000976562 714.002929688 c 2
 497.000976562 714.002929688 l 2
 513.666992188 714.002929688 527.666992188 709.3359375 539.000976562 700.002929688 c 0
 551.666992188 689.3359375 558.000976562 673.668945312 558.000976562 653.001953125 c 0
 558.000976562 640.334960938 557.666992188 615.001953125 557.000976562 577.001953125 c 0
 556.333007812 530.334960938 555.833007812 488.501953125 555.500976562 451.501953125 c 0
 555.388671875 439.180664062 555.333984375 427.709960938 555.333984375 417.088867188 c 0xf4
 555.333984375 395.815429688 555.555664062 377.954101562 556.000976562 363.501953125 c 0
 556.668945312 341.834960938 557.000976562 321.66796875 557.000976562 303.000976562 c 0
 557.000976562 266.333984375 556.000976562 219.500976562 554.000976562 162.500976562 c 0
 552.000976562 105.500976562 551.000976562 65.66796875 551.000976562 43.0009765625 c 2
 551.000976562 35.0009765625 l 2
 549.000976562 17.0009765625 541.000976562 3.0009765625 527.000976562 -6.9990234375 c 0
 513.668945312 -16.33203125 499.000976562 -21.33203125 483.000976562 -21.9990234375 c 0
 481.668945312 -21.9990234375 480.668945312 -21.666015625 480.000976562 -20.9990234375 c 0
 463.333984375 -20.9990234375 449.666992188 -15.33203125 439.000976562 -3.9990234375 c 0
 428.333007812 6.0009765625 423.000976562 19.333984375 423.000976562 36.0009765625 c 2
 423.000976562 43.0009765625 l 1
 429.666992188 127.000976562 433.000976562 220.333984375 433.000976562 323.000976562 c 2
 433.000976562 341.000976562 l 1
 411.000976562 339.000976562 368.500976562 333.833984375 305.500976562 325.500976562 c 0
 242.500976562 317.16796875 194.000976562 312.66796875 160.000976562 312.000976562 c 1
 160.000976562 303.000976562 l 2
 158.000976562 269.66796875 157.000976562 231.000976562 157.000976562 187.000976562 c 0
 157.000976562 143.000976562 158.000976562 92.66796875 160.000976562 36.0009765625 c 0
 158.000976562 17.333984375 149.333007812 3.0009765625 134.000976562 -6.9990234375 c 0
 120.666992188 -16.33203125 106.333984375 -21.33203125 91.0009765625 -21.9990234375 c 0
 89.66796875 -21.9990234375 88.66796875 -21.666015625 88.0009765625 -20.9990234375 c 0
 71.333984375 -20.9990234375 57.333984375 -15.33203125 46.0009765625 -3.9990234375 c 0
 36.66796875 5.333984375 31.9990234375 17.6669921875 31.9990234375 33 c 2xf8
EndSplineSet
Validated: 524289
EndChar

StartChar: I
Encoding: 73 73 41
Width: 590
GlyphClass: 2
Flags: W
HStem: -11.001 102.999<37.5044 216.312 360 420.94 424.959 511 514 556.104> -7.00098 98.999<360 511 514 556.104> 599.998 110.001<45.0194 230.002>
VStem: 224.002 135.998<92.998 192.728> 231.002 134.999<94.249 597.999>
LayerCount: 2
Fore
SplineSet
174 -12 m 1x70
 130 -13.3330078125 99.66796875 -14.001953125 83.0009765625 -14.001953125 c 0
 63.0009765625 -14.001953125 47.66796875 -9.6689453125 37.0009765625 -1.001953125 c 0
 25.66796875 7.6650390625 20.0009765625 18.998046875 20.0009765625 32.998046875 c 2
 20.0009765625 35.998046875 l 2
 20.0009765625 49.3310546875 24.833984375 60.998046875 34.5009765625 70.998046875 c 0
 44.16796875 80.998046875 59.3349609375 86.3310546875 80.001953125 86.998046875 c 0
 106.668945312 88.3310546875 154.668945312 89.6640625 224.001953125 90.9970703125 c 1x70
 228.668945312 160.330078125 231.001953125 232.330078125 231.001953125 306.997070312 c 0
 231.001953125 346.330078125 230.334960938 386.330078125 229.001953125 426.997070312 c 0
 227.668945312 455.6640625 227.001953125 486.6640625 227.001953125 519.997070312 c 2
 227.001953125 540.997070312 l 2
 227.001953125 547.6640625 227.501953125 557.831054688 228.501953125 571.498046875 c 0
 229.501953125 585.165039062 230.001953125 594.665039062 230.001953125 599.998046875 c 1
 191.334960938 600.665039062 162.66796875 600.998046875 144.000976562 600.998046875 c 0
 126.66796875 600.998046875 109.000976562 600.665039062 91.0009765625 599.998046875 c 2
 89.0009765625 599.998046875 l 2
 70.333984375 599.998046875 55.5009765625 604.665039062 44.5009765625 613.998046875 c 0
 33.5009765625 623.331054688 27.66796875 635.998046875 27.0009765625 651.998046875 c 2
 27.0009765625 653.998046875 l 2
 27.0009765625 667.998046875 32.16796875 680.331054688 42.5009765625 690.998046875 c 0
 52.833984375 701.665039062 68.333984375 707.33203125 89.0009765625 707.999023438 c 0
 146.333984375 709.33203125 201.333984375 709.999023438 254.000976562 709.999023438 c 0
 358.66796875 709.999023438 444.333007812 706.999023438 511 700.999023438 c 0
 526.333007812 699.666015625 538.66796875 695.333007812 548.000976562 688 c 0
 560.66796875 678.666992188 567.334960938 665.666992188 568.001953125 649 c 2
 568.001953125 648 l 2
 568.001953125 633.333007812 563.668945312 619.666015625 555.001953125 606.999023438 c 0
 550.334960938 599.666015625 543.66796875 593.999023438 535.000976562 589.999023438 c 0
 529.66796875 587.33203125 523.66796875 585.999023438 517.000976562 585.999023438 c 0
 513.66796875 585.999023438 509.66796875 586.666015625 505.000976562 587.999023438 c 0
 486.333984375 590.666015625 440.333984375 593.999023438 367.000976562 597.999023438 c 1
 367.000976562 590.666015625 366.333984375 577.333007812 365.000976562 558 c 0
 364.333984375 539.333007812 364.000976562 524.833007812 364.000976562 514.5 c 2
 364.000976562 484 l 2
 364.000976562 444.666992188 364.333984375 412.166992188 365.000976562 386.5 c 0
 365.66796875 360.833007812 366.000976562 334.666015625 366.000976562 307.999023438 c 0x68
 366.000976562 281.33203125 365.16796875 243.665039062 363.500976562 194.998046875 c 0
 361.833984375 146.331054688 360.666992188 112.331054688 360 92.998046875 c 1
 388 92.998046875 411 92.6650390625 429 91.998046875 c 2
 511 91.998046875 l 1xb0
 511 97.3310546875 511.333007812 97.3310546875 512 91.998046875 c 1
 512 97.3310546875 512.33203125 97.3310546875 512.999023438 91.998046875 c 1
 512.999023438 97.3310546875 513.333007812 97.3310546875 514 91.998046875 c 1x70
 514 97.3310546875 514.333007812 97.3310546875 515 91.998046875 c 1
 534.333007812 91.998046875 548.166015625 87.498046875 556.499023438 78.498046875 c 0
 564.83203125 69.498046875 569.33203125 58.3310546875 569.999023438 44.998046875 c 2
 569.999023438 43.9990234375 l 2
 569.999023438 37.33203125 569.334960938 30.9990234375 568.001953125 24.9990234375 c 0
 566.668945312 18.9990234375 564.333007812 12.9990234375 561 6.9990234375 c 0
 556.333007812 -0.333984375 549.666015625 -5.333984375 540.999023438 -8.0009765625 c 0
 535.666015625 -10.0009765625 530.666015625 -11.0009765625 525.999023438 -11.0009765625 c 2
 512.999023438 -11.0009765625 l 2xb0
 494.999023438 -8.333984375 464.999023438 -7.0009765625 422.999023438 -7.0009765625 c 0
 378.999023438 -7.0009765625 339.33203125 -7.333984375 303.999023438 -8.0009765625 c 1
 285.942382812 -5.22265625 267.88671875 -3.833984375 249.830078125 -3.833984375 c 0
 174 -12 l 1x70
EndSplineSet
Validated: 524289
EndChar

StartChar: J
Encoding: 74 74 42
Width: 590
GlyphClass: 2
Flags: W
HStem: -35 125.998<189.068 291.458> 599.998 110.002<49.5029 292 412.998 520.842>
VStem: 17.502 114.498<150.857 256.964> 291.75 121.248<425.658 596.001> 295 125.998<103.937 595.189>
LayerCount: 2
Fore
SplineSet
417.998046875 217 m 0xe8
 406.666015625 101 383.001953125 26.3330078125 347.001953125 -7 c 0
 327.66796875 -25.6669921875 304.66796875 -35 278.001953125 -35 c 0
 251.333984375 -35 225.501953125 -30.6669921875 200.501953125 -22 c 0
 175.501953125 -13.3330078125 154.001953125 -2.3330078125 136.001953125 11 c 0
 118.66796875 25 102.834960938 40.1669921875 88.501953125 56.5 c 0
 74.169921875 72.8330078125 62.169921875 89 52.501953125 105 c 0
 42.8359375 121 35.16796875 135.666992188 29.501953125 149 c 0
 23.833984375 162.333007812 20.333984375 173 19.001953125 181 c 0
 17.001953125 188.333007812 16.501953125 196.5 17.501953125 205.5 c 0
 18.501953125 214.5 20.001953125 223 22.001953125 231 c 0
 24.66796875 240.333007812 30.001953125 248.666015625 38.001953125 255.999023438 c 0
 46.001953125 263.33203125 56.333984375 267.999023438 69.001953125 269.999023438 c 0
 73.001953125 270.666015625 77.001953125 270.999023438 81.001953125 270.999023438 c 0
 94.333984375 270.999023438 105.666992188 266.999023438 115 258.999023438 c 0
 126.333984375 248.33203125 132 234.665039062 132 217.998046875 c 0
 132 201.998046875 137.333984375 182.998046875 148 160.998046875 c 0
 154.666992188 148.331054688 162.666992188 136.998046875 172 126.998046875 c 0
 181.333984375 116.998046875 194 108.498046875 210 101.498046875 c 0
 226 94.498046875 244 90.998046875 264 90.998046875 c 0
 264.666992188 90.998046875 265.333984375 91.3310546875 266.001953125 91.998046875 c 0
 270.66796875 95.3310546875 275.001953125 102.998046875 279.001953125 114.998046875 c 0
 288.333984375 143.665039062 293.666992188 186.998046875 295 244.998046875 c 2
 295 246.998046875 l 1
 295 267.498046875 l 2xe8
 295 279.831054688 294.666992188 312.998046875 294 366.998046875 c 0
 292.5 426.99609375 291.75 485.682617188 291.75 543.055664062 c 0
 291.75 562.182617188 291.833984375 581.163085938 292 599.998046875 c 1
 254.333984375 600.998046875 219.083984375 601.498046875 186.25 601.498046875 c 0
 153.416992188 601.498046875 123 600.998046875 95 599.998046875 c 2
 93 599.998046875 l 2
 74.333984375 599.998046875 59.666015625 604.665039062 49 613.998046875 c 0
 38.33203125 623.331054688 32.666015625 635.998046875 31.998046875 651.998046875 c 0
 31.998046875 652.665039062 31.666015625 653.33203125 30.998046875 653.999023438 c 0
 30.998046875 667.999023438 36.33203125 680.33203125 46.998046875 690.999023438 c 0
 57.666015625 701.666015625 73.33203125 707.333007812 94 708 c 0
 151.999023438 709.333007812 206.999023438 710 258.999023438 710 c 0
 362.999023438 710 448.33203125 707 514.999023438 701 c 0
 530.33203125 699.666992188 542.666015625 695.333984375 551.998046875 688.000976562 c 0
 564.666015625 678.66796875 571.666015625 665.334960938 572.998046875 648.001953125 c 0
 572.998046875 633.334960938 568.666015625 619.66796875 559.998046875 607.000976562 c 0
 555.331054688 599.66796875 548.331054688 594.000976562 538.998046875 590.000976562 c 0
 533.666015625 587.333984375 527.666015625 586.000976562 520.998046875 586.000976562 c 0
 517.666015625 586.000976562 513.998046875 586.66796875 509.998046875 588.000976562 c 0
 489.331054688 591.333984375 456.998046875 594.000976562 412.998046875 596.000976562 c 1xf0
 412.998046875 579.333984375 415.331054688 521.000976562 419.998046875 421.000976562 c 0
 421.064453125 399.131835938 421.59765625 380.036132812 421.59765625 363.713867188 c 0
 421.59765625 359.63671875 421.564453125 355.732421875 421.498046875 352.000976562 c 0
 421.166015625 333.333984375 420.998046875 321.666992188 420.998046875 317 c 0
 420.998046875 275 419.998046875 241.666992188 417.998046875 217 c 0xe8
EndSplineSet
Validated: 524289
EndChar

StartChar: K
Encoding: 75 75 43
Width: 590
GlyphClass: 2
Flags: W
HStem: -22 21G<87.2329 95.8994 511.054 513.903> 694.065 20G<76.5693 85.0356 475.566 480.233>
VStem: 30.9004 116.999<107.028 271.001 452.999 540.271 541.723 700.529>
LayerCount: 2
Fore
SplineSet
87.8994140625 -22 m 0
 86.56640625 -22 85.234375 -21.666015625 83.9013671875 -20.9990234375 c 0
 67.234375 -20.9990234375 53.5673828125 -16.666015625 42.900390625 -7.9990234375 c 0
 32.900390625 0.0009765625 27.900390625 10.66796875 27.900390625 24.0009765625 c 0
 27.900390625 26.66796875 28.2333984375 29.3349609375 28.900390625 32.001953125 c 0
 30.2333984375 53.3349609375 30.900390625 88.66796875 30.900390625 138.000976562 c 0
 30.900390625 233.333984375 28.900390625 338.666992188 24.900390625 454 c 0
 23.5673828125 496.666992188 22.900390625 525.666992188 22.900390625 541 c 0
 22.900390625 556.333007812 23.5673828125 578 24.900390625 606 c 0
 26.2333984375 634.666992188 26.900390625 652.666992188 26.900390625 660 c 1
 27.5673828125 677.333007812 33.5673828125 691 44.900390625 701 c 0
 55.4775390625 709.7109375 68.66796875 714.065429688 84.470703125 714.065429688 c 0
 85.6005859375 714.065429688 86.7431640625 714.043945312 87.8994140625 713.999023438 c 2
 90.8994140625 713.999023438 l 2
 106.899414062 713.999023438 120.899414062 710.33203125 132.899414062 702.999023438 c 0
 145.59765625 694.745117188 151.946289062 682.258789062 151.946289062 665.540039062 c 0
 151.946289062 651.19921875 151.309570312 618.120117188 149.8984375 567.999023438 c 0
 148.565429688 521.33203125 147.565429688 482.999023438 146.8984375 452.999023438 c 1
 171.565429688 472.999023438 206.8984375 501.666015625 252.8984375 538.999023438 c 0
 351.565429688 627.666015625 409.8984375 679.333007812 427.8984375 694 c 0
 439.231445312 702.666992188 450.231445312 708.666992188 460.8984375 712 c 0
 467.565429688 714 473.232421875 715 477.899414062 715 c 0
 482.56640625 715 486.899414062 714.666992188 490.899414062 714 c 0
 499.56640625 712 507.233398438 708 513.900390625 702 c 0
 523.233398438 694 527.900390625 685.333007812 527.900390625 676 c 0
 527.900390625 658 520.567382812 638.666992188 505.900390625 618 c 0
 495.900390625 605.333007812 459.900390625 569 397.900390625 509 c 1
 333.900390625 453 277.567382812 404.333007812 228.900390625 363 c 1
 254.233398438 339 294.56640625 303.333007812 349.899414062 256 c 0
 405.232421875 211.333007812 453.232421875 171 493.899414062 135 c 0
 516.56640625 113 533.233398438 95.6669921875 543.900390625 83 c 0
 555.233398438 67.6669921875 561.900390625 57 563.900390625 51 c 0
 566.567382812 42.3330078125 567.567382812 34 566.900390625 26 c 0
 566.900390625 20.6669921875 565.900390625 15.333984375 563.900390625 10.0009765625 c 0
 559.233398438 0.66796875 551.56640625 -6.6650390625 540.899414062 -11.998046875 c 0
 526.354492188 -18.05859375 516.493164062 -21.0888671875 511.313476562 -21.0888671875 c 0
 510.794921875 -21.0888671875 510.32421875 -21.05859375 509.899414062 -20.998046875 c 2
 508.899414062 -20.998046875 l 2
 490.899414062 -20.998046875 473.899414062 -12.6650390625 457.899414062 4.001953125 c 0
 451.232421875 12.001953125 425.899414062 35.001953125 381.899414062 73.001953125 c 0
 337.899414062 110.334960938 289.899414062 151.66796875 237.899414062 197.000976562 c 0
 200.56640625 226.333984375 170.56640625 251.000976562 147.899414062 271.000976562 c 1
 156.899414062 25.0009765625 l 2
 154.899414062 10.333984375 146.232421875 -1.3330078125 130.899414062 -10 c 0
 118.232421875 -18 103.899414062 -22 87.8994140625 -22 c 0
EndSplineSet
Validated: 524289
EndChar

StartChar: L
Encoding: 76 76 44
Width: 590
GlyphClass: 2
Flags: W
HStem: -14.999 116.996<151.044 152.029 153.029 435.668>
VStem: 23.0312 127.997<95.9971 265.875> 52.3652 118.668<163.162 688.982>
LayerCount: 2
Fore
SplineSet
158.033203125 209 m 0xa0
 154.033203125 161 151.6953125 123.330078125 151.028320312 95.9970703125 c 1
 151.361328125 99.9970703125 151.6953125 101.997070312 152.029296875 101.997070312 c 0
 153.029296875 95.9970703125 l 1
 210.361328125 95.9970703125 277.361328125 99.330078125 354.029296875 105.997070312 c 0
 429.361328125 112.6640625 479.029296875 119.331054688 503.029296875 125.998046875 c 0
 506.763671875 127.064453125 510.498046875 127.59765625 514.231445312 127.59765625 c 0
 517.029296875 127.498046875 l 0
 521.697265625 127.165039062 526.364257812 125.998046875 531.03125 123.998046875 c 0
 539.697265625 120.665039062 547.03125 115.33203125 553.03125 107.999023438 c 0
 557.697265625 101.33203125 561.03125 94.33203125 563.03125 86.9990234375 c 0
 565.697265625 78.9990234375 567.03125 71.9990234375 567.03125 65.9990234375 c 0
 567.03125 50.666015625 563.03125 38.3330078125 555.03125 29 c 0
 547.03125 19.6669921875 533.364257812 13.333984375 514.03125 10.0009765625 c 0
 468.03125 1.333984375 394.864257812 -4.9990234375 294.53125 -8.9990234375 c 0
 194.197265625 -12.9990234375 122.365234375 -14.9990234375 79.03125 -14.9990234375 c 0
 62.365234375 -14.9990234375 48.365234375 -9.33203125 37.03125 2.0009765625 c 0
 27.65625 11.3759765625 22.96875 23.38671875 22.96875 38.03515625 c 0
 22.96875 39.01171875 22.990234375 40.0009765625 23.03125 41.0009765625 c 2
 23.03125 50.0009765625 l 2xc0
 23.03125 54.0009765625 26.865234375 90.333984375 34.53125 159.000976562 c 0
 42.19921875 227.66796875 47.69921875 293.66796875 51.03125 357.000976562 c 0
 51.919921875 369.88671875 52.365234375 384.697265625 52.365234375 401.432617188 c 0
 52.365234375 409.806640625 52.25390625 418.663085938 52.03125 428.000976562 c 0
 52.03125 452.66796875 51.36328125 523.66796875 50.03125 641.000976562 c 2
 50.03125 642.000976562 l 2
 50.697265625 662.66796875 56.865234375 678.500976562 68.53125 689.500976562 c 0
 80.19921875 700.500976562 94.365234375 706.000976562 111.033203125 706.000976562 c 2
 114.033203125 706.000976562 l 2
 130.033203125 706.000976562 144.365234375 701.333984375 157.033203125 692.000976562 c 0
 170.396484375 681.819335938 177.079101562 667.081054688 177.079101562 647.788085938 c 0
 177.079101562 647 177.068359375 618.723632812 176.033203125 569 c 0
 174.700195312 525.666992188 173.033203125 485 171.033203125 447 c 0
 169.033203125 405 167.365234375 363 166.033203125 321 c 0
 164.700195312 294.333007812 162.033203125 257 158.033203125 209 c 0xa0
EndSplineSet
Validated: 524289
EndChar

StartChar: M
Encoding: 77 77 45
Width: 590
GlyphClass: 2
Flags: W
HStem: -10.001 21G<49.3315 62.3315 278.002 309.002>
VStem: 4.99805 108<16.5645 315.532>
LayerCount: 2
Fore
SplineSet
112.998046875 63.9990234375 m 2
 112.998046875 52.9990234375 l 2
 112.998046875 34.9990234375 107.666015625 19.9990234375 96.998046875 7.9990234375 c 0
 84.998046875 -4.0009765625 70.6650390625 -10.0009765625 53.998046875 -10.0009765625 c 2
 52.998046875 -10.0009765625 l 2
 45.6650390625 -10.0009765625 38.998046875 -8.66796875 32.998046875 -6.0009765625 c 0
 24.3310546875 -2.0009765625 17.3310546875 5.33203125 11.998046875 15.9990234375 c 0
 7.3310546875 27.9990234375 4.998046875 43.9990234375 4.998046875 63.9990234375 c 0
 4.998046875 72.666015625 5.998046875 86.9990234375 7.998046875 106.999023438 c 0
 9.998046875 126.33203125 12.3310546875 151.999023438 14.998046875 183.999023438 c 0
 18.3310546875 217.999023438 21.998046875 258.33203125 25.998046875 304.999023438 c 0
 29.998046875 352.33203125 32.998046875 389.665039062 34.998046875 416.998046875 c 0
 43.6650390625 512.998046875 51.33203125 579.331054688 57.9990234375 615.998046875 c 0
 62.666015625 639.331054688 67.666015625 655.6640625 72.9990234375 664.997070312 c 0
 80.9990234375 678.997070312 93.33203125 689.330078125 109.999023438 695.997070312 c 0
 123.999023438 701.330078125 137.999023438 703.998046875 151.999023438 703.998046875 c 2
 157.999023438 703.998046875 l 2
 174.666015625 703.998046875 188.333984375 701.6640625 199 696.997070312 c 0
 213.666992188 690.997070312 223.666992188 680.997070312 229 666.997070312 c 0
 237.666992188 637.6640625 247 589.331054688 257 521.998046875 c 0
 267 454.665039062 277.666992188 377.665039062 289 290.998046875 c 0
 291.666992188 271.665039062 293.666992188 254.33203125 295 238.999023438 c 1
 299.666992188 286.999023438 304.333984375 331.666015625 309.001953125 372.999023438 c 0
 315.66796875 428.33203125 324.66796875 483.665039062 336.001953125 538.998046875 c 0
 347.333984375 594.331054688 357.001953125 636.997070312 365.001953125 666.997070312 c 0
 368.333984375 676.997070312 376.001953125 685.331054688 388.001953125 691.998046875 c 0
 398.66796875 697.998046875 410.001953125 701.665039062 422.001953125 702.998046875 c 0
 429.333984375 704.331054688 435.501953125 704.831054688 440.501953125 704.498046875 c 0
 445.501953125 704.165039062 449.66796875 703.998046875 453.001953125 703.998046875 c 2
 456.001953125 703.998046875 l 1
 471.501953125 703.998046875 l 2
 475.833984375 703.998046875 481.666992188 702.998046875 489 700.998046875 c 0
 496.333984375 699.665039062 502.5 697.665039062 507.5 694.998046875 c 0
 512.5 692.331054688 517.333984375 688.331054688 522 682.998046875 c 0
 526.666992188 676.998046875 529.666992188 669.998046875 531 661.998046875 c 0
 533.666992188 641.998046875 541.333984375 544.998046875 554.001953125 370.998046875 c 0
 566.66796875 197.665039062 575.66796875 99.6650390625 581.001953125 76.998046875 c 0
 583.66796875 63.6650390625 585.001953125 51.33203125 585.001953125 39.9990234375 c 0
 585.001953125 30.666015625 583.001953125 22.666015625 579.001953125 15.9990234375 c 0
 573.66796875 6.666015625 564.66796875 -0.0009765625 552.001953125 -4.0009765625 c 0
 544.66796875 -6.0009765625 537.001953125 -7.16796875 529.001953125 -7.5009765625 c 0
 521.001953125 -7.833984375 512.66796875 -6.0009765625 504.001953125 -2.0009765625 c 0
 488.66796875 4.666015625 477.334960938 18.3330078125 470.001953125 39 c 0
 456.669921875 79 444.669921875 234 434.001953125 504 c 1
 425.334960938 452.666992188 419.334960938 404 416.001953125 358 c 0
 409.334960938 282 400.334960938 210 389.001953125 142 c 0
 377.669921875 74 368.669921875 32.3330078125 362.001953125 17 c 0
 352.001953125 1 328.001953125 -7 290.001953125 -7 c 2
 285.001953125 -7 l 2
 271.001953125 -7 258.669921875 -5 248.001953125 -1 c 0
 235.334960938 3.6669921875 227.334960938 10.333984375 224.001953125 19.0009765625 c 0
 215.334960938 51.0009765625 201.001953125 124.000976562 181.001953125 238.000976562 c 0
 167.669921875 316.000976562 155.001953125 391.66796875 143.001953125 465.000976562 c 1
 141.669921875 451.66796875 140.001953125 427.66796875 138.001953125 393.000976562 c 2
 134.001953125 340.000976562 l 1
 128.001953125 253.000976562 l 2
 126.001953125 225.66796875 123.669921875 197.000976562 121.001953125 167.000976562 c 0
 119.001953125 144.333984375 116.669921875 120.666992188 114.001953125 96 c 0
 113.334960938 82 112.998046875 71.33203125 112.998046875 63.9990234375 c 2
EndSplineSet
Validated: 524289
EndChar

StartChar: N
Encoding: 78 78 46
Width: 590
GlyphClass: 2
Flags: W
HStem: -11.998 21G<65.1675 83.501 469.167 497.167>
VStem: 24.501 108<6.53685 180.455> 32.501 107<79.7041 486> 458.834 106.665<187.325 656.813>
LayerCount: 2
Fore
SplineSet
137.500976562 486 m 1xb0
 138.833984375 456 139.500976562 431.002929688 139.500976562 411.002929688 c 0xb0
 139.500976562 389.669921875 139.16796875 359.669921875 138.500976562 321.002929688 c 0
 137.833984375 283.669921875 136.833984375 237.669921875 135.500976562 183.002929688 c 0
 133.500976562 128.3359375 132.500976562 93.6689453125 132.500976562 79.001953125 c 2
 132.500976562 52.001953125 l 1
 132.500976562 44.001953125 l 2
 132.500976562 26.001953125 127.16796875 12.001953125 116.500976562 2.001953125 c 0
 105.16796875 -7.3310546875 91.5009765625 -11.998046875 75.5009765625 -11.998046875 c 0
 54.833984375 -11.998046875 40.833984375 -5.998046875 33.5009765625 6.001953125 c 0
 27.5009765625 17.3349609375 24.5009765625 33.66796875 24.5009765625 55.0009765625 c 0xd0
 24.5009765625 68.333984375 25.5009765625 120.000976562 27.5009765625 210.000976562 c 0
 30.833984375 348.66796875 32.5009765625 444.000976562 32.5009765625 496.000976562 c 0
 32.5009765625 547.333984375 31.833984375 594.666992188 30.5009765625 638 c 2
 30.5009765625 647 l 2
 30.5009765625 657 32.16796875 666 35.5009765625 674 c 0
 40.833984375 683.333007812 48.1669921875 690 57.5 694 c 0
 70.8330078125 701.333007812 85.8330078125 705 102.5 705 c 0
 105.833007812 705 109.5 704.666992188 113.5 704 c 0
 128.166992188 704 140.833984375 701.666992188 151.500976562 697 c 0
 166.16796875 691 176.500976562 681 182.500976562 667 c 0
 197.833984375 624.333007812 239.500976562 545.333007812 307.500976562 430 c 0
 365.500976562 332.666992188 415.500976562 251.333984375 457.500976562 186.000976562 c 1
 458.389648438 224.213867188 458.833984375 270.274414062 458.833984375 324.18359375 c 0
 458.833984375 351.158203125 458.72265625 380.096679688 458.5 411.000976562 c 0
 457.166992188 529.000976562 454.166992188 607.000976562 449.5 645.000976562 c 0
 448.833007812 649.000976562 448.5 653.000976562 448.5 657.000976562 c 0
 448.5 669.000976562 452.833007812 679.66796875 461.5 689.000976562 c 0
 472.166992188 699.66796875 486.166992188 705.000976562 503.5 705.000976562 c 0
 519.5 705.000976562 532.5 702.333984375 542.5 697.000976562 c 0
 547.833007812 694.333984375 551.5 690.333984375 553.5 685.000976562 c 0
 555.5 679.66796875 557.166992188 675.000976562 558.5 671.000976562 c 0
 559.833007812 666.333984375 561.166015625 659.333984375 562.499023438 650.000976562 c 0
 564.499023438 638.66796875 565.499023438 585.334960938 565.499023438 490.001953125 c 2
 565.499023438 448.001953125 l 2
 565.499023438 364.668945312 564.499023438 278.668945312 562.499023438 190.001953125 c 0
 561.166015625 132.668945312 558.833007812 90.001953125 555.5 62.001953125 c 0
 552.833007812 35.3349609375 549.833007812 18.3349609375 546.5 11.001953125 c 0
 537.166992188 -4.998046875 514.833984375 -13.3310546875 479.500976562 -13.998046875 c 2
 475.500976562 -13.998046875 l 2
 462.833984375 -13.998046875 451.500976562 -11.6650390625 441.500976562 -6.998046875 c 0
 429.500976562 -1.6650390625 421.500976562 5.001953125 417.500976562 13.001953125 c 0
 410.833984375 26.3349609375 393.500976562 55.66796875 365.500976562 101.000976562 c 0
 336.16796875 148.333984375 307.16796875 193.666992188 278.500976562 237 c 0
 248.500976562 286.333007812 216.833984375 341.333007812 183.500976562 402 c 0
 165.500976562 432 150.16796875 460 137.500976562 486 c 1xb0
EndSplineSet
Validated: 524289
EndChar

StartChar: O
Encoding: 79 79 47
Width: 590
GlyphClass: 2
Flags: W
HStem: -23.9951 108<200.601 353.091> 612.006 105.995<235.497 377.922>
VStem: 25.9688 121<154.456 486.5> 443.969 120.062<178.33 537.54>
LayerCount: 2
Fore
SplineSet
216.96875 94.005859375 m 0
 228.96875 87.3388671875 242.635742188 84.0048828125 257.96875 84.0048828125 c 0
 295.96875 84.0048828125 329.635742188 92.337890625 358.96875 109.004882812 c 0
 374.30078125 117.004882812 387.96875 128.171875 399.96875 142.504882812 c 0
 411.96875 156.837890625 421.30078125 173.337890625 427.96875 192.004882812 c 0
 430.635742188 199.337890625 433.46875 217.837890625 436.46875 247.504882812 c 0
 439.46875 277.171875 441.96875 312.671875 443.96875 354.004882812 c 0
 444.302734375 360.004882812 444.46875 366.004882812 444.46875 372.004882812 c 0
 444.46875 378.004882812 444.302734375 384.004882812 443.96875 390.004882812 c 0
 443.96875 418.671875 442.635742188 447.338867188 439.96875 476.005859375 c 0
 435.96875 515.338867188 421.635742188 548.005859375 396.96875 574.005859375 c 0
 372.96875 599.338867188 343.46875 612.005859375 308.46875 612.005859375 c 0
 273.46875 612.005859375 243.96875 600.672851562 219.96875 578.005859375 c 0
 195.30078125 554.005859375 177.30078125 520.672851562 165.96875 478.005859375 c 0
 153.30078125 430.005859375 146.96875 375.005859375 146.96875 313.005859375 c 0
 146.96875 274.338867188 148.96875 240.338867188 152.96875 211.005859375 c 0
 155.635742188 194.338867188 159.96875 177.838867188 165.96875 161.505859375 c 0
 171.96875 145.172851562 178.96875 131.505859375 186.96875 120.505859375 c 0
 194.96875 109.505859375 204.96875 100.672851562 216.96875 94.005859375 c 0
558.96875 480 m 0
 562.34375 438.375 564.03125 397.172851562 564.03125 356.392578125 c 0
 564.03125 324.67578125 563.010742188 293.213867188 560.96875 262.005859375 c 0
 558.30078125 222.672851562 553.634765625 192.33984375 546.967773438 171.006835938 c 0
 538.30078125 139.673828125 527.30078125 112.673828125 513.967773438 90.0068359375 c 0
 500.634765625 67.33984375 485.80078125 48.6728515625 469.46875 34.005859375 c 0
 453.135742188 19.3388671875 433.302734375 7.671875 409.96875 -0.9951171875 c 0
 386.63671875 -9.662109375 363.13671875 -15.662109375 339.46875 -18.9951171875 c 0
 315.802734375 -22.328125 288.635742188 -23.9951171875 257.96875 -23.9951171875 c 0
 210.635742188 -23.328125 168.302734375 -10.6611328125 130.96875 14.005859375 c 0
 96.302734375 39.3388671875 69.96875 72.671875 51.96875 114.004882812 c 0
 34.63671875 154.004882812 25.96875 197.337890625 25.96875 244.004882812 c 2
 25.96875 249.004882812 l 1
 25.96875 266.004882812 l 2
 25.96875 295.337890625 26.13671875 318.670898438 26.46875 336.00390625 c 0
 26.802734375 353.336914062 27.96875 376.669921875 29.96875 406.002929688 c 0
 33.96875 463.3359375 45.63671875 516.668945312 64.96875 566.001953125 c 1
 64.96875 567.000976562 l 1
 82.96875 611.66796875 114.302734375 648.000976562 158.96875 676.000976562 c 0
 206.96875 704.000976562 261.302734375 718.000976562 321.96875 718.000976562 c 0
 352.63671875 718.000976562 381.96875 712.333984375 409.96875 701.000976562 c 0
 437.96875 690.333984375 462.302734375 675.166992188 482.96875 655.5 c 0
 503.63671875 635.833007812 520.63671875 611 533.96875 581 c 0
 547.302734375 551 555.635742188 517.333007812 558.96875 480 c 0
EndSplineSet
Validated: 524289
EndChar

StartChar: P
Encoding: 80 80 48
Width: 590
GlyphClass: 2
Flags: W
HStem: -18.9971 21G<102.72 119.72> 218 105.918<165.556 368.305> 605.004 105.999<169.183 385.508>
VStem: 50.0537 129.999<-2.55739 224.218> 50.0537 113.996<32.1765 93.9443 96.7622 226 328.472 599.255> 439.055 115.995<391.836 558.239>
LayerCount: 2
Fore
SplineSet
173.049804688 109 m 0xec
 177.716796875 61 180.052734375 35.3369140625 180.052734375 32.00390625 c 0
 180.052734375 15.3369140625 171.719726562 2.669921875 155.052734375 -5.9970703125 c 0
 141.719726562 -14.6640625 127.38671875 -18.9970703125 112.053710938 -18.9970703125 c 0
 93.38671875 -18.9970703125 78.0537109375 -13.6640625 66.0537109375 -2.9970703125 c 0
 55.38671875 6.3359375 50.0537109375 18.6689453125 50.0537109375 34.001953125 c 0xf4
 50.0537109375 36.6689453125 50.38671875 41.001953125 51.0537109375 47.001953125 c 0
 51.720703125 56.3349609375 52.0537109375 72.3349609375 52.0537109375 95.001953125 c 0
 52.0537109375 132.334960938 51.38671875 183.66796875 50.0537109375 249.000976562 c 0
 47.38671875 359.66796875 45.7197265625 425.334960938 45.052734375 446.001953125 c 0
 44.830078125 463.56640625 44.71875 481.538085938 44.71875 499.91796875 c 0
 44.71875 536.650390625 45.1630859375 575.01171875 46.0517578125 615.001953125 c 1
 45.384765625 609.668945312 44.7177734375 610.3359375 44.05078125 617.002929688 c 1
 44.05078125 611.669921875 43.7177734375 611.669921875 43.05078125 617.002929688 c 0
 37.05078125 625.669921875 34.3837890625 634.336914062 35.05078125 643.00390625 c 2
 35.05078125 651.00390625 l 2
 37.05078125 661.00390625 41.7177734375 670.00390625 49.05078125 678.00390625 c 0
 56.3837890625 686.00390625 64.716796875 691.00390625 74.0498046875 693.00390625 c 0
 98.716796875 698.336914062 135.383789062 702.669921875 184.05078125 706.002929688 c 0
 235.383789062 709.3359375 271.383789062 711.002929688 292.05078125 711.002929688 c 0
 344.05078125 711.002929688 390.383789062 703.002929688 431.05078125 687.002929688 c 0
 468.383789062 670.3359375 498.216796875 645.168945312 520.549804688 611.501953125 c 0
 542.8828125 577.834960938 554.3828125 538.001953125 555.049804688 492.001953125 c 1
 555.049804688 454.668945312 548.716796875 419.168945312 536.049804688 385.501953125 c 0
 523.3828125 351.834960938 506.049804688 322.66796875 484.049804688 298.000976562 c 0
 462.049804688 273.333984375 433.716796875 253.666992188 399.049804688 239 c 0
 365.25390625 224.970703125 329.017578125 217.956054688 290.341796875 217.956054688 c 0
 288.583007812 217.956054688 286.818359375 217.970703125 285.049804688 218 c 0
 236.3828125 218 196.049804688 220.666992188 164.049804688 226 c 1
 166.049804688 188 169.049804688 149 173.049804688 109 c 0xec
161.052734375 334.00390625 m 1
 184.88671875 327.28125 212.3671875 323.91796875 243.485351562 323.91796875 c 0
 246.313476562 323.91796875 249.170898438 323.9453125 252.05859375 324.000976562 c 0
 272.05859375 324.000976562 290.391601562 325.333984375 307.05859375 328.000976562 c 0
 323.725585938 330.66796875 338.05859375 334.000976562 350.05859375 338.000976562 c 0
 362.05859375 342.000976562 372.55859375 347.333984375 381.55859375 354.000976562 c 0
 390.55859375 360.66796875 398.225585938 367.334960938 404.55859375 374.001953125 c 0
 410.891601562 380.668945312 416.224609375 388.501953125 420.557617188 397.501953125 c 0
 424.890625 406.501953125 428.223632812 414.668945312 430.556640625 422.001953125 c 0
 432.889648438 429.334960938 434.72265625 438.16796875 436.055664062 448.500976562 c 0
 437.388671875 458.833984375 438.221679688 467.333984375 438.5546875 474.000976562 c 0
 438.887695312 480.66796875 439.0546875 488.334960938 439.0546875 497.001953125 c 0
 439.0546875 513.668945312 435.721679688 528.3359375 429.0546875 541.002929688 c 0
 422.387695312 553.669921875 414.0546875 563.836914062 404.0546875 571.50390625 c 0
 394.0546875 579.170898438 382.221679688 585.670898438 368.5546875 591.00390625 c 0
 354.887695312 596.336914062 341.720703125 600.00390625 329.053710938 602.00390625 c 0
 316.38671875 604.00390625 304.053710938 605.00390625 292.053710938 605.00390625 c 0
 268.720703125 605.00390625 227.053710938 602.670898438 167.053710938 598.00390625 c 1
 164.38671875 518.00390625 162.719726562 464.336914062 162.052734375 437.00390625 c 0
 161.385742188 400.336914062 161.052734375 366.00390625 161.052734375 334.00390625 c 1
EndSplineSet
Validated: 524289
EndChar

StartChar: Q
Encoding: 81 81 49
Width: 590
GlyphClass: 2
Flags: W
HStem: -24 21G<265 292> 612 106<231.162 374.668>
VStem: 20.999 120.952<161.037 483.098> 232.999 106<138.764 207.502> 442.999 118.145<137.38 526.522>
LayerCount: 2
Fore
SplineSet
539.001953125 -204 m 0
 530.334960938 -209.333007812 521 -212 511 -212 c 0
 506.333007812 -212 501 -211.333007812 495 -210 c 0
 479.666992188 -206 467.333984375 -197.666992188 458.000976562 -185 c 0
 447.333984375 -172.333007812 430.166992188 -150 406.5 -118 c 0
 382.833007812 -86 360 -53.6669921875 338 -21 c 1
 320.666992188 -23 302 -24 282 -24 c 0
 248 -24 216.666992188 -19 188 -9 c 0
 159.333007812 0.3330078125 135.333007812 13.666015625 116 30.9990234375 c 0
 96.6669921875 48.33203125 80 68.33203125 66 90.9990234375 c 0
 39.3330078125 134.999023438 24.666015625 187.666015625 21.9990234375 248.999023438 c 0
 21.33203125 266.33203125 20.9990234375 282.999023438 20.9990234375 298.999023438 c 0
 20.9990234375 403.666015625 34.666015625 491.333007812 61.9990234375 562 c 1
 79.9990234375 606.666992188 111.666015625 644 156.999023438 674 c 0
 204.999023438 703.333007812 258.666015625 718 317.999023438 718 c 0
 381.33203125 718 434.33203125 699 476.999023438 661 c 0
 497.666015625 642.333007812 514.833007812 617.5 528.5 586.5 c 0
 542.166992188 555.5 551.333984375 520 556.000976562 480 c 0
 559.4296875 449.14453125 561.143554688 413.879882812 561.143554688 374.208984375 c 0
 561.143554688 367.594726562 561.096679688 360.858398438 561.000976562 354 c 0
 561.000976562 269.333007812 556.66796875 206.333007812 548.000976562 165 c 0
 534.000976562 97 503.000976562 47 455.000976562 15 c 1
 476.333984375 -14.3330078125 502.333984375 -48 533.000976562 -86 c 0
 551.66796875 -109.333007812 561.000976562 -121.333007812 561.000976562 -122 c 0
 566.333984375 -130 569.000976562 -138.333007812 569.000976562 -147 c 0
 569.000976562 -149.666992188 568.66796875 -152 568.000976562 -154 c 0
 566.66796875 -164 563.334960938 -173.666992188 558.001953125 -183 c 0
 552.001953125 -192.333007812 545.668945312 -199.333007812 539.001953125 -204 c 0
244 114 m 0
 236.666992188 131.333007812 232.999023438 147 232.999023438 161 c 0
 232.999023438 182.333007812 241.666015625 199 258.999023438 211 c 0
 268.999023438 218.333007812 279.666015625 222.333007812 290.999023438 223 c 0
 300.33203125 223 309.33203125 220 317.999023438 214 c 0
 326.666015625 208 333.666015625 198.666992188 338.999023438 186 c 0
 350.33203125 156.666992188 366.33203125 125 386.999023438 91 c 1
 408.999023438 108.333007812 423.999023438 134 431.999023438 168 c 0
 433.999023438 177.333007812 436.166015625 197 438.499023438 227 c 0
 440.83203125 257 442.33203125 294.666992188 442.999023438 340 c 2
 442.999023438 356 l 2
 442.999023438 395.333007812 440.666015625 433 435.999023438 469 c 0
 429.999023438 513.666992188 415.33203125 549 391.999023438 575 c 0
 369.33203125 599.666992188 340.165039062 612 304.498046875 612 c 0
 268.831054688 612 238.998046875 600.333007812 214.998046875 577 c 0
 190.331054688 553 172.331054688 518.666992188 160.998046875 474 c 0
 148.299804688 425.112304688 141.951171875 374.108398438 141.951171875 320.98828125 c 0
 141.951171875 318.331054688 141.966796875 315.66796875 141.999023438 313 c 0
 141.999023438 293 142.666015625 272.333007812 143.999023438 251 c 1
 146.666015625 214.333007812 154.333007812 181.5 167 152.5 c 0
 179.666992188 123.5 196 100.666992188 216 84 c 0
 232.666992188 70.6669921875 251 63 271 61 c 1
 259 82.3330078125 250 100 244 114 c 0
EndSplineSet
Validated: 524289
EndChar

StartChar: R
Encoding: 82 82 50
Width: 590
GlyphClass: 2
Flags: W
HStem: -18.9961 21G<81.1675 101.501 496.501 512.167> 694.002 20G<78.8325 95.499>
VStem: 31.501 118.999<129 609.003> 36.167 123.334<-2.55641 249.432> 36.5 115.001<371.653 607.007> 36.5 104.999<34.426 251 369.003 497.376> 436.501 116.998<408.488 493.809>
LayerCount: 2
Fore
SplineSet
148.500976562 449.00390625 m 0xca
 147.16796875 431.670898438 144.83203125 405.3359375 141.499023438 370.002929688 c 1xc6
 146.83203125 369.3359375 153.83203125 369.002929688 162.499023438 369.002929688 c 0
 171.166015625 369.002929688 181.833007812 369.669921875 194.5 371.002929688 c 0
 223.833007812 372.3359375 248.5 373.668945312 268.5 375.001953125 c 0
 319.166992188 379.001953125 355.833984375 384.334960938 378.500976562 391.001953125 c 0
 390.500976562 395.001953125 401.16796875 399.668945312 410.500976562 405.001953125 c 0
 419.833984375 410.334960938 426.500976562 416.16796875 430.500976562 422.500976562 c 0
 434.500976562 428.833984375 436.500976562 436.333984375 436.500976562 445.000976562 c 0
 436.500976562 461.000976562 429.66796875 476.833984375 416.000976562 492.500976562 c 0
 402.333984375 508.16796875 384.500976562 522.334960938 362.500976562 535.001953125 c 0
 340.500976562 547.668945312 315.333984375 559.3359375 287.000976562 570.002929688 c 0
 258.66796875 580.669921875 232.834960938 589.002929688 209.501953125 595.002929688 c 0
 186.168945312 601.002929688 165.501953125 605.669921875 147.501953125 609.002929688 c 1
 148.834960938 566.3359375 150.16796875 529.3359375 151.500976562 498.002929688 c 0
 151.500976562 484.669921875 150.500976562 468.336914062 148.500976562 449.00390625 c 0xca
150.5 129 m 0xe2
 156.5 74.3330078125 159.500976562 42.669921875 159.500976562 34.0029296875 c 0xd2
 159.500976562 16.669921875 151.833984375 3.3369140625 136.500976562 -5.99609375 c 0
 123.833984375 -14.6630859375 109.500976562 -18.99609375 93.5009765625 -18.99609375 c 2
 89.5009765625 -18.99609375 l 2
 72.833984375 -18.3291015625 58.833984375 -12.99609375 47.5009765625 -2.99609375 c 0
 36.833984375 6.3369140625 31.5009765625 18.669921875 31.5009765625 34.0029296875 c 2
 31.5009765625 42.0029296875 l 2xe2
 34.16796875 75.3359375 35.5 103.3359375 35.5 126.002929688 c 0
 35.5 132.002929688 35.66796875 145.169921875 36.0009765625 165.502929688 c 0
 36.1123046875 172.274414062 36.1669921875 179.895507812 36.1669921875 188.3671875 c 0xd2
 36.1669921875 205.334960938 35.9453125 225.712890625 35.5 249.502929688 c 0
 34.8330078125 285.169921875 34.5 307.502929688 34.5 316.502929688 c 0
 34.5 325.502929688 35.1669921875 343.3359375 36.5 370.002929688 c 0xc6
 37.5 393.002929688 38 414.752929688 38 435.252929688 c 0
 38 455.752929688 37.5 475.002929688 36.5 493.002929688 c 0xca
 35.8330078125 515.002929688 34.16796875 544.66796875 31.5009765625 582.000976562 c 0
 28.833984375 619.333984375 27.4990234375 642.002929688 27.4990234375 650.002929688 c 2
 27.4990234375 655.002929688 l 2
 27.4990234375 656.3359375 27.166015625 657.668945312 26.4990234375 659.001953125 c 0
 26.4990234375 671.001953125 31.9990234375 683.168945312 42.9990234375 695.501953125 c 0
 53.9990234375 707.834960938 69.166015625 714.001953125 88.4990234375 714.001953125 c 0
 102.499023438 714.001953125 114.166015625 711.334960938 123.499023438 706.001953125 c 1
 181.499023438 703.334960938 235.499023438 696.16796875 285.499023438 684.500976562 c 0
 335.499023438 672.833984375 377.499023438 658.333984375 411.499023438 641.000976562 c 0
 444.166015625 623.66796875 471.166015625 604.000976562 492.499023438 582.000976562 c 0
 513.83203125 560.000976562 529.33203125 537.66796875 538.999023438 515.000976562 c 0
 548.666015625 492.333984375 553.499023438 469.333984375 553.499023438 446.000976562 c 0
 553.499023438 394.000976562 532.83203125 355.000976562 491.499023438 329.000976562 c 0
 478.166015625 321.000976562 463.833007812 314.000976562 448.5 308.000976562 c 0
 432.5 302.66796875 413.666992188 297.834960938 392 293.501953125 c 0
 370.333007812 289.168945312 351.833007812 286.168945312 336.5 284.501953125 c 0
 321.166992188 282.834960938 308.5 281.66796875 298.5 281.000976562 c 1
 357.166992188 251.000976562 409.5 217.333984375 455.5 180.000976562 c 0
 508.166992188 134.66796875 542.833984375 95.0009765625 559.500976562 61.0009765625 c 0
 562.16796875 53.66796875 563.500976562 46.66796875 563.500976562 40.0009765625 c 0
 563.500976562 33.333984375 562.500976562 27.0009765625 560.500976562 21.0009765625 c 0
 555.833984375 9.0009765625 548.166992188 -0.666015625 537.5 -7.9990234375 c 0
 528.166992188 -14.666015625 517.833984375 -17.9990234375 506.500976562 -17.9990234375 c 0
 486.500976562 -17.9990234375 469.16796875 -7.9990234375 454.500976562 12.0009765625 c 0
 443.833984375 25.333984375 428.000976562 42.1669921875 407.000976562 62.5 c 0
 386.000976562 82.8330078125 360.500976562 105.333007812 330.500976562 130 c 0
 300.500976562 154.666992188 266.500976562 179 228.500976562 203 c 0
 197.833984375 222.333007812 168.166992188 238.333007812 139.5 251 c 1
 141.5 217.666992188 145.166992188 177 150.5 129 c 0xe2
EndSplineSet
Validated: 524289
EndChar

StartChar: S
Encoding: 83 83 51
Width: 590
GlyphClass: 2
Flags: W
HStem: -29 108.995<169.656 350.49> 620.998 102.998<245.853 510.886>
VStem: 19.96 10.0801<80.1222 81> 50.0439 127.998<475.646 569.182> 446.045 123.995<155.55 280.464>
LayerCount: 2
Fore
SplineSet
30.0400390625 73 m 1
 23.318359375 87.0537109375 19.9599609375 99.705078125 19.9599609375 110.958984375 c 0
 19.9599609375 115.76953125 20.2177734375 120.87109375 21.04296875 124.99609375 c 0
 25.04296875 140.329101562 34.3759765625 151.662109375 49.04296875 158.995117188 c 0
 57.7099609375 162.995117188 64.376953125 165.495117188 69.0439453125 166.495117188 c 0
 73.7109375 167.495117188 77.8779296875 167.995117188 81.544921875 167.995117188 c 2
 90.044921875 167.995117188 l 2
 98.044921875 167.328125 105.544921875 163.995117188 112.544921875 157.995117188 c 0
 119.544921875 151.995117188 126.377929688 144.328125 133.044921875 134.995117188 c 0
 144.377929688 118.328125 160.544921875 104.995117188 181.544921875 94.9951171875 c 0
 202.544921875 84.9951171875 226.377929688 79.9951171875 253.044921875 79.9951171875 c 0
 269.044921875 79.9951171875 286.044921875 81.9951171875 304.044921875 85.9951171875 c 0
 322.044921875 89.9951171875 339.544921875 96.162109375 356.544921875 104.495117188 c 0
 373.544921875 112.828125 388.711914062 122.328125 402.044921875 132.995117188 c 0
 415.377929688 143.662109375 426.044921875 155.995117188 434.044921875 169.995117188 c 0
 442.044921875 183.995117188 446.044921875 198.995117188 446.044921875 214.995117188 c 0
 446.044921875 223.662109375 445.377929688 231.495117188 444.044921875 238.495117188 c 0
 442.711914062 245.495117188 440.211914062 252.995117188 436.544921875 260.995117188 c 0
 432.877929688 268.995117188 428.044921875 276.328125 422.044921875 282.995117188 c 0
 416.044921875 289.662109375 407.377929688 296.495117188 396.044921875 303.495117188 c 0
 384.711914062 310.495117188 371.211914062 316.662109375 355.544921875 321.995117188 c 0
 339.877929688 327.328125 320.2109375 332.328125 296.543945312 336.995117188 c 0
 272.876953125 341.662109375 246.876953125 345.329101562 218.543945312 347.99609375 c 0
 190.2109375 350.663085938 164.7109375 356.99609375 142.043945312 366.99609375 c 0
 120.7109375 376.99609375 103.543945312 389.49609375 90.5439453125 404.49609375 c 0
 77.5439453125 419.49609375 67.5439453125 435.329101562 60.5439453125 451.99609375 c 0
 53.5439453125 468.663085938 50.0439453125 485.330078125 50.0439453125 501.997070312 c 0
 50.0439453125 525.330078125 54.2109375 547.663085938 62.5439453125 568.99609375 c 0
 70.876953125 590.329101562 83.5439453125 610.49609375 100.543945312 629.49609375 c 0
 117.543945312 648.49609375 138.376953125 664.99609375 163.043945312 678.99609375 c 0
 188.376953125 692.99609375 218.709960938 703.99609375 254.04296875 711.99609375 c 0
 289.375976562 719.99609375 327.375976562 723.99609375 368.04296875 723.99609375 c 0
 388.04296875 723.99609375 415.375976562 722.329101562 450.04296875 718.99609375 c 0
 482.04296875 715.663085938 504.375976562 711.663085938 517.04296875 706.99609375 c 0
 532.375976562 701.663085938 543.708984375 692.663085938 551.041992188 679.99609375 c 0
 556.375 670.663085938 559.041992188 660.330078125 559.041992188 648.997070312 c 0
 559.041992188 634.330078125 555.041992188 622.997070312 547.041992188 614.997070312 c 0
 540.375 608.330078125 532.375 604.330078125 523.041992188 602.997070312 c 0
 518.375 602.330078125 514.375 601.997070312 511.041992188 601.997070312 c 0
 507.708984375 601.997070312 504.041992188 602.330078125 500.041992188 602.997070312 c 0
 492.708984375 603.6640625 485.041992188 605.331054688 477.041992188 607.998046875 c 0
 465.708984375 610.665039062 456.708984375 612.665039062 450.041992188 613.998046875 c 0
 442.708984375 615.331054688 431.041992188 616.831054688 415.041992188 618.498046875 c 0
 399.041992188 620.165039062 380.375 620.998046875 359.041992188 620.998046875 c 0
 327.041992188 620.998046875 297.375 616.831054688 270.041992188 608.498046875 c 0
 242.708984375 600.165039062 220.541992188 588.33203125 203.541992188 572.999023438 c 0
 186.541992188 557.666015625 178.041992188 540.666015625 178.041992188 521.999023438 c 0
 178.041992188 500.666015625 188.375 482.666015625 209.041992188 467.999023438 c 0
 231.708984375 452.666015625 264.041992188 443.999023438 306.041992188 441.999023438 c 0
 347.375 439.999023438 384.375 434.33203125 417.041992188 424.999023438 c 0
 449.041992188 415.666015625 474.208984375 403.999023438 492.541992188 389.999023438 c 0
 510.875 375.999023438 526.208007812 359.499023438 538.541015625 340.499023438 c 0
 550.874023438 321.499023438 559.20703125 302.999023438 563.540039062 284.999023438 c 0
 567.873046875 266.999023438 570.040039062 247.666015625 570.040039062 226.999023438 c 0
 570.040039062 196.33203125 564.540039062 167.33203125 553.540039062 139.999023438 c 0
 542.540039062 112.666015625 527.373046875 88.8330078125 508.040039062 68.5 c 0
 488.70703125 48.1669921875 466.040039062 30.6669921875 440.040039062 16 c 0
 412.040039062 1.3330078125 382.040039062 -9.6669921875 350.040039062 -17 c 0
 317.373046875 -24.3330078125 283.706054688 -28.3330078125 249.0390625 -29 c 0
 195.706054688 -29 149.373046875 -19 110.040039062 1 c 0
 72.0400390625 20.3330078125 45.70703125 44.3330078125 31.0400390625 73 c 0
 30.373046875 81 30.0400390625 81 30.0400390625 73 c 1
EndSplineSet
Validated: 524289
EndChar

StartChar: T
Encoding: 84 84 52
Width: 590
GlyphClass: 2
Flags: W
HStem: -13.002 21G<291.002 312.668> 591 110<373.266 555.528> 622 92<34.4397 224.029>
VStem: 228.002 135.998<346.537 596> 241.002 136.998<4.95311 342.594>
LayerCount: 2
Fore
SplineSet
351 1 m 0xc8
 337 -8.3330078125 321.334960938 -13.001953125 304.001953125 -13.001953125 c 2
 300.001953125 -13.001953125 l 2
 282.001953125 -13.001953125 267.001953125 -7.3349609375 255.001953125 3.998046875 c 0
 244.334960938 13.3310546875 239.001953125 25.998046875 239.001953125 41.998046875 c 0
 239.001953125 44.6650390625 239.334960938 48.83203125 240.001953125 54.4990234375 c 0
 240.66796875 60.166015625 241.001953125 73.3330078125 241.001953125 94 c 0xc8
 241.001953125 140 238.834960938 222.333007812 234.501953125 341 c 0
 230.16796875 459.666992188 228.001953125 544 228.001953125 594 c 2
 228.001953125 600 l 1
 142.66796875 604 93.66796875 607 81.001953125 609 c 0
 64.333984375 611.666992188 50.66796875 616 40 622 c 0
 26 630.666992188 19 642.666992188 19 658 c 2
 19 661 l 2
 19 675 24 687.666992188 34 699 c 0
 43.333984375 709 55.666015625 714 71 714 c 0xb0
 75 714 79.33203125 713.666992188 84 713 c 0
 120 707 262.666992188 703 512 701 c 0
 531.33203125 701 546 696 556 686 c 0
 566 676 571 664 571 650 c 0
 571 634.666992188 566 621 556 609 c 0
 546 597 532 591 514 591 c 0
 513.33203125 591 463.33203125 592.666992188 364 596 c 1xd0
 365.33203125 465.333007812 370 281.333007812 378 44 c 0
 376 25.3330078125 367 11 351 1 c 0xc8
EndSplineSet
Validated: 524289
EndChar

StartChar: U
Encoding: 85 85 53
Width: 590
GlyphClass: 2
Flags: W
HStem: -28.9971 114.999<206.955 374.214> 689.002 20G<70.938 89.2715 510.272 522.606>
VStem: 14.7275 118.544<176.994 688.531> 457.771 117.501<180.084 691.435>
LayerCount: 2
Fore
SplineSet
445.272460938 17 m 0
 427.272460938 7 408.268554688 -1.6640625 388.268554688 -8.9970703125 c 0
 368.935546875 -16.330078125 350.102539062 -21.4970703125 331.76953125 -24.4970703125 c 0
 313.436523438 -27.4970703125 294.103515625 -28.9970703125 273.770507812 -28.9970703125 c 0
 253.4375 -28.9970703125 231.9375 -26.1640625 209.270507812 -20.4970703125 c 0
 186.603515625 -14.830078125 163.603515625 -5.330078125 140.270507812 8.0029296875 c 0
 118.270507812 21.3359375 98.603515625 38.1689453125 81.2705078125 58.501953125 c 0
 63.9375 78.8349609375 49.6044921875 104.834960938 38.271484375 136.501953125 c 0
 26.9384765625 168.168945312 20.60546875 203.668945312 19.2724609375 243.001953125 c 0
 16.2421875 352.708007812 14.7275390625 437.065429688 14.7275390625 496.07421875 c 0
 14.7275390625 501.969726562 14.7421875 507.612304688 14.7724609375 513.001953125 c 0
 15.10546875 572.334960938 15.9384765625 615.66796875 17.271484375 643.000976562 c 0
 17.9384765625 663.66796875 24.271484375 679.834960938 36.271484375 691.501953125 c 0
 48.271484375 703.168945312 62.6044921875 709.001953125 79.271484375 709.001953125 c 0
 99.271484375 709.001953125 113.938476562 702.334960938 123.271484375 689.001953125 c 0
 129.938476562 679.001953125 133.271484375 665.334960938 133.271484375 648.001953125 c 0
 133.271484375 430.668945312 134.938476562 299.668945312 138.271484375 255.001953125 c 0
 139.604492188 236.334960938 142.104492188 219.66796875 145.771484375 205.000976562 c 0
 149.438476562 190.333984375 154.938476562 175.333984375 162.271484375 160.000976562 c 0
 169.604492188 144.66796875 178.604492188 131.834960938 189.271484375 121.501953125 c 0
 199.938476562 111.168945312 213.438476562 102.668945312 229.771484375 96.001953125 c 0
 246.104492188 89.3349609375 264.604492188 86.001953125 285.271484375 86.001953125 c 0
 333.271484375 86.001953125 372.104492188 100.168945312 401.771484375 128.501953125 c 0
 431.438476562 156.168945312 448.271484375 200.001953125 452.271484375 260.001953125 c 0
 454.271484375 287.334960938 455.938476562 318.334960938 457.271484375 353.001953125 c 0
 457.604492188 376.3359375 457.771484375 397.8359375 457.771484375 417.501953125 c 0
 457.771484375 437.168945312 457.604492188 455.001953125 457.271484375 471.001953125 c 0
 456.604492188 538.334960938 456.271484375 577.16796875 456.271484375 587.500976562 c 2
 456.271484375 634.000976562 l 2
 456.271484375 649.333984375 457.604492188 662.500976562 460.271484375 673.500976562 c 0
 462.938476562 684.500976562 467.60546875 692.66796875 474.272460938 698.000976562 c 0
 480.939453125 703.333984375 487.272460938 706.666992188 493.272460938 708 c 0
 499.272460938 709.333007812 506.272460938 710 514.272460938 710 c 0
 530.939453125 710 544.439453125 704 554.772460938 692 c 0
 565.10546875 680 570.60546875 664.333007812 571.272460938 645 c 0
 573.939453125 594.333007812 575.272460938 537.166015625 575.272460938 473.499023438 c 0
 575.272460938 409.83203125 573.939453125 339.33203125 571.272460938 261.999023438 c 0
 569.939453125 231.999023438 565.772460938 203.83203125 558.772460938 177.499023438 c 0
 551.772460938 151.166015625 542.772460938 128.333007812 531.772460938 109 c 0
 520.772460938 89.6669921875 507.939453125 72 493.272460938 56 c 0
 478.60546875 40 462.60546875 27 445.272460938 17 c 0
EndSplineSet
Validated: 524289
EndChar

StartChar: V
Encoding: 86 86 54
Width: 590
GlyphClass: 2
Flags: W
HStem: -12 21G<293.503 310.499> 691.001 20G<56.501 64.501>
LayerCount: 2
Fore
SplineSet
301.499023438 -12 m 2
 293.502929688 -11.9990234375 l 2
 277.502929688 -11.9990234375 263.8359375 -9.666015625 252.502929688 -4.9990234375 c 0
 237.169921875 1.0009765625 226.169921875 11.0009765625 219.502929688 25.0009765625 c 0
 189.502929688 95.66796875 148.169921875 205.000976562 95.5029296875 353.000976562 c 0
 44.8359375 502.333984375 16.1689453125 593.333984375 9.501953125 626.000976562 c 0
 6.8349609375 639.333984375 5.16796875 651.666992188 4.5009765625 663 c 0
 4.5009765625 671.666992188 6.833984375 679.666992188 11.5009765625 687 c 0
 16.833984375 695.666992188 25.5009765625 702.333984375 37.5009765625 707.000976562 c 0
 44.833984375 709.66796875 52.5009765625 711.000976562 60.5009765625 711.000976562 c 0
 68.5009765625 711.000976562 76.833984375 709.333984375 85.5009765625 706.000976562 c 0
 100.833984375 699.333984375 112.166992188 685.333984375 119.5 664.000976562 c 0
 123.5 649.333984375 157.166992188 549.000976562 220.5 363.000976562 c 0
 249.833007812 278.333984375 272.5 214.000976562 288.5 170.000976562 c 1
 314.5 240.66796875 348.5 335.66796875 390.5 455.000976562 c 2
 464.5 664.000976562 l 2
 472.5 684.66796875 484.5 698.334960938 500.5 705.001953125 c 0
 509.166992188 708.334960938 517.666992188 710.16796875 526 710.500976562 c 0
 534.333007812 710.833984375 542.166015625 709.666992188 549.499023438 707 c 0
 558.83203125 703.666992188 566.83203125 698.666992188 573.499023438 692 c 0
 579.499023438 684.666992188 583.499023438 676 585.499023438 666 c 2
 585.499023438 660 l 2
 585.499023438 648 582.83203125 635 577.499023438 621 c 0
 562.83203125 587 528.499023438 494 474.499023438 342 c 0
 417.166015625 188 380.499023438 83 364.499023438 27 c 0
 360.499023438 15.6669921875 354.166015625 6.6669921875 345.499023438 0 c 0
 334.166015625 -8 319.499023438 -12 301.499023438 -12 c 2
EndSplineSet
Validated: 524289
EndChar

StartChar: W
Encoding: 87 87 55
Width: 590
GlyphClass: 2
Flags: W
HStem: -11 21G<422.49 444.157> 693.053 20.9482G<59.1577 72.4912 287.415 305.876 313.824 321.824 523.117 531.31>
VStem: 6.49121 112.001<400.659 693.625> 476.49 107.019<369.179 695.466>
LayerCount: 2
Fore
SplineSet
476.490234375 632 m 0
 476.490234375 638 476.15625 644.333007812 475.489257812 651 c 0
 475.489257812 669.666992188 480.822265625 684.666992188 491.489257812 696 c 0
 502.225585938 707.368164062 515.35546875 713.052734375 530.87890625 713.052734375 c 0
 531.741210938 713.052734375 532.611328125 713.03515625 533.489257812 713 c 0
 566.834960938 713 583.508789062 689.594726562 583.508789062 642.782226562 c 0
 583.508789062 601.635742188 579.71484375 546.993164062 573.489257812 481 c 0
 565.489257812 391.666992188 561.489257812 345.333984375 561.489257812 342.000976562 c 0
 558.822265625 313.333984375 554.822265625 271.666992188 549.489257812 217 c 0
 543.489257812 161.666992188 537.822265625 118.666992188 532.489257812 88 c 0
 527.15625 58.6669921875 521.823242188 38.6669921875 516.490234375 28 c 0
 508.490234375 14 495.823242188 3.6669921875 478.490234375 -3 c 0
 464.490234375 -8.3330078125 450.823242188 -11 437.490234375 -11 c 2
 430.490234375 -11 l 2
 414.490234375 -11 400.823242188 -8.6669921875 389.490234375 -4 c 0
 374.823242188 2 364.823242188 12 359.490234375 26 c 0
 341.490234375 89.3330078125 327.490234375 174 317.490234375 280 c 2
 300.490234375 459 l 1
 293.157226562 390.333007812 285.157226562 320.333007812 276.490234375 249 c 0
 262.490234375 134.333007812 250.490234375 60 240.490234375 26 c 0
 237.157226562 16 229.157226562 8 216.490234375 2 c 0
 205.157226562 -4 193.82421875 -8 182.491210938 -10 c 0
 175.158203125 -11.3330078125 168.825195312 -11.8330078125 163.4921875 -11.5 c 0
 158.159179688 -11.1669921875 154.159179688 -11 151.4921875 -11 c 2
 147.4921875 -11 l 2
 141.4921875 -11 136.4921875 -10.6669921875 132.4921875 -10 c 0
 128.4921875 -10 122.4921875 -9.3330078125 114.4921875 -8 c 0
 107.159179688 -6.6669921875 100.826171875 -4.6669921875 95.4931640625 -2 c 0
 90.16015625 0.6669921875 85.4931640625 5 81.4931640625 11 c 0
 76.826171875 17 73.826171875 24 72.4931640625 32 c 1
 71.826171875 36.6669921875 68.1591796875 58.333984375 61.4921875 97.0009765625 c 0
 54.8251953125 135.000976562 50.158203125 170.000976562 47.4912109375 202.000976562 c 0
 39.4912109375 278.000976562 26.158203125 420.66796875 7.4912109375 630.000976562 c 0
 6.82421875 636.000976562 6.4912109375 642.000976562 6.4912109375 648.000976562 c 0
 6.4912109375 679.333984375 18.82421875 700.333984375 43.4912109375 711.000976562 c 0
 49.4912109375 713.000976562 55.82421875 714.000976562 62.4912109375 714.000976562 c 2
 68.4912109375 714.000976562 l 2
 76.4912109375 713.333984375 84.158203125 711.333984375 91.4912109375 708.000976562 c 0
 100.158203125 705.333984375 106.825195312 700.666992188 111.4921875 694 c 0
 116.159179688 686 118.4921875 677.333007812 118.4921875 668 c 2
 118.4921875 660 l 2
 118.4921875 615.333007812 129.825195312 475.666015625 152.4921875 240.999023438 c 0
 153.825195312 224.999023438 156.158203125 204.666015625 159.491210938 179.999023438 c 1
 160.82421875 189.999023438 163.157226562 207.666015625 166.490234375 232.999023438 c 0
 176.490234375 309.666015625 182.823242188 359.333007812 185.490234375 382 c 0
 210.157226562 562.666992188 227.490234375 664.333984375 237.490234375 687.000976562 c 0
 247.10546875 703.026367188 269.6640625 711.0390625 305.166015625 711.0390625 c 0
 306.586914062 711.0390625 308.028320312 711.026367188 309.490234375 711.000976562 c 0
 311.490234375 711.000976562 313.157226562 711.333984375 314.490234375 712.000976562 c 0
 329.157226562 712.000976562 341.490234375 709.66796875 351.490234375 705.000976562 c 0
 364.157226562 700.333984375 372.157226562 693.666992188 375.490234375 685 c 0
 378.823242188 673 382.823242188 653 387.490234375 625 c 0
 395.490234375 573.666992188 403.490234375 515.666992188 411.490234375 451 c 0
 419.490234375 385.666992188 425.490234375 339.666992188 429.490234375 313 c 0
 433.490234375 281.666992188 438.823242188 246.666992188 445.490234375 208 c 1
 454.157226562 287.333007812 462.157226562 382.333007812 469.490234375 493 c 0
 474.157226562 559.666992188 476.490234375 606 476.490234375 632 c 0
EndSplineSet
Validated: 524289
EndChar

